<?xml version="1.0" encoding="utf-8"?>
<!-- Generator: Adobe Illustrator 25.0.0, SVG Export Plug-In . SVG Version: 6.00 Build 0)  -->
<svg version="1.1" id="Layer_1" xmlns="http://www.w3.org/2000/svg" xmlns:xlink="http://www.w3.org/1999/xlink" x="0px" y="0px"
	 viewBox="0 0 52.9 49.8" style="enable-background:new 0 0 52.9 49.8;" xml:space="preserve">
<style type="text/css">
	.st0{fill:#5B8C51;}
</style>
<g>
	<path class="st0" d="M52.9,4.9c-0.3,0.8-0.6,1.6-1.1,2.3c-1,1.3-2,2.6-3.2,3.7c-5.2,5-9.5,10.7-13.8,16.5
		c-4.6,6.1-9,12.4-12.7,19.1c-0.4,0.7-0.9,1.4-1.5,2.1c-1.4,1.5-2.8,1.8-4.5,0.7c-1.3-0.9-2.6-2-3.7-3.2C8,40.9,3.8,35.6,0.8,29.4
		c-0.3-0.6-0.6-1.3-0.7-1.9c-0.3-1.2,0.1-2.2,1.2-2.9c0.2-0.1,0.3-0.2,0.5-0.3c3.1-1.7,4.7-1.4,6.8,1.4c2.4,3.2,4.8,6.4,7.1,9.6
		c1,1.3,1.7,1.4,2.7,0.1c1-1.3,1.9-2.8,2.8-4.1C25,26,28.7,20.7,32.8,15.7c3.5-4.4,7.5-8.4,11.4-12.5c1-1,2.2-1.9,3.4-2.7
		c1.5-0.9,2.6-0.6,3.7,0.7C52.1,2.3,52.7,3.6,52.9,4.9z"/>
</g>
</svg>
