<?xml version="1.0" encoding="utf-8"?>
<!-- Generator: Adobe Illustrator 25.0.0, SVG Export Plug-In . SVG Version: 6.00 Build 0)  -->
<svg version="1.1" id="Layer_1" xmlns="http://www.w3.org/2000/svg" xmlns:xlink="http://www.w3.org/1999/xlink" x="0px" y="0px"
	 viewBox="0 0 72.5 49.8" style="enable-background:new 0 0 72.5 49.8;" xml:space="preserve">
<style type="text/css">
	.st0{fill:#5B8C51;}
</style>
<g>
	<path class="st0" d="M47.5,5.1c2.6,0,5.1,0,7.5,0c2,0,4,0,6.1,0c1.3,0,2.3,0.5,2.9,1.6c2.3,4.1,4.6,8.2,6.8,12.4
		c1.2,2.3,1.6,4.9,1.6,7.5c0,4.4,0,8.8,0,13.3c0,1.5-0.9,2.4-2.5,2.4c-2.3,0-4.7,0-7,0c-0.2,0-0.3,0-0.5,0c-0.9,5.1-5,7.5-8.6,7.5
		c-3.2,0-7.4-2.1-8.4-7.5c-5.7,0-11.4,0-17.2,0c-0.4,2.5-1.6,4.6-3.8,6c-1.5,1-3.1,1.5-4.8,1.4c-4.2-0.1-6.8-2.5-8.3-7.5
		c-0.6,0-1.1,0-1.7,0c-1.4,0-2.4-0.9-2.4-2.4c0-2,0-3.9,0-5.9c0-0.9,0.3-1.2,1.2-1.2c0.2,0,0.4,0,0.6,0c11.8,0,23.6,0,35.4,0
		c0.3,0,0.6,0,1,0c0-0.3,0-0.6,0-0.9c0-9.6,0-19.3,0-28.9c0-1.1,0-1.1-1-1.1C32.7,2,20.8,2,9,2C8.7,2,8.4,2,8.1,2
		C7.6,1.9,7.3,1.5,7.3,1c0-0.5,0.3-0.9,0.8-1c0.2,0,0.5,0,0.7,0c12,0,24.1,0,36.1,0c1.9,0,2.7,0.8,2.7,2.7
		C47.5,3.5,47.5,4.2,47.5,5.1z M47.6,7.1c0,9.6,0,19.1,0,28.6c5.1-5.5,13.9-2.6,15,4.6c2.5,0,5,0,7.5,0c0.2,0,0.4-0.3,0.4-0.5
		c0.1-0.7,0-1.4,0-2c-0.2-0.1-0.4-0.1-0.5-0.2c-2-0.7-3.3-2.4-3.3-4.5c0-1,0-1.9,0-2.9c0-1.5,0.9-2.4,2.5-2.5c0.4,0,0.9,0,1.4,0
		c0-0.2,0-0.3,0-0.4c0-2.9-0.6-5.7-1.9-8.3c-2-3.7-4-7.3-6-10.9c-0.4-0.6-0.9-0.9-1.6-0.9c-2.8,0-5.6,0-8.4,0
		C50.9,7.1,49.2,7.1,47.6,7.1z M25.5,34.8c0.2,0.2,0.4,0.4,0.5,0.6c1.2,1.2,1.9,2.6,2.2,4.2c0.1,0.5,0.3,0.7,0.8,0.7
		c5.3,0,10.5,0,15.8,0c0.2,0,0.5,0,0.7,0c0-1.9,0-3.7,0-5.5C38.8,34.8,32.2,34.8,25.5,34.8z M60.5,41.3c0-3.6-2.9-6.5-6.5-6.5
		c-3.6,0-6.5,2.9-6.5,6.5c0,3.6,3,6.5,6.6,6.5C57.7,47.8,60.5,44.9,60.5,41.3z M19.8,47.8c3.5,0.1,6.5-2.8,6.6-6.2
		c0.1-3.7-2.8-6.7-6.4-6.7c-3.5-0.1-6.5,2.8-6.5,6.3C13.3,44.8,16.1,47.7,19.8,47.8z M14.4,34.8c-1.8,0-3.4,0-5.1,0
		c0,1.7,0,3.4,0,5.1c0,0.1,0.2,0.4,0.4,0.4c0.5,0,1,0,1.5,0c0.1,0,0.3-0.2,0.4-0.3C11.8,38,12.8,36.3,14.4,34.8z M70.4,35.6
		c0-1.9,0-3.9,0-5.9c-0.4,0-0.8,0-1.1,0c-0.5,0-0.7,0.2-0.7,0.7c0,0.9,0,1.8,0,2.6C68.7,34.3,69.3,35.2,70.4,35.6z"/>
	<path class="st0" d="M29.2,30c-7,0-12.5-5.7-12.5-12.7c0-6.9,5.7-12.5,12.6-12.5c6.9,0,12.6,5.7,12.5,12.7
		C41.7,24.4,36.1,30,29.2,30z M29.2,28c5.8,0,10.6-4.7,10.6-10.5c0-5.9-4.7-10.7-10.6-10.6c-5.8,0-10.5,4.7-10.5,10.5
		C18.7,23.2,23.3,27.9,29.2,28z"/>
	<path class="st0" d="M6.3,14.5c-1.7,0-3.3,0-5,0c-0.8,0-1.3-0.4-1.3-1c0-0.6,0.4-1,1.2-1c3.3,0,6.7,0,10,0c0.8,0,1.3,0.4,1.3,1
		c0,0.6-0.4,1-1.3,1C9.6,14.5,7.9,14.5,6.3,14.5z"/>
	<path class="st0" d="M6.2,22.3c-1.7,0-3.4,0-5.1,0c-0.8,0-1.2-0.4-1.2-1c0-0.6,0.4-0.9,1.1-1c1.1,0,2.3,0,3.4,0c2.1,0,4.3,0,6.4,0
		c0.2,0,0.4,0,0.6,0c0.6,0.1,0.9,0.4,1,1c0,0.6-0.4,1-1,1c-1.1,0-2.1,0-3.2,0C7.7,22.3,6.9,22.3,6.2,22.3z"/>
	<path class="st0" d="M6.2,6.8c-1.7,0-3.3,0-5,0C0.4,6.8,0,6.5,0,5.8c0-0.6,0.4-1,1.2-1c3.3,0,6.7,0,10,0c0.8,0,1.3,0.4,1.3,1
		c0,0.6-0.4,1-1.2,1C9.6,6.8,7.9,6.8,6.2,6.8z"/>
	<path class="st0" d="M6.2,30c-1.7,0-3.4,0-5.1,0c-0.3,0-0.8-0.3-1-0.6c-0.1-0.2,0-0.7,0.2-1C0.4,28.1,0.8,28,1.1,28
		c3.4,0,6.8,0,10.3,0c0.7,0,1.1,0.4,1.2,1c0,0.6-0.4,1-1.2,1C9.6,30,7.9,30,6.2,30C6.2,30,6.2,30,6.2,30z"/>
	<path class="st0" d="M55.5,8.2c1.4,0,2.8,0,4.1,0c1.1,0,1.9,0.4,2.4,1.4c1.7,3.1,3.4,6.2,5.1,9.3c0.4,0.7,0.7,1.5,1,2.3
		c0.6,1.7-0.9,3.3-2.6,2.9c-5-1.1-10-2.3-15-3.4c-1.2-0.3-1.8-1.1-1.9-2.4c0-2.6,0-5.1,0-7.7c0-1.5,0.9-2.4,2.4-2.4
		C52.6,8.2,54.1,8.2,55.5,8.2z M55.5,10.2c-1.4,0-2.7,0-4.1,0c-0.6,0-0.7,0.2-0.7,0.7c0,2.4,0,4.7,0,7.1c0,0.5,0.2,0.7,0.6,0.8
		c1.9,0.4,3.7,0.8,5.6,1.3c2.9,0.7,5.8,1.3,8.7,2c0.2,0,0.4,0,0.5,0c0-0.2,0-0.4,0-0.6c-0.1-0.4-0.3-0.8-0.5-1.2
		c-1.8-3.2-3.5-6.4-5.3-9.6c-0.1-0.2-0.5-0.5-0.8-0.5C58.2,10.2,56.9,10.2,55.5,10.2z"/>
	<path class="st0" d="M57.3,41.3c0,1.8-1.4,3.2-3.2,3.3c-1.8,0-3.3-1.5-3.3-3.3c0-1.8,1.5-3.2,3.2-3.2
		C55.8,38.1,57.2,39.5,57.3,41.3z M55.2,41.3c0-0.7-0.6-1.2-1.2-1.2c-0.7,0-1.2,0.6-1.2,1.2c0,0.7,0.6,1.3,1.3,1.2
		C54.7,42.5,55.3,41.9,55.2,41.3z"/>
	<path class="st0" d="M23.1,41.3c0,1.8-1.5,3.2-3.2,3.2c-1.8,0-3.2-1.5-3.2-3.3c0-1.7,1.5-3.2,3.2-3.2
		C21.7,38.1,23.1,39.5,23.1,41.3z M19.9,40.1c-0.7,0-1.2,0.5-1.2,1.2c0,0.7,0.5,1.2,1.2,1.3c0.7,0,1.3-0.5,1.3-1.2
		C21.1,40.6,20.6,40.1,19.9,40.1z"/>
	<path class="st0" d="M28.1,14.4c0-1,0-1.9,0-2.9c0-0.8,0.4-1.2,1.1-1.2c0.7,0,1.2,0.4,1.2,1.2c0,1.5,0,3.1,0,4.6
		c0,0.4,0.1,0.6,0.5,0.8c1.1,0.6,2.2,1.3,3.3,1.9c0.8,0.5,1,1.1,0.6,1.7c-0.4,0.6-1,0.7-1.7,0.3c-1.4-0.8-2.8-1.6-4.2-2.4
		c-0.6-0.3-0.8-0.7-0.8-1.4C28.1,16.2,28.1,15.3,28.1,14.4z"/>
</g>
</svg>
