<?xml version="1.0" encoding="UTF-8"?>
<svg id="Layer_1" xmlns="http://www.w3.org/2000/svg" version="1.1" viewBox="0 0 41.9 49.8">
  <!-- Generator: Adobe Illustrator 30.3.0, SVG Export Plug-In . SVG Version: 2.1.3 Build 182)  -->
  <defs>
    <style>
      .st0 {
        fill: #fff;
      }
    </style>
  </defs>
  <path class="st0" d="M23.4,0c.5.3.7.8.6,1.4v1.7c0,.7-.4,1.1-1,1.1s-1-.4-1-1.1v-1.9C22,.6,22.2.2,22.7,0c.3,0,.5,0,.7,0Z"/>
  <path class="st0" d="M11.9,47c-.5,1.4-1.6,2-3,2H3c-1.9,0-3-1.1-3-2.9v-19.1c0-1.8,1.1-3,2.9-3h5.8c1.7,0,2.4.4,3.2,2,1-.7,1.8-1.5,2.6-2.4,1.8-2.1,2.8-4.7,3.4-7.4.3-1.5.6-3,.9-4.5.1-.4.2-.8.4-1.2.6-1.5,1.9-2.1,3.5-1.7,2.3.6,3.7,2.2,4.5,4.3.8,1.9.8,3.9.2,5.9-.4,1.5-.8,2.9-1.2,4.4,0,.1-.1.2-.1.5h11.7c2.2,0,3.9,1.6,4.1,3.8.1,1.3-.4,2.3-1.3,3.2.9.8,1.3,1.8,1.3,3s-.5,2.2-1.3,3c1.1,1.1,1.6,2.4,1.2,3.9-.3,1.5-1.3,2.4-2.6,2.9.2.8.4,1.5.4,2.3,0,2.1-1.7,3.9-3.8,3.9-4.8,0-9.6.1-14.3,0-3.2-.1-6.3-1.1-9.2-2.5-.1-.1-.2-.1-.3-.2q0-.2-.1-.2ZM12,36.5v7.6c0,.5.2.8.6,1,3,1.7,6.2,2.7,9.6,2.7,4.5.1,8.9,0,13.4,0,1.3,0,2.2-.8,2.2-2s-.9-2-2.2-2.1h-1.7c-.7,0-1.1-.7-.9-1.3.2-.5.6-.6,1.1-.6h4c1,0,1.8-.8,1.9-1.8.1-.9-.5-1.9-1.4-2.1-.3-.1-.6-.1-.9-.1h-3.7c-.7,0-1.1-.4-1.1-1,0-.5.4-.9,1.1-.9h3.9c1.2,0,2.1-.9,2.1-2s-.9-2-2.1-2h-3.8c-.7,0-1.1-.4-1.2-1,0-.6.4-1,1.2-1h3.8c1,0,1.8-.7,2-1.6.3-1.3-.7-2.5-2.1-2.5h-12.6c-1.1,0-1.4-.5-1.2-1.5.6-2.1,1.1-4.2,1.6-6.3.5-2.2.2-4.2-1.2-6-.6-.8-1.4-1.2-2.4-1.4-.5-.1-.8.1-1,.5s-.3.8-.4,1.3c-.3,1.4-.5,2.7-.8,4.1-1,4.9-3.4,8.9-7.6,11.7-.2.1-.3.4-.3.6.1,2.6.1,5.1.1,7.7ZM1.9,36.5v9.6c0,.8.3,1,1,1h6c.8,0,1-.2,1-1v-19c0-.8-.3-1-1-1H3c-.9,0-1.1.2-1.1,1.2,0,2.9,0,6,0,9.2Z"/>
  <path class="st0" d="M15.3,5.7c-.2.3-.4.6-.6.8-.3.1-.7.1-1,0-.7-.5-1.3-1.1-1.9-1.7-.4-.4-.4-.9,0-1.3.3-.4.9-.5,1.3-.1.6.5,1.2,1.1,1.8,1.6.2.1.3.3.4.7Z"/>
  <path class="st0" d="M31.8,6.6c-.3-.1-.6-.3-.8-.6s-.2-.8.1-1c.6-.6,1.3-1.2,2-1.8.4-.2.9-.1,1.2.2.3.4.3.9,0,1.2-.6.6-1.3,1.2-2,1.8-.1.1-.3.1-.5.2Z"/>
  <path class="st0" d="M10,13.5c-.4,0-.8,0-1.3-.1s-.9-.4-.9-.9.3-1,.9-1c.9,0,1.7,0,2.6.1.5.1.9.5.8,1,0,.5-.4.9-1,.9h-1.1Z"/>
  <path class="st0" d="M36.1,13.5h-1.1c-.5,0-.9-.4-.9-.9s.2-1,.8-1c.9-.1,1.7-.1,2.6-.1.5,0,.8.5.8,1s-.3.9-.9.9c-.4.1-.8.1-1.3.1h0Z"/>
  <path class="st0" d="M6.2,29.4c.5,0,.9.4,1,.9,0,.5-.4,1-1,1-.5,0-1-.5-1-1,.1-.4.5-.9,1-.9Z"/>
</svg>