<?xml version="1.0" encoding="utf-8"?>
<!-- Generator: Adobe Illustrator 25.0.0, SVG Export Plug-In . SVG Version: 6.00 Build 0)  -->
<svg version="1.1" id="Layer_1" xmlns="http://www.w3.org/2000/svg" xmlns:xlink="http://www.w3.org/1999/xlink" x="0px" y="0px"
	 viewBox="0 0 37.4 49.8" style="enable-background:new 0 0 37.4 49.8;" xml:space="preserve">
<style type="text/css">
	.st0{fill:#5B8C51;}
</style>
<g>
	<path class="st0" d="M0,20.2c0-0.9,0-1.8,0-2.7c0-0.1,0.1-0.2,0.1-0.4c0.2-1.9,0.6-3.7,1.3-5.4C3.9,5.9,8.1,2.2,14.2,0.6
		c1-0.3,2.1-0.4,3.2-0.6c0.8,0,1.7,0,2.5,0c0.6,0.1,1.3,0.2,1.9,0.3c7.3,1.2,13.4,7,15,14.3c0.2,1,0.3,2,0.5,3c0,0.9,0,1.8,0,2.7
		c-0.1,0.8-0.2,1.5-0.3,2.3c-0.6,3.5-2,6.8-3.7,10c-3.4,6.2-7.9,11.5-13,16.4c-0.4,0.4-0.8,0.6-1.2,0.9c-0.3,0-0.5,0-0.8,0
		c-0.3-0.2-0.6-0.3-0.8-0.5c-5.3-4.9-9.9-10.4-13.4-16.8c-1.7-3.1-3.1-6.4-3.7-10C0.2,21.8,0.1,21,0,20.2z M18.4,8.3
		C12.6,8.6,8.1,13.4,8.3,19c0.3,5.8,5.1,10.3,10.7,10c5.8-0.3,10.3-5,10.1-10.7C28.8,12.6,24,8.1,18.4,8.3z"/>
</g>
</svg>
