<?xml version="1.0" encoding="utf-8"?>
<!-- Generator: Adobe Illustrator 25.0.0, SVG Export Plug-In . SVG Version: 6.00 Build 0)  -->
<svg version="1.1" id="Layer_1" xmlns="http://www.w3.org/2000/svg" xmlns:xlink="http://www.w3.org/1999/xlink" x="0px" y="0px"
	 viewBox="0 0 61.1 49.8" style="enable-background:new 0 0 61.1 49.8;" xml:space="preserve">
<style type="text/css">
	.st0{fill:#5B8C51;}
</style>
<path class="st0" d="M0,44.2c6.8,0.6,12.9-1,18.4-5.2c-5.7-0.5-9.6-3.4-11.7-8.8c1.9,0.2,3.7,0.3,5.5-0.2
	c-7.5-1.9-10.2-8.6-9.8-12.5c1.7,0.9,3.5,1.4,5.5,1.5c-3.1-2.3-5-5.2-5.4-8.9C2.2,7.4,2.7,4.8,4.1,2.3c6.8,8,15.4,12.4,25.8,13.1
	c0-1.3-0.2-2.5-0.1-3.6C30,6.7,33.9,1.7,38.9,0.5c4.7-1.2,8.8-0.1,12.3,3.2c0.3,0.3,0.5,0.3,0.8,0.2c2.4-0.5,4.7-1.4,6.9-2.6
	C59,1.2,59.2,1.1,59.4,1c-0.4,1.5-1.1,2.7-2,3.8c-0.9,1.1-2,2-3,3C56.6,7.5,58.8,6.9,61,6c0,0,0.1,0.1,0.1,0.1c-1,1.2-2,2.4-3,3.5
	c-0.9,0.9-1.9,1.6-2.8,2.5c-0.2,0.2-0.3,0.5-0.3,0.7c0,13-5.1,23.4-15.7,30.9c-4.5,3.2-9.6,4.9-15,5.7c-5.1,0.7-10.2,0.3-15.2-1.1
	c-3.1-0.9-6.1-2.2-8.8-4C0.2,44.4,0.1,44.3,0,44.2z"/>
</svg>
