<?xml version="1.0" encoding="utf-8"?>
<!-- Generator: Adobe Illustrator 25.0.0, SVG Export Plug-In . SVG Version: 6.00 Build 0)  -->
<svg version="1.1" id="Layer_1" xmlns="http://www.w3.org/2000/svg" xmlns:xlink="http://www.w3.org/1999/xlink" x="0px" y="0px"
	 viewBox="0 0 26.9 49.8" style="enable-background:new 0 0 26.9 49.8;" xml:space="preserve">
<style type="text/css">
	.st0{fill:#5B8C51;}
</style>
<path class="st0" d="M7.5,28.1c-0.3,0-0.5,0-0.7,0c-1.8,0-3.6,0-5.4,0c-1.1,0-1.4-0.3-1.4-1.4c0-2.5,0-4.9,0-7.4
	c0-1.1,0.3-1.4,1.4-1.4c1.8,0,3.6,0,5.4,0c0.2,0,0.4,0,0.7,0c0-0.3,0-0.5,0-0.8c0-2.3,0-4.6,0.2-6.9c0.5-5.8,4.9-10,10.7-10.2
	c2.4-0.1,4.9,0,7.3,0c0.8,0,1.2,0.3,1.2,1.2c0,2.4,0,4.8,0,7.2c0,0.8-0.3,1.2-1.2,1.2c-1.6,0-3.3,0-4.9,0.1c-1.9,0-2.7,0.7-2.7,2.6
	c0,1.8,0,3.6,0,5.5c0.2,0,0.5,0,0.7,0c2.1,0,4.2,0,6.3,0c1.3,0,1.6,0.3,1.6,1.6c0,2.4,0,4.8,0,7.2c0,1.1-0.3,1.4-1.4,1.4
	c-2.1,0-4.3,0-6.4,0c-0.2,0-0.4,0-0.8,0c0,0.3,0,0.5,0,0.8c0,6.4,0,12.7,0,19.1c0,1.6-0.2,1.9-1.9,1.9c-2.3,0-4.5,0-6.8,0
	c-1.6,0-1.8-0.2-1.8-1.8c0-6.4,0-12.7,0-19.1C7.5,28.7,7.5,28.4,7.5,28.1z"/>
</svg>
