<?xml version="1.0" encoding="utf-8"?>
<!-- Generator: Adobe Illustrator 25.0.0, SVG Export Plug-In . SVG Version: 6.00 Build 0)  -->
<svg version="1.1" id="Layer_1" xmlns="http://www.w3.org/2000/svg" xmlns:xlink="http://www.w3.org/1999/xlink" x="0px" y="0px"
	 viewBox="0 0 58.1 49.8" style="enable-background:new 0 0 58.1 49.8;" xml:space="preserve">
<style type="text/css">
	.st0{fill:#5B8C51;}
</style>
<g>
	<path class="st0" d="M29.1,0c8.2,0,16.3,0,24.5,0c2.3,0,3.9,1.2,4.4,3.2c0.6,2.3-1,4.7-3.3,5c-0.4,0.1-0.8,0.1-1.2,0.1
		c-16.3,0-32.5,0-48.8,0c-2.4,0-3.9-1.1-4.5-3.1c-0.7-2.4,0.9-4.8,3.3-5.2C3.9,0,4.4,0,4.9,0C12.9,0,21,0,29.1,0z"/>
	<path class="st0" d="M29,29.1c-8.1,0-16.3,0-24.4,0c-2.3,0-3.9-1.1-4.5-3.1c-0.6-2.3,0.9-4.8,3.3-5.1c0.4-0.1,0.8-0.1,1.2-0.1
		c16.3,0,32.5,0,48.8,0c2.4,0,4,1.2,4.5,3.2c0.5,2.3-1,4.6-3.3,5c-0.5,0.1-1,0.1-1.5,0.1C45.1,29.1,37.1,29.1,29,29.1z"/>
	<path class="st0" d="M41.5,49.8c-4,0-8.1,0-12.1,0c-2.5,0-4.2-1.5-4.4-3.8c-0.2-2.1,1.3-4.1,3.3-4.4c0.4-0.1,0.8-0.1,1.1-0.1
		c8.1,0,16.1,0,24.2,0c2.3,0,3.8,1.1,4.4,3.1c0.6,2.3-0.9,4.7-3.3,5.1c-0.5,0.1-1,0.1-1.5,0.1C49.3,49.8,45.4,49.8,41.5,49.8z"/>
</g>
</svg>
