<?xml version="1.0" encoding="UTF-8"?>
<svg id="Layer_1" xmlns="http://www.w3.org/2000/svg" version="1.1" viewBox="0 0 46.16 42.46">
  <!-- Generator: Adobe Illustrator 30.3.0, SVG Export Plug-In . SVG Version: 2.1.3 Build 182)  -->
  <defs>
    <style>
      .st0 {
        fill: #fff;
      }
    </style>
  </defs>
  <path class="st0" d="M35.02,12.45l-.43.46c-8.49,8.98-16.94,17.91-25.43,26.88-.24.25-.48.51-.74.65-.93.46-2.33.1-3.2-.81-.95-1.09-1.09-2.38-.44-3.2l.43-.46c8.45-8.93,16.94-17.91,25.38-26.83l.48-.51c-.34-.03-.57-.06-.79-.08-5.9-.58-11.68-1.15-17.57-1.72-1.02-.1-1.98-.53-2.64-1.53-1.09-1.6-.43-3.48,1.31-3.48.23.02.45.04.68.07l23.81,2.34c1.93.19,3.04,1.24,3.33,3.15,1.27,7.83,2.55,15.77,3.78,23.76.16,1.01-.04,1.88-.93,2.29-1.4.69-3.48-.51-3.92-2.27-.1-.29-.09-.56-.12-.79-1-5.75-1.89-11.49-2.73-17.29-.03-.23,0-.39-.04-.61-.11-.01-.18-.07-.23-.02Z"/>
</svg>