<?xml version="1.0" encoding="utf-8"?>
<!-- Generator: Adobe Illustrator 25.0.0, SVG Export Plug-In . SVG Version: 6.00 Build 0)  -->
<svg version="1.1" id="Layer_1" xmlns="http://www.w3.org/2000/svg" xmlns:xlink="http://www.w3.org/1999/xlink" x="0px" y="0px"
	 viewBox="0 0 57.5 49.8" style="enable-background:new 0 0 57.5 49.8;" xml:space="preserve">
<style type="text/css">
	.st0{fill:#5B8C51;}
</style>
<g>
	<path class="st0" d="M44.4,36.3c1.6,1.4,3.1,2.8,4.7,4.1c0.1,0.1,0.4,0.1,0.6,0c1.2-0.4,2.5-0.1,3.3,0.9c0.8,1,0.8,2.4,0,3.4
		c-0.8,1-2.1,1.5-3.3,1c-1.2-0.4-2.1-1.6-1.8-2.8c0.2-0.9-0.3-1.3-0.8-1.8c-1.4-1.2-2.8-2.4-4.2-3.6c-0.2-0.1-0.4-0.3-0.6-0.3
		c-5.1-1-10.2-1.9-15.3-2.9c-0.4-0.1-0.6,0.1-0.8,0.4c-1.5,2.6-3.1,5.2-4.7,7.8c-0.7,1.2-1.9,1.7-3,1.4c-1.3-0.3-2.2-1.4-2.2-2.8
		c0-3,0-5.9,0-8.9c0-0.3-0.1-0.7-0.2-1c-2.4-5.5-4.9-10.9-7.3-16.4c-0.5-1.2-1.3-1.9-2.6-2.2c-1.7-0.4-3.4-0.9-5.2-1.3
		c-0.7-0.2-1-0.6-0.9-1.2c0.1-0.6,0.6-0.9,1.4-0.7C3.2,10.1,5.1,10.6,7,11c1.6,0.4,2.7,1.3,3.4,2.8c0.4,0.9,0.9,1.9,1.3,2.8
		c0.2,0.5,0.4,0.6,0.9,0.6c10.3,0,20.6,0,30.9,0c3.9,0,7.8,0,11.7,0c1.7,0,2.4,0.7,2.4,2.4c0,0.5,0,1,0,1.5c0,1.1-0.8,1.9-1.9,1.9
		c-0.2,0-0.4,0-0.6,0c-13.2,0-26.5,0-39.7,0c-0.2,0-0.4,0-0.7,0c0.1,0.2,0.1,0.4,0.2,0.5c1,2.3,2.1,4.5,3.1,6.8
		c0.1,0.3,0.3,0.5,0.7,0.5c6.5,1.2,13,2.4,19.6,3.6c1.4,0.3,2.8,0.5,4.2,0.8c0.4,0.1,0.7,0,1-0.4c2.4-3.1,4.9-6.1,7.3-9.2
		c0.7-0.9,1.2-1,1.7-0.6c0.5,0.4,0.5,1-0.2,1.9c-2.4,3-4.8,6-7.2,9C44.6,36.1,44.5,36.1,44.4,36.3z M12.7,19.2
		c0.2,0.5,0.4,0.9,0.6,1.3c0.1,0.4,0.4,0.6,0.8,0.6c13.6,0,27.2,0,40.8,0c0.2,0,0.4,0,0.6,0c0-0.7,0-1.3,0-1.9
		C41.3,19.2,27,19.2,12.7,19.2z M18.2,32.7c0,0.2,0,0.4,0,0.5c0,2.6,0,5.1,0,7.7c0,0.5,0.1,1,0.7,1.1c0.5,0.1,0.8-0.2,1.1-0.6
		c1.4-2.3,2.8-4.6,4.2-7c0.1-0.2,0.2-0.4,0.3-0.6C22.4,33.5,20.3,33.1,18.2,32.7z M51.7,43.1c0-0.5-0.4-1-0.9-1c-0.5,0-1,0.4-1,0.9
		c0,0.5,0.4,1,0.9,1C51.3,44.1,51.7,43.6,51.7,43.1z"/>
	<path class="st0" d="M34.5,0c1,0,1.8,0.4,2.5,1c3.8,3.6,7.6,7.2,11.4,10.8c0.6,0.6,1.2,1.1,1.8,1.7c0.5,0.5,0.6,1.1,0.2,1.5
		c-0.4,0.4-1,0.4-1.5-0.1C45.2,11.5,41.6,8.1,38,4.7c-0.8-0.7-1.5-1.5-2.3-2.2c-0.9-0.8-1.6-0.8-2.5,0c-4.3,4.1-8.6,8.1-12.8,12.2
		c-0.7,0.7-1.2,0.8-1.7,0.3c-0.4-0.5-0.3-1,0.4-1.7C23.4,9.2,27.7,5.1,32,1C32.7,0.4,33.6,0,34.5,0z"/>
	<path class="st0" d="M50.6,38.3c-0.1,0-0.2,0-0.3,0c-0.7,0-1.2-0.3-1.2-0.9c0-0.6,0.4-1,1.1-1c3.1-0.3,6.2,1.7,7,4.8
		c0.7,2.7,0.1,5-2,6.8c-2,1.8-4.4,2.2-6.9,1.2c-2.5-1-3.9-3-4.2-5.7c0-0.3,0-0.8,0.3-1c0.2-0.2,0.6-0.3,0.9-0.3
		c0.5,0.1,0.7,0.5,0.7,0.9c0.1,1.5,0.6,2.7,1.8,3.6c1.7,1.3,4,1.4,5.7,0.2c1.8-1.2,2.5-3.4,1.8-5.4C54.7,39.6,52.8,38.3,50.6,38.3z"
		/>
	<path class="st0" d="M28.7,12.4c-0.5,0-0.9-0.5-0.9-1c0-0.5,0.4-0.9,1-0.9c0.5,0,0.9,0.4,0.9,1C29.7,12,29.2,12.4,28.7,12.4z"/>
	<path class="st0" d="M34.5,12.4c-0.5,0-1-0.4-1-0.9c0-0.5,0.4-1,0.9-1c0.5,0,1,0.4,1,0.9C35.4,12,35,12.4,34.5,12.4z"/>
	<path class="st0" d="M40.2,12.4c-0.5,0-1-0.4-1-0.9c0-0.5,0.4-1,0.9-1c0.5,0,1,0.4,1,0.9C41.2,12,40.8,12.4,40.2,12.4z"/>
	<path class="st0" d="M25.9,14.3c0,0.5-0.4,1-0.9,1c-0.5,0-1-0.4-1-0.9c0-0.5,0.4-1,0.9-1C25.4,13.4,25.8,13.8,25.9,14.3z"/>
	<path class="st0" d="M30.7,13.4c0.5,0,0.9,0.4,0.9,1c0,0.5-0.5,0.9-1,0.9c-0.5,0-0.9-0.5-0.9-1C29.7,13.8,30.1,13.4,30.7,13.4z"/>
	<path class="st0" d="M37.3,14.3c0,0.5-0.4,1-0.9,1c-0.5,0-1-0.4-1-0.9c0-0.5,0.4-1,0.9-1C36.9,13.4,37.3,13.8,37.3,14.3z"/>
	<path class="st0" d="M45,14.4c0,0.5-0.5,0.9-1,0.9c-0.5,0-0.9-0.5-0.9-1c0-0.5,0.4-0.9,1-0.9C44.6,13.4,45,13.8,45,14.4z"/>
	<path class="st0" d="M35.4,5.7c0,0.5-0.5,1-1,0.9c-0.5,0-0.9-0.5-0.9-1c0-0.5,0.4-0.9,1-0.9C35,4.8,35.4,5.2,35.4,5.7z"/>
	<path class="st0" d="M31.6,8.6c0,0.5-0.5,0.9-1,0.9c-0.5,0-0.9-0.5-0.9-1c0-0.5,0.4-0.9,1-0.9C31.2,7.7,31.6,8.1,31.6,8.6z"/>
	<path class="st0" d="M38.3,8.6c0,0.5-0.4,1-0.9,1c-0.5,0-1-0.4-1-0.9c0-0.5,0.4-1,0.9-1C37.9,7.6,38.3,8,38.3,8.6z"/>
</g>
</svg>
