<?xml version="1.0" encoding="UTF-8"?>
<svg id="Layer_1" xmlns="http://www.w3.org/2000/svg" version="1.1" viewBox="0 0 71 49.8">
  <!-- Generator: Adobe Illustrator 30.3.0, SVG Export Plug-In . SVG Version: 2.1.3 Build 182)  -->
  <defs>
    <style>
      .st0 {
        fill: #fff;
      }
    </style>
  </defs>
  <path class="st0" d="M35.3,0c7.3.3,14.6.5,21.9.9,1.7.1,3.4.3,5.1.6,4.1.7,6.7,3.5,7.5,7.8,1.1,5.9,1.3,12,1.1,18-.1,4.2-.5,8.4-1,12.6-.3,3.1-1.5,5.7-4.2,7.4-1.7,1.1-3.5,1.4-5.4,1.6-7.3.8-14.7.9-22.1.9s-14.8-.3-22.2-.5c-2.4-.1-4.8-.4-7.1-.7-4.1-.6-6.9-3.4-7.7-7.6-.8-4.2-1-8.4-1.2-12.6-.2-5.6,0-11.1.7-16.7.2-1.2.4-2.5.8-3.7C2.5,4.3,5.5,1.8,9.5,1.3,16.4.4,23.4.4,30.4.2h5c-.1,0-.1-.1-.1-.2ZM28.5,14.4v21.2c6.2-3.5,12.2-7.1,18.4-10.6-6.2-3.5-12.3-7-18.4-10.6Z"/>
</svg>