<?xml version="1.0" encoding="utf-8"?>
<!-- Generator: Adobe Illustrator 25.0.0, SVG Export Plug-In . SVG Version: 6.00 Build 0)  -->
<svg version="1.1" id="Layer_1" xmlns="http://www.w3.org/2000/svg" xmlns:xlink="http://www.w3.org/1999/xlink" x="0px" y="0px"
	 viewBox="0 0 68.5 49.8" style="enable-background:new 0 0 68.5 49.8;" xml:space="preserve">
<style type="text/css">
	.st0{fill:#5B8C51;}
</style>
<path class="st0" d="M10.9,21.8c0.3,0,0.6,0,0.9,0c17.7,0,35.3,0,53,0c0.5,0,1,0,1.4,0.1c1.4,0.4,2.4,1.8,2.3,3.2
	c-0.2,1.6-1.4,2.7-2.9,2.8c-0.3,0-0.6,0-0.9,0c-17.6,0-35.3,0-52.9,0c-0.3,0-0.6,0-1,0c0.3,0.3,0.5,0.5,0.7,0.7
	c5.2,5.2,10.3,10.3,15.5,15.5c0.9,0.9,1.4,2,1,3.3c-0.6,2.1-3.2,3-4.9,1.6c-0.2-0.2-0.4-0.4-0.6-0.6c-7-7-14-14-21-21
	c-1.7-1.7-1.7-3.4,0-5.1C8.4,15.3,15.4,8.2,22.5,1.1c0.9-0.9,2-1.4,3.3-1c2.1,0.6,2.9,3.2,1.5,4.9c-0.2,0.3-0.5,0.5-0.7,0.7
	C21.6,10.9,16.5,16,11.3,21.1c-0.2,0.2-0.4,0.3-0.6,0.5C10.8,21.7,10.8,21.8,10.9,21.8z"/>
</svg>
