<?xml version="1.0" encoding="utf-8"?>
<!-- Generator: Adobe Illustrator 25.0.0, SVG Export Plug-In . SVG Version: 6.00 Build 0)  -->
<svg version="1.1" id="Layer_1" xmlns="http://www.w3.org/2000/svg" xmlns:xlink="http://www.w3.org/1999/xlink" x="0px" y="0px"
	 viewBox="0 0 57.9 49.8" style="enable-background:new 0 0 57.9 49.8;" xml:space="preserve">
<style type="text/css">
	.st0{fill:#5B8C51;}
</style>
<g>
	<path class="st0" d="M38.5,46.2c-1.4,0-2.9,0-4.3,0c-0.7,0-1.1-0.3-1.1-0.9c0-0.6,0.4-0.9,1.1-0.9c2.9,0,5.7,0,8.6,0
		c0.7,0,1.1,0.3,1.1,0.9c0,0.6-0.4,0.9-1.1,0.9C41.3,46.2,39.9,46.2,38.5,46.2z"/>
	<g>
		<path class="st0" d="M0,6.9c0.3-0.4,0.7-0.7,1.3-0.5c0.4,0.2,0.5,0.6,0.5,1c0,3.6,0,7.3,0,10.9c0,1.5,0.6,1.6,1.8,1.5
			c0-0.2,0-0.4,0-0.6c0-3.9,0-7.7,0-11.6c0-0.2,0-0.4,0-0.6C3.7,6.7,4,6.4,4.5,6.4c0.5,0,0.8,0.3,0.9,0.8c0,0.2,0,0.4,0,0.6
			c0,3.8,0,7.7,0,11.5c0,0.2,0,0.4,0,0.7c0.6,0,1.2,0,1.8,0c0-0.2,0-0.4,0-0.6c0-3.8,0-7.7,0-11.5c0-0.2,0-0.3,0-0.5
			c0-0.6,0.4-1,0.9-0.9c0.5,0,0.9,0.4,0.9,1c0,0.2,0,0.3,0,0.5c0,3.8,0,7.7,0,11.5c0,0.2,0,0.4,0,0.7c0.3,0,0.5,0,0.7,0
			c0.8,0,1.1-0.3,1.1-1.1c0-3,0-6,0-9c0-0.8,0-1.6,0-2.4c0-0.6,0.3-1,0.9-1c0.5,0,0.9,0.4,0.9,1c0,3.9,0,7.8,0,11.7
			c0,1.5-1.2,2.7-2.7,2.7c-0.9,0-1.8,0-2.7,0c0,0.3,0,0.5,0,0.7c0,8.7,0,17.3,0,26c0,0.9-0.3,1.4-0.9,1.4c-0.6,0-0.9-0.4-0.9-1.4
			c0-8.6,0-17.3,0-25.9c0-0.2,0-0.5,0-0.8c-0.7,0-1.3,0-2,0c-1.7,0.1-2.9-0.5-3.5-2.2C0,15.4,0,11.2,0,6.9z"/>
		<path class="st0" d="M48.4,37.2c0,0.6,0,1.2,0,1.8c0,0.7-0.4,1.1-0.9,1.1c-0.5,0-0.9-0.4-0.9-1c0-0.6,0-1.2,0-1.9
			c-5.4,0-10.8,0-16.3,0c0,0.6,0,1.2,0,1.8c0,0.7-0.3,1.1-0.9,1.1c-0.6,0-0.9-0.4-0.9-1.1c0-0.6,0-1.2,0-1.8c-0.2,0-0.4,0-0.6,0
			c-0.9,0-1.2,0.3-1.2,1.2c0,3.1,0,6.2,0,9.3c0,0.2,0,0.3,0,0.5c-0.1,0.5-0.5,0.8-0.9,0.8c-0.5,0-0.8-0.3-0.9-0.8c0-0.1,0-0.3,0-0.5
			c0-3.1,0-6.2,0-9.3c0-1.8,1.1-3,2.9-3c0.2,0,0.4,0,0.6,0c0-2.8,0-5.6,0-8.4c-0.4,0.1-0.8,0.2-1.1,0.3c-3.8,1.3-6.5,4.9-6.5,8.9
			c0,4,0,7.9,0,11.9c0,0.2,0,0.4,0,0.6c-0.1,0.5-0.4,0.7-0.9,0.8c-0.4,0-0.8-0.3-0.9-0.8c0-0.2,0-0.3,0-0.5c0-3.9,0-7.8,0-11.7
			c0-5.7,3.8-10.3,9.4-11.3c0.5-0.1,1-0.1,1.5-0.2c-1.4-2.3-2.3-4.8-2.3-7.5c-0.9-0.3-1.9-0.5-2.8-0.9c-0.8-0.3-1.7-0.8-2.3-1.3
			c-1.6-1.3-1.6-3.3,0-4.6c1-0.8,2.1-1.3,3.3-1.6c0.7-0.2,1.6-0.2,2-0.6c0.5-0.4,0.5-1.3,0.8-1.9c1.9-4.1,5.1-6.3,9.7-6.5
			c5.8-0.2,9.5,3.9,10.6,8c0.1,0.3,0.2,0.5,0.6,0.6c1.2,0.4,2.5,0.7,3.7,1.2c0.6,0.3,1.2,0.7,1.7,1.2c1.1,1.1,1.1,2.7,0,3.9
			c-1,1.1-2.3,1.6-3.7,2c-0.6,0.2-1.2,0.3-1.8,0.5C49,20.2,49,20.2,47,24.9c0.7,0.1,1.5,0.2,2.2,0.4c5,1.2,8.6,5.7,8.7,10.9
			c0,4,0,8.1,0,12.1c0,0.7-0.3,1.1-0.9,1.1c-0.6,0-0.9-0.4-0.9-1.2c0-4,0-8,0-12c0-4.3-3-8.1-7.2-9.1c-0.1,0-0.3-0.1-0.5-0.1
			c0,2.8,0,5.6,0,8.4c0.3,0,0.6,0,0.8,0c1.6,0,2.7,1.2,2.7,2.7c0,3.3,0,6.5,0,9.8c0,0.7-0.4,1.1-0.9,1.1c-0.5,0-0.9-0.4-0.9-1.1
			c0-3,0-6.1,0-9.1C50.3,37.2,49.7,37,48.4,37.2z M27.6,10.4c-1.3,0.3-2.6,0.6-3.7,1.4c-1.2,0.8-1.2,1.7,0,2.4
			c0.9,0.5,1.9,0.9,2.9,1.2c3,0.8,6,1.1,9.1,1.2c4.4,0.2,8.9,0,13.2-1c1.4-0.3,2.8-0.7,4-1.5c0.9-0.7,0.9-1.4,0-2.1
			c-1.1-0.8-2.5-1.2-3.9-1.5c0,0.5,0,0.8,0,1.2c0,0.7-0.3,1.1-0.9,1.1c-0.5,0-0.9-0.4-0.9-1.1c0-0.3,0-0.5,0-0.8
			c-0.1-4.9-3.9-9.2-9.2-9.1c-4.1,0.1-7,2.5-8.2,5.6c-0.5,1.4-0.7,2.8-0.7,4.3c0,0.6-0.4,1-0.9,1c-0.5,0-0.9-0.4-0.9-1
			C27.6,11.3,27.6,10.9,27.6,10.4z M47.6,17.7c-6.1,0.9-12.1,0.9-18.1,0c0,0.1,0,0.2,0,0.4c0.5,3.7,2,6.9,5,9.2c2.6,2,5.4,2,8,0
			c2.3-1.8,3.8-4.2,4.6-7C47.3,19.5,47.4,18.6,47.6,17.7z M46.6,35.3c0-2.9,0-5.7,0-8.5c-0.6-0.2-1,0-1.4,0.5
			c-0.4,0.5-0.9,0.9-1.4,1.3c-1.9,1.5-4.1,2.3-6.6,1.9c-2.2-0.4-4-1.6-5.4-3.2c-0.4-0.5-0.8-0.6-1.4-0.5c0,2.8,0,5.7,0,8.5
			C35.8,35.3,41.2,35.3,46.6,35.3z"/>
		<path class="st0" d="M38.5,40.8c1.9,0,3.7,0,5.6,0c0.8,0,1.2,0.3,1.2,0.9c0,0.6-0.4,0.9-1.1,0.9c-3.8,0-7.6,0-11.4,0
			c-0.7,0-1.1-0.4-1-0.9c0-0.5,0.4-0.9,1-0.9c0.1,0,0.3,0,0.4,0C34.9,40.8,36.7,40.8,38.5,40.8z"/>
		<path class="st0" d="M38.8,4.8c0,0.5-0.4,0.9-0.9,0.9c-1.9,0.1-3.2,1.1-4.1,2.7c-0.4,0.6-0.8,0.8-1.3,0.6
			c-0.5-0.3-0.6-0.8-0.3-1.4c1.1-2,2.7-3.3,5-3.6c0.3,0,0.5-0.1,0.8,0C38.4,3.9,38.8,4.3,38.8,4.8z"/>
		<path class="st0" d="M38.4,26.3c-0.7,0-1.4,0-2.1,0c-0.6,0-1-0.4-1-0.9c0-0.5,0.4-0.9,1-0.9c1.4,0,2.9,0,4.3,0c0.6,0,1,0.4,1,0.9
			c0,0.5-0.4,0.9-1,0.9C39.9,26.3,39.1,26.3,38.4,26.3z"/>
	</g>
</g>
</svg>
