<?xml version="1.0" encoding="utf-8"?>
<!-- Generator: Adobe Illustrator 25.0.0, SVG Export Plug-In . SVG Version: 6.00 Build 0)  -->
<svg version="1.1" id="Layer_1" xmlns="http://www.w3.org/2000/svg" xmlns:xlink="http://www.w3.org/1999/xlink" x="0px" y="0px"
	 viewBox="0 0 48.5 49.8" style="enable-background:new 0 0 48.5 49.8;" xml:space="preserve">
<style type="text/css">
	.st0{fill:#5B8C51;}
</style>
<g>
	<path class="st0" d="M25.7,0c0.9,0.1,1.8,0.2,2.7,0.4C34,1.3,38.6,3.9,42.3,8c3.3,3.6,5.3,7.8,5.9,12.6c1.1,8.5-1.5,15.8-7.8,21.7
		c-0.1,0.1-0.3,0.3-0.5,0.5c0.6,0.1,1.2,0.2,1.8,0.2c-0.1,0.5-0.1,0.9-0.2,1.5c-0.7-0.1-1.4-0.2-2.2-0.2c-0.7-0.1-1.4-0.2-2.2-0.2
		c0.2-1.4,0.3-2.9,0.5-4.3c0.5,0,1,0.1,1.5,0.1c-0.1,0.6-0.1,1.1-0.2,1.8c1.8-1.5,3.2-3.2,4.4-5.1c-0.9-0.5-1.7-1-2.6-1.5
		c0.3-0.4,0.5-0.8,0.7-1.3c0.9,0.5,1.7,1,2.6,1.5C46,32,46.9,28.7,47,25c-1,0-2,0-3,0c0-0.5,0-1,0-1.5c1,0,2,0,3,0
		c-0.1-3.6-1-7-2.8-10.2c-0.9,0.5-1.7,1-2.6,1.5c-0.3-0.4-0.5-0.8-0.8-1.3c0.9-0.5,1.7-1,2.6-1.5c-0.8-1.9-4.9-6-7-7
		c-0.5,0.8-1,1.7-1.5,2.6c-0.4-0.3-0.8-0.5-1.3-0.8c0.5-0.9,1-1.7,1.5-2.6C32,2.6,28.7,1.7,25,1.5c0,1,0,2,0,3c-0.5,0-1,0-1.5,0
		c0-1,0-2,0-3c-3.6,0.1-7,1-10.1,2.8c0.5,0.9,1,1.7,1.5,2.6c-0.4,0.2-0.8,0.5-1.3,0.8c-0.5-0.9-1-1.7-1.6-2.6c-2.9,1.8-5.2,4.1-7,7
		c0.9,0.5,1.7,1,2.6,1.6c-0.3,0.4-0.5,0.9-0.8,1.3c-0.9-0.5-1.7-1-2.6-1.5c-1.7,3.2-2.6,6.5-2.8,10.2c1,0,2,0,3,0c0,0.5,0,1,0,1.5
		c-1.5,0-3,0-4.5,0c0-0.1,0-0.3,0-0.4C-0.1,13.3,7.5,3.5,18.4,0.7c1.3-0.3,2.7-0.4,4-0.7c0.1,0,0.3-0.1,0.4-0.1
		C23.8,0,24.8,0,25.7,0z"/>
	<path class="st0" d="M17.9,43.9c0-1.2,0-2.3,0-3.5c0-0.7,0.2-1.3,0.6-1.9c3.1-3.9,6.1-7.8,9.2-11.8c0.3-0.4,0.7-0.7,1.2-0.6
		c0.9,0.1,1.7,0,2.7,0c0,4.4,0,8.7,0,13.2c1,0,1.9,0,2.8,0c0,1.5,0,3,0,4.5c-0.9,0-1.8,0-2.7,0c0,1.5,0,2.9,0,4.3
		c-1.7,0-3.3,0-5.1,0c0-1.4,0-2.8,0-4.3C23.6,43.9,20.8,43.9,17.9,43.9z M27.1,33.8c-1.5,1.9-2.8,3.7-4.2,5.5c1.5,0,2.9,0,4.2,0
		C27.1,37.5,27.1,35.7,27.1,33.8z"/>
	<path class="st0" d="M7.5,39.7c2.8,0,5.6,0,8.4,0c0,1.5,0,3,0,4.5c-5.2,0-10.4,0-15.6,0c0-0.3,0-0.7,0-1c0.1-1.7,0.5-3.3,1.6-4.7
		c0.9-1.1,2.1-1.9,3.4-2.6c1.2-0.7,2.3-1.3,3.5-2c0.2-0.1,0.4-0.3,0.7-0.5c1.2-0.9,0.7-2.5-0.4-2.9c-1.3-0.5-2.6-0.3-3.7,0.5
		c-0.6,0.4-1.2,1-1.8,1.5c-1-1.2-2.1-2.4-3.2-3.7c0.5-0.7,1.2-1.1,2-1.5c2.9-1.5,6-2,9.2-1.2c2.5,0.6,4.1,2.5,4.1,5
		c0,2.1-0.9,3.6-2.6,4.8c-1.5,1-3,1.9-4.5,2.8c-0.4,0.2-0.7,0.5-1,0.7C7.5,39.6,7.5,39.7,7.5,39.7z"/>
	<path class="st0" d="M36.1,23.5c0,0.5,0,1,0,1.5c-0.2,0-0.4,0-0.5,0c-2.6,0-5.3,0-7.9,0c-0.3,0-0.5,0.1-0.6,0.4
		c-0.5,1.3-1.8,2-3.1,1.9c-1.4-0.2-2.5-1.2-2.7-2.5c-0.2-1.4,0.5-2.8,1.8-3.3c0.4-0.2,0.5-0.3,0.5-0.7c0-4.1,0-8.2,0-12.3
		c0-0.2,0-0.4,0-0.6c0.5,0,1,0,1.5,0c0,0.2,0,0.4,0,0.6c0,4.1,0,8.2,0,12.3c0,0.4,0.1,0.6,0.4,0.7c0.8,0.3,1.3,0.9,1.6,1.6
		c0.1,0.4,0.3,0.4,0.6,0.4c2.6,0,5.2,0,7.8,0C35.7,23.5,35.9,23.5,36.1,23.5z M25.8,24.3c0-0.8-0.7-1.5-1.5-1.5
		c-0.9,0-1.6,0.7-1.6,1.6c0,0.8,0.7,1.5,1.5,1.6C25.1,25.8,25.8,25.1,25.8,24.3z"/>
	<path class="st0" d="M19.7,48.2c0.3,0.5,0.6,1,0.9,1.5c-0.8,0.3-1,0.2-1.4-0.5C19.1,49.1,19,49,19,48.8c-0.2-0.4-0.4-0.6-0.9-0.4
		c0,0.2,0,0.4,0,0.6c0,0.2,0,0.4,0,0.7c-0.3,0-0.6,0-1,0c0-1.4,0-2.9,0-4.3c0.8,0,1.5-0.1,2.2,0c1,0.1,1.5,1.5,0.8,2.4
		C20,47.9,19.9,48,19.7,48.2z M18.1,47.5c0.5-0.1,1,0.2,1.2-0.3c0.1-0.2,0.1-0.6,0-0.7c-0.4-0.2-0.8-0.2-1.2-0.4
		C18.1,46.7,18.1,47.1,18.1,47.5z"/>
	<path class="st0" d="M10,47.6c0,1.2-1,2.2-2.2,2.2c-1.2,0-2.1-1-2.1-2.2c0-1.2,1-2.2,2.2-2.2C9,45.4,10,46.4,10,47.6z M6.7,47.6
		c0,0.8,0.5,1.3,1.1,1.3c0.6,0,1.1-0.5,1.2-1.3c0-0.7-0.5-1.3-1.1-1.3C7.2,46.3,6.7,46.8,6.7,47.6z"/>
	<path class="st0" d="M0.5,45.4c0.3,0,0.6,0,0.9,0c0,0.5,0,1.1,0,1.6c0.6,0,1.2,0,1.8,0c0-0.5,0-1.1,0-1.6c0.3,0,0.6,0,1,0
		c0,0.7,0,1.4,0,2.1c0,0.7,0,1.4,0,2.2c-0.4,0-0.7,0-1,0c0-0.6,0-1.1,0-1.7c-0.6,0-1.1,0-1.7,0c0,0.6,0,1.1,0,1.7c-0.4,0-0.7,0-1,0
		C0.5,48.3,0.5,46.9,0.5,45.4z"/>
	<path class="st0" d="M11.5,45.4c0.4,0,0.7,0,1,0c0,0.7,0,1.3,0,2c0,0.3,0,0.7,0.2,1c0.1,0.2,0.5,0.4,0.7,0.5
		c0.4,0.1,0.7-0.1,0.8-0.5c0.1-0.3,0.1-0.7,0.2-1c0-0.6,0-1.3,0-1.9c0.3,0,0.6,0,1,0c0,1,0,2-0.2,2.9c-0.1,0.9-0.9,1.4-1.9,1.4
		c-1,0-1.7-0.6-1.8-1.6c0-0.2-0.1-0.5-0.1-0.7C11.5,46.8,11.5,46.2,11.5,45.4z"/>
	<path class="st0" d="M22.2,48.5c0.5,0.1,1,0.3,1.4,0.4c0.2,0,0.4-0.1,0.6-0.2c-0.1-0.2-0.2-0.4-0.4-0.5c-0.3-0.2-0.6-0.2-1-0.3
		c-0.6-0.2-0.9-0.6-0.8-1.2c0-0.6,0.4-1.1,1-1.2c0.7-0.2,1.5,0,2.1,0.4c-0.1,0.2-0.3,0.5-0.4,0.7c-0.4-0.1-0.8-0.2-1.2-0.3
		c-0.2,0-0.3,0.2-0.5,0.3c0.1,0.1,0.2,0.4,0.4,0.4c0.3,0.1,0.6,0.2,1,0.3c0.7,0.3,1,0.7,0.9,1.4c-0.1,0.6-0.5,1-1.1,1.1
		c-0.8,0.2-1.6,0-2.3-0.5C21.9,49,22.1,48.7,22.2,48.5z"/>
</g>
</svg>
