<?xml version="1.0" encoding="UTF-8"?>
<svg id="Layer_1" xmlns="http://www.w3.org/2000/svg" version="1.1" viewBox="0 0 64.65 53.61">
  <!-- Generator: Adobe Illustrator 30.3.0, SVG Export Plug-In . SVG Version: 2.1.3 Build 182)  -->
  <defs>
    <style>
      .st0 {
        fill: #5b8c51;
      }
    </style>
  </defs>
  <path class="st0" d="M33.94,2.45c.9.1,1.8.2,2.7.4,5.6.9,10.2,3.5,13.9,7.6,3.3,3.6,5.3,7.8,5.9,12.6,1.1,8.5-1.5,15.8-7.8,21.7l-.5.5c.6.1,1.2.2,1.8.2-.1.5-.1.9-.2,1.5-.7-.1-1.4-.2-2.2-.2-.7-.1-1.4-.2-2.2-.2.2-1.4.3-2.9.5-4.3.5,0,1,.1,1.5.1-.1.6-.1,1.1-.2,1.8,1.8-1.5,3.2-3.2,4.4-5.1-.9-.5-1.7-1-2.6-1.5.3-.4.5-.8.7-1.3.9.5,1.7,1,2.6,1.5,2-3.3,2.9-6.6,3-10.3h-3v-1.5h3c-.1-3.6-1-7-2.8-10.2-.9.5-1.7,1-2.6,1.5-.3-.4-.5-.8-.8-1.3.9-.5,1.7-1,2.6-1.5-.8-1.9-4.9-6-7-7-.5.8-1,1.7-1.5,2.6-.4-.3-.8-.5-1.3-.8.5-.9,1-1.7,1.5-2.6-3.1-1.6-6.4-2.5-10.1-2.7v3h-1.5v-3c-3.6.1-7,1-10.1,2.8.5.9,1,1.7,1.5,2.6-.4.2-.8.5-1.3.8-.5-.9-1-1.7-1.6-2.6-2.9,1.8-5.2,4.1-7,7,.9.5,1.7,1,2.6,1.6-.3.4-.5.9-.8,1.3-.9-.5-1.7-1-2.6-1.5-1.7,3.2-2.6,6.5-2.8,10.2h3v1.5h-4.5v-.4c0-11.5,7.6-21.3,18.5-24.1,1.3-.3,2.7-.4,4-.7.1,0,.3-.1.4-.1,1,.1,2,.1,2.9.1Z"/>
  <path class="st0" d="M26.14,46.35v-3.5c0-.7.2-1.3.6-1.9,3.1-3.9,6.1-7.8,9.2-11.8.3-.4.7-.7,1.2-.6.9.1,1.7,0,2.7,0v13.2h2.8v4.5h-2.7v4.3h-5.1v-4.3c-3,.1-5.8.1-8.7.1ZM35.34,36.25c-1.5,1.9-2.8,3.7-4.2,5.5h4.2c0-1.8,0-3.6,0-5.5Z"/>
  <path class="st0" d="M15.74,42.15h8.4v4.5h-15.6v-1c.1-1.7.5-3.3,1.6-4.7.9-1.1,2.1-1.9,3.4-2.6,1.2-.7,2.3-1.3,3.5-2,.2-.1.4-.3.7-.5,1.2-.9.7-2.5-.4-2.9-1.3-.5-2.6-.3-3.7.5-.6.4-1.2,1-1.8,1.5-1-1.2-2.1-2.4-3.2-3.7.5-.7,1.2-1.1,2-1.5,2.9-1.5,6-2,9.2-1.2,2.5.6,4.1,2.5,4.1,5,0,2.1-.9,3.6-2.6,4.8-1.5,1-3,1.9-4.5,2.8-.4.2-.7.5-1,.7-.1.2-.1.3-.1.3Z"/>
  <path class="st0" d="M44.34,25.95v1.5h-8.4c-.3,0-.5.1-.6.4-.5,1.3-1.8,2-3.1,1.9-1.4-.2-2.5-1.2-2.7-2.5-.2-1.4.5-2.8,1.8-3.3.4-.2.5-.3.5-.7v-12.9h1.5v12.9c0,.4.1.6.4.7.8.3,1.3.9,1.6,1.6.1.4.3.4.6.4h8.4ZM34.04,26.75c0-.8-.7-1.5-1.5-1.5-.9,0-1.6.7-1.6,1.6,0,.8.7,1.5,1.5,1.6.9-.2,1.6-.9,1.6-1.7Z"/>
  <path class="st0" d="M27.94,50.65c.3.5.6,1,.9,1.5-.8.3-1,.2-1.4-.5-.1-.1-.2-.2-.2-.4-.2-.4-.4-.6-.9-.4v1.3h-1v-4.3c.8,0,1.5-.1,2.2,0,1,.1,1.5,1.5.8,2.4-.1.1-.2.2-.4.4ZM26.34,49.95c.5-.1,1,.2,1.2-.3.1-.2.1-.6,0-.7-.4-.2-.8-.2-1.2-.4v1.4Z"/>
  <path class="st0" d="M18.24,50.05c0,1.2-1,2.2-2.2,2.2s-2.1-1-2.1-2.2,1-2.2,2.2-2.2c1.1,0,2.1,1,2.1,2.2ZM14.94,50.05c0,.8.5,1.3,1.1,1.3s1.1-.5,1.2-1.3c0-.7-.5-1.3-1.1-1.3-.7,0-1.2.5-1.2,1.3Z"/>
  <path class="st0" d="M8.74,47.85h.9v1.6h1.8v-1.6h1v4.3h-1v-1.7h-1.7v1.7h-1c0-1.4,0-2.8,0-4.3Z"/>
  <path class="st0" d="M19.74,47.85h1v2c0,.3,0,.7.2,1,.1.2.5.4.7.5.4.1.7-.1.8-.5.1-.3.1-.7.2-1v-1.9h1c0,1,0,2-.2,2.9-.1.9-.9,1.4-1.9,1.4s-1.7-.6-1.8-1.6c0-.2-.1-.5-.1-.7.1-.7.1-1.3.1-2.1Z"/>
  <path class="st0" d="M30.44,50.95c.5.1,1,.3,1.4.4.2,0,.4-.1.6-.2-.1-.2-.2-.4-.4-.5-.3-.2-.6-.2-1-.3-.6-.2-.9-.6-.8-1.2,0-.6.4-1.1,1-1.2.7-.2,1.5,0,2.1.4-.1.2-.3.5-.4.7-.4-.1-.8-.2-1.2-.3-.2,0-.3.2-.5.3.1.1.2.4.4.4.3.1.6.2,1,.3.7.3,1,.7.9,1.4-.1.6-.5,1-1.1,1.1-.8.2-1.6,0-2.3-.5,0-.3.2-.6.3-.8Z"/>
</svg>