<?xml version="1.0" encoding="utf-8"?>
<!-- Generator: Adobe Illustrator 25.0.0, SVG Export Plug-In . SVG Version: 6.00 Build 0)  -->
<svg version="1.1" id="Layer_1" xmlns="http://www.w3.org/2000/svg" xmlns:xlink="http://www.w3.org/1999/xlink" x="0px" y="0px"
	 viewBox="0 0 49.8 49.8" style="enable-background:new 0 0 49.8 49.8;" xml:space="preserve">
<style type="text/css">
	.st0{fill:#5B8C51;}
</style>
<g>
	<path class="st0" d="M9.1,32.8c0.8-0.5,1.5-0.9,2.1-1.4c1.4-1.3,2.9-2.3,4.7-2.8c2.5-0.6,4.9-0.4,7.2,0.7c1.3,0.6,2.6,0.9,4,0.9
		c1.2,0,2.4,0.2,3.5-0.1c1.1-0.3,2.1-1,3.1-1.6c1.8-1,3.5-0.9,5.2,0.2c0.1,0.1,0.4,0.1,0.5,0c1.5-0.9,3.3-0.4,4.3,0.6
		c0.2,0.3,0.4,0.1,0.7,0c1.9-0.9,4-0.3,5.2,1.3c0.4,0.6,0.4,0.8-0.2,1.2c-4.9,3.3-9.7,6.7-14.6,10c-1.8,1.2-4,1.6-6.1,1.3
		c-2.9-0.4-5.7-1-8.5-1.5c-0.4-0.1-0.9-0.2-1.3-0.3c-0.7-0.1-1.4,0-2,0.4c-1.2,0.8-2.5,1.6-3.7,2.3c-0.3,0.2-0.4,0.4-0.3,0.7
		c0.4,1.2,0.8,2.5,1.1,3.8c0.2,0.8,0,1.1-0.8,1.1c-3.3,0-6.6,0-9.9,0c-0.7,0-0.9-0.1-1-0.8c-0.4-3.6-0.9-7.3-1.3-10.9
		c-0.3-2.5-0.6-5-0.9-7.5c-0.1-0.8,0.1-1,0.9-1c2.1,0,4.3,0,6.4,0c0.5,0,0.8,0.2,1,0.7C8.5,31,8.8,31.8,9.1,32.8z M35.6,34.4
		c-0.2-1.3-1.2-2.5-2.6-2.8c-0.4-0.1-0.8-0.1-1.2-0.1c-1.5,0-2.9,0-4.4,0c-1.9,0.1-3.6-0.3-5.3-1.1c-3.3-1.5-6.4-1.1-9.3,1.1
		c-1.1,0.9-2.1,2-3.6,2.4c0.9,3.1,1.9,6.2,2.8,9.3c0.2-0.1,0.4-0.2,0.5-0.3c1.1-0.7,2.2-1.4,3.3-2.1c0.8-0.5,1.8-0.7,2.7-0.5
		c1.2,0.2,2.5,0.5,3.7,0.7c2,0.4,4.1,0.8,6.1,1c1.9,0.2,3.8-0.1,5.5-1.2c3.6-2.4,7.1-4.9,10.7-7.3c1.1-0.8,2.3-1.6,3.4-2.4
		c-0.8-1-2.2-1.2-3.4-0.6c-2.5,1.3-5,2.7-7.5,4c-0.1,0.1-0.3,0.2-0.3,0.3c-0.2,0.8-0.3,0.8-1.1,0.8c-2.9-0.1-5.8-0.4-8.7,0
		c-0.4,0.1-0.8,0-0.9-0.5c-0.1-0.4,0.2-0.7,0.8-0.8c1.5-0.1,2.9-0.2,4.4-0.2C32.9,34.3,34.2,34.4,35.6,34.4z M1.4,30.8
		c0.7,5.9,1.4,11.8,2.2,17.7c3,0,6,0,8.9,0c0-0.1,0-0.1,0-0.1C10.7,42.6,9,36.9,7.2,31.1c0-0.1-0.3-0.3-0.4-0.3c-0.6,0-1.3,0-1.9,0
		C3.7,30.8,2.5,30.8,1.4,30.8z M36.8,33.4c2-1.1,3.9-2.1,5.9-3.2c-0.6-0.7-1.5-1-2.2-0.6c-1.5,0.8-3,1.6-4.5,2.4
		C36.3,32.5,36.5,32.9,36.8,33.4z M37.8,29.6c-1.2-0.8-2.8-0.6-4.5,0.7c0.5,0.2,1,0.5,1.5,0.7c0.1,0.1,0.3,0,0.4,0
		C36.1,30.5,36.9,30.1,37.8,29.6z"/>
	<path class="st0" d="M33.5,23.1c0,0.5,0,0.9,0,1.3c0,0.6-0.2,0.8-0.8,0.8c-5.2,0-10.3,0-15.5,0c-0.6,0-0.8-0.2-0.8-0.8
		c0-0.4,0-0.8,0-1.3c-0.2,0-0.4,0-0.7,0c-3.3,0-6.5,0-9.8,0c-0.9,0-1.1-0.2-1.1-1c0-1.3,0-2.7,0-4c0.1-2.4,2.1-4.5,4.4-4.6
		c0.4,0,0.7,0.1,0.9,0.4c1.3,1.4,3.2,1.4,4.5,0c0.3-0.4,0.7-0.5,1.1-0.4c0.6,0.2,1.2,0.4,1.8,0.6c0.8-0.8,1.8-1.5,3-1.7
		c0.7-0.1,1.3-0.1,1.8,0.5c1.3,1.5,3.6,1.4,5-0.1c0.4-0.5,0.9-0.6,1.5-0.5c1.2,0.3,1.8,0.6,3.1,1.7c0.8-0.2,1.5-0.4,2.2-0.6
		c0.4-0.1,0.6,0.1,0.9,0.4c1.3,1.4,3.2,1.4,4.5,0c0.3-0.3,0.6-0.4,1.1-0.4c2.3,0.3,4.1,2.3,4.2,4.6c0,1.4,0,2.7,0,4.1
		c0,0.7-0.2,0.9-0.9,0.9c-3,0-6.1,0-9.1,0C34.4,23.1,34,23.1,33.5,23.1z M32.1,23.9c0-2.3,0.1-4.4,0-6.6c-0.1-1.7-1.4-3.2-3.1-3.6
		c-0.3-0.1-0.5,0-0.7,0.2c-1.9,1.8-4.7,1.8-6.7,0c-0.1-0.1-0.4-0.2-0.6-0.2c-1.9,0.4-3.3,2-3.3,4c0,2,0,3.9,0,5.9c0,0.1,0,0.3,0,0.4
		C22.5,23.9,27.3,23.9,32.1,23.9z M6.1,21.8c3.4,0,6.8,0,10.2,0c0.3-2.2-0.4-4.5,0.6-6.6c-0.3-0.1-0.6-0.3-0.9-0.3
		c-0.2,0-0.4,0-0.6,0.1c-1.8,1.6-4.1,1.6-6,0c-0.1-0.1-0.4-0.2-0.6-0.2c-1.5,0.3-2.7,1.6-2.8,3.2C6.1,19.2,6.1,20.5,6.1,21.8z
		 M43.6,21.8c0-0.2,0-0.4,0-0.5c0-1.1,0-2.2,0-3.3c-0.1-1.5-1.2-2.8-2.6-3.1c-0.2,0-0.5,0-0.6,0.1c-1.9,1.6-4.1,1.6-5.9,0
		c-0.1-0.1-0.3-0.2-0.4-0.2c-0.4,0.1-0.8,0.2-1.2,0.4c0.6,1.1,0.6,2.2,0.6,3.3c0,1.1,0,2.2,0,3.3C36.9,21.8,40.2,21.8,43.6,21.8z"/>
	<path class="st0" d="M19.9,5.9c0-0.7,0-1.3,0.1-2c0.5-2.4,2.6-4.1,5-4c2.5,0.1,4.5,2,4.7,4.5c0.1,1.2,0.1,2.5-0.1,3.7
		c-0.5,2.4-2.7,4-5.1,3.7C22,11.7,20.2,9.8,20,7.3C20,6.8,20,6.4,19.9,5.9C20,5.9,20,5.9,19.9,5.9z M21.2,5.9
		C21.2,5.9,21.3,5.9,21.2,5.9c0.1,0.5,0.1,0.9,0.1,1.4c0.1,1.9,1.6,3.3,3.5,3.3c1.8,0.1,3.5-1.3,3.6-3.1c0.1-1,0.1-2,0-3.1
		c-0.2-1.7-1.6-3-3.3-3.1c-1.6-0.1-3.2,1-3.7,2.6C21.3,4.5,21.3,5.2,21.2,5.9z"/>
	<path class="st0" d="M8,8c0-0.6,0-1.3,0.2-1.9c0.5-2.1,2.4-3.6,4.5-3.4c2.3,0.2,4,1.9,4.1,4.1c0.1,1,0.1,2-0.1,3
		c-0.3,2.1-2.3,3.7-4.5,3.6C9.9,13.2,8.1,11.4,8,9.2C8,8.8,8,8.4,8,8C8,8,8,8,8,8z M15.5,8C15.5,8,15.5,8,15.5,8c0-0.3,0-0.7,0-1
		c-0.1-1.7-1.5-3-3.1-3c-1.7,0-3,1.3-3,3c0,0.7,0,1.4,0,2.1c0.1,1.6,1.3,2.8,2.9,2.9c1.5,0.1,2.9-0.9,3.2-2.5
		C15.5,9.1,15.5,8.5,15.5,8z"/>
	<path class="st0" d="M41.8,8c-0.1,0.6,0,1.3-0.2,1.9c-0.5,2.1-2.4,3.6-4.5,3.4c-2.2-0.2-4-1.9-4.1-4.1c0-1-0.1-1.9,0.1-2.9
		c0.3-2.2,2.4-3.7,4.5-3.6c2.3,0.2,4,1.9,4.1,4.1C41.7,7.2,41.7,7.6,41.8,8C41.7,8,41.8,8,41.8,8z M40.5,8C40.5,8,40.4,8,40.5,8
		c0-0.4,0-0.8,0-1.1c-0.1-1.6-1.3-2.8-2.9-2.9c-1.5-0.1-2.9,1-3.1,2.5c-0.1,1-0.1,2,0,3.1c0.2,1.5,1.5,2.5,2.9,2.5
		c1.4,0,2.7-1,3.1-2.4C40.5,9.1,40.4,8.6,40.5,8z"/>
	<path class="st0" d="M7.6,47.9c-1.1,0-2.1-0.9-2.1-2c0-1.1,0.9-2,2-2c1.1,0,2.1,0.9,2.1,2C9.6,46.9,8.7,47.9,7.6,47.9z M7.6,46.6
		c0.4,0,0.8-0.3,0.7-0.8c0-0.4-0.4-0.7-0.7-0.7c-0.4,0-0.8,0.4-0.7,0.8C6.9,46.2,7.2,46.6,7.6,46.6z"/>
</g>
</svg>
