<?xml version="1.0" encoding="utf-8"?>
<!-- Generator: Adobe Illustrator 25.0.0, SVG Export Plug-In . SVG Version: 6.00 Build 0)  -->
<svg version="1.1" id="Layer_1" xmlns="http://www.w3.org/2000/svg" xmlns:xlink="http://www.w3.org/1999/xlink" x="0px" y="0px"
	 viewBox="0 0 49.8 49.8" style="enable-background:new 0 0 49.8 49.8;" xml:space="preserve">
<style type="text/css">
	.st0{fill:#5B8C51;}
</style>
<g>
	<path class="st0" d="M35,0c0.3,0.1,0.5,0.2,0.8,0.3c2,0.6,3.5,2.5,3.6,4.6c0,0.8,0,1.6,0,2.3c0,0.7-0.4,1.1-1,1.1
		c-0.6,0-1-0.4-1-1.1c0-0.6,0-1.3,0-1.9c0-1.8-1.3-3.2-3.1-3.2c-6.2,0-12.4,0-18.6,0c-1.9,0-3.1,1.4-3.1,3.3c0,11.2,0,22.3,0,33.5
		c0,0.2,0,0.5,0,0.7c-0.1,0.6-0.5,0.9-1,0.9c-0.6,0-0.9-0.3-1-0.9c0-0.2,0-0.5,0-0.7c0-11,0-22.1,0-33.1c0-3.1,1.4-4.8,4.3-5.6
		c0,0,0.1,0,0.1-0.1C21.5,0,28.3,0,35,0z"/>
	<path class="st0" d="M14.8,49.8c-0.8-0.4-1.7-0.6-2.4-1.1c-1.3-0.9-2-2.3-2-3.9c0-0.7,0-1.4,0-2.1c0-0.7,0.4-1.1,1-1.1
		c0.6,0,1,0.4,1,1.1c0,0.7,0,1.4,0,2.1c0,1.7,1.4,3,3,3c6.3,0,12.6,0,18.9,0c1.7,0,3-1.4,3-3.2c0-5.1,0-10.2,0-15.2
		c0-6.1,0-12.2,0-18.3c0-0.2,0-0.4,0-0.6c0.1-0.6,0.5-1,1-1c0.5,0,1,0.4,1,1c0,0.2,0,0.4,0,0.6c0,11,0,22.1,0,33.1
		c0,3.1-1.4,4.8-4.3,5.6c0,0-0.1,0-0.1,0.1C28.3,49.8,21.5,49.8,14.8,49.8z"/>
	<path class="st0" d="M49.8,28.1c-0.1,0.4-0.2,0.9-0.3,1.3c-0.5,2-1.4,3.8-2.9,5.3c-0.6,0.6-1.2,0.7-1.7,0.3
		c-0.5-0.5-0.4-1.1,0.2-1.7c3.5-3.7,3.5-9-0.1-12.7c-0.4-0.4-0.6-0.8-0.4-1.4c0.2-0.4,0.6-0.6,1.1-0.5c0.3,0.1,0.6,0.2,0.8,0.5
		c1.7,1.7,2.8,3.8,3.1,6.2c0,0.1,0.1,0.3,0.1,0.4C49.8,26.6,49.8,27.4,49.8,28.1z"/>
	<path class="st0" d="M0,25.8c0.1-0.4,0.2-0.8,0.3-1.2c0.5-2.1,1.5-3.9,3-5.5c0.6-0.6,1.2-0.6,1.6-0.2c0.5,0.5,0.4,1.1-0.2,1.6
		c-3.6,3.7-3.6,9,0,12.7c0.6,0.6,0.6,1.2,0.1,1.6c-0.5,0.4-1.1,0.4-1.6-0.2c-1.7-1.7-2.7-3.8-3.1-6.1c0-0.2-0.1-0.3-0.1-0.5
		C0,27.4,0,26.6,0,25.8z"/>
	<path class="st0" d="M5.2,26.7c0-1.4,0.6-3,1.7-4.3C7.4,21.7,8,21.6,8.4,22c0.5,0.4,0.5,1,0.1,1.6c-1.7,2.2-1.7,4.5,0,6.7
		c0.5,0.6,0.4,1.2,0,1.6c-0.5,0.4-1.1,0.3-1.6-0.3C5.8,30.4,5.2,28.7,5.2,26.7z"/>
	<path class="st0" d="M44.6,27c0,1.7-0.6,3.3-1.7,4.6c-0.5,0.6-1.1,0.7-1.6,0.3c-0.5-0.4-0.5-1,0-1.6c1.7-2.2,1.7-4.5,0-6.8
		c-0.4-0.6-0.4-1.2,0.1-1.6c0.5-0.4,1.1-0.3,1.5,0.2C44,23.6,44.6,25.2,44.6,27z"/>
	<path class="st0" d="M26.9,7.3c-1.3,0-2.6,0-3.9,0c-0.8,0-1.3-0.4-1.3-1.1c0-0.6,0.5-1,1.3-1c2.6,0,5.2,0,7.8,0
		c0.8,0,1.3,0.4,1.3,1.1c0,0.6-0.5,1-1.3,1C29.6,7.3,28.3,7.3,26.9,7.3z"/>
	<path class="st0" d="M24.9,44.6c-1,0-1.9,0-2.9,0c-0.8,0-1.2-0.4-1.2-1.1c0-0.6,0.5-1,1.2-1c2,0,3.9,0,5.9,0c0.8,0,1.2,0.4,1.2,1.1
		c0,0.6-0.5,1-1.2,1C26.9,44.6,25.9,44.6,24.9,44.6z"/>
	<path class="st0" d="M19.2,7.3c-0.2,0-0.4,0-0.6,0c-0.6-0.1-1-0.5-0.9-1.1c0-0.6,0.4-0.9,0.9-1c0.3,0,0.7,0,1,0
		c0.7,0,1.2,0.5,1.1,1.1c0,0.6-0.5,1-1.1,1C19.5,7.3,19.3,7.3,19.2,7.3C19.2,7.3,19.2,7.3,19.2,7.3z"/>
</g>
</svg>
