<?xml version="1.0" encoding="utf-8"?>
<!-- Generator: Adobe Illustrator 25.0.0, SVG Export Plug-In . SVG Version: 6.00 Build 0)  -->
<svg version="1.1" id="Layer_1" xmlns="http://www.w3.org/2000/svg" xmlns:xlink="http://www.w3.org/1999/xlink" x="0px" y="0px"
	 viewBox="0 0 80.9 49.8" style="enable-background:new 0 0 80.9 49.8;" xml:space="preserve">
<style type="text/css">
	.st0{fill:#5B8C51;}
</style>
<g>
	<path class="st0" d="M0,9.6c0.8,0,1.5,0,2.3,0c0,7,0,14.1,0,21.2c0.8,0,1.6,0,2.4,0c0,0.8,0,1.6,0,2.4c-0.7,0-1.5,0-2.3,0
		c0,0.8,0,1.6,0,2.4c1,0,2,0,3,0c0.5,0,1.1,0,1.6,0c1.5,0.1,2.8-0.2,4.2-1.1c2.9-2,6.9-1.6,9.6,0.7c0.3,0.2,0.7,0.4,1.1,0.4
		c12.4,0,24.8,0,37.1,0c0.4,0,0.8-0.2,1.1-0.4c3.2-2.6,7.6-2.6,10.8,0c0.2,0.2,0.5,0.4,0.8,0.4c2.2,0,4.3,0,6.5,0
		c0.1,0,0.2,0,0.3-0.1c0-1.1,0-2.3,0-3.5c-1.1,0-2.1,0-3.1,0c-2.5,0-3.9-1.4-3.9-3.9c0-1.4,0-2.8,0-4.4c2.4,0,4.7,0,7.1,0
		c0-0.8,0-1.5,0-2.1c0-0.3-0.3-0.6-0.5-0.7c-1-0.6-2-1.1-3.1-1.6c-0.2-0.1-0.6-0.1-0.8-0.1c-6.1,0-12.2,0-18.3,0c-0.3,0-0.6,0-0.9,0
		c0-4.8,0-9.6,0-14.4c4.6,0,9.1,0,13.7,0c-0.2-1.7-0.9-2.4-2.5-2.4c-4.2,0-8.4,0-12.6,0c-0.3,0-0.6,0-0.9,0c0,10.3,0,20.5,0,30.8
		c-0.8,0-1.6,0-2.4,0c0-10.2,0-20.4,0-30.7c-0.3,0-0.6,0-0.9,0c-15,0-30.1,0-45.1,0c-1.4,0-1.7,0.3-1.7,1.7c0,1,0,1.9,0,3
		C1.6,7.1,0.8,7.2,0,7.2c0-1.5,0-3,0-4.4C0.8,0.7,2.4,0,4.6,0C25,0,45.5,0,65.9,0c0.4,0,0.7,0,1.1,0c1.1,0.1,2,0.5,2.6,1.4
		c0.5,0.6,0.8,1.3,1.1,2.1c1.4,3.7,2.9,7.3,4.1,11c0.6,1.9,1.6,3.3,3.6,4c1.2,0.4,2.1,1.2,2.5,2.5c0,7.3,0,14.5,0,21.8
		c-2.2,0-4.3,0-6.5-0.1c-0.5,0-0.7,0.1-0.9,0.7c-0.9,3.8-4.2,6.4-8.1,6.4c-3.9,0-7.1-2.6-8.1-6.4c-0.1-0.6-0.4-0.7-0.9-0.7
		c-3.8,0-7.7,0-11.5,0c-0.3,0-0.6,0-0.9,0c0-0.8,0-1.6,0-2.4c4.4,0,8.8,0,13.2,0c0.2-0.8,0.4-1.5,0.7-2.3c-11.7,0-23.3,0-34.9,0
		c0.2,0.8,0.4,1.5,0.7,2.3c4.4,0,8.7,0,13.2,0c0,0.8,0,1.6,0,2.4c-0.4,0-0.7,0-1,0c-3.8,0-7.5,0-11.3,0c-0.6,0-0.9,0.1-1.1,0.8
		c-0.8,3.4-3.7,5.9-7.1,6.2c-4.4,0.4-8-2.2-9.1-6.5C7.2,43,7,42.7,6.8,42.7c-2.3,0-4.5,0-6.8,0C0,31.7,0,20.6,0,9.6z M73.2,16.8
		c-0.1-0.3-0.2-0.5-0.2-0.8c-1-2.7-2.1-5.4-3.1-8.2c-0.2-0.6-0.5-0.8-1.1-0.8c-3.6,0-7.2,0-10.8,0c-0.3,0-0.5,0-0.8,0
		c0,3.3,0,6.4,0,9.6C62.6,16.8,67.9,16.8,73.2,16.8z M15.4,47.4c3.3,0,5.9-2.7,5.9-5.9c0-3.3-2.7-5.9-6-5.9c-3.3,0-5.9,2.7-5.9,5.9
		C9.5,44.8,12.2,47.5,15.4,47.4z M65.5,35.6c-3.3,0-5.9,2.7-5.9,5.9c0,3.3,2.7,5.9,6,5.9c3.3,0,5.9-2.7,5.9-5.9
		C71.4,38.2,68.8,35.6,65.5,35.6z M73.8,26.2c0,0.8-0.1,1.7,0,2.5c0.1,0.4,0.5,0.9,0.8,1c1.3,0.1,2.5,0,3.8,0c0-1.2,0-2.3,0-3.5
		C76.9,26.2,75.4,26.2,73.8,26.2z M2.4,40.3c1.5,0,2.9,0,4.4,0c0.2,0,0.4-0.2,0.5-0.3c0.2-0.6,0.4-1.3,0.6-2c-1.8,0-3.6,0-5.4,0
		C2.4,38.8,2.4,39.5,2.4,40.3z M73.1,38c0.2,0.7,0.3,1.4,0.6,2c0,0.1,0.3,0.3,0.4,0.3c1.5,0,2.9,0,4.4,0c0-0.8,0-1.6,0-2.3
		C76.7,38,74.9,38,73.1,38z"/>
	<path class="st0" d="M14.4,14.9c-0.6-0.5-1.2-1-1.8-1.6c0.7-0.6,1.2-1.1,1.8-1.6c0.4,0.5,0.9,1,1.5,1.7c2.3-1.6,4.7-2.1,7.3-1.4
		c2.6,0.7,4.4,2.3,5.5,4.8c2.5-2.5,5-5,7.5-7.6c3.3,2.9,4.7,6.5,3.8,10.6c-0.9,4.2-3.6,6.9-7.7,8.1c-2.3,0.6-4.5,0.5-6.7-0.4
		c-0.3-0.1-0.7-0.1-0.9,0c-3.6,1.5-7.5,0.7-9.9-2.2c-2.4-2.8-2.6-6.8-0.5-10.1C14.2,15.2,14.3,15.1,14.4,14.9z M21.1,24.4
		c0.1-0.2,0.1-0.3,0.2-0.3c1.7-1.7,3.3-3.3,5-5c0.4-0.4,0.5-0.7,0.3-1.2c-0.9-2.5-3.6-4.2-6.2-3.8c-3,0.4-5,2.6-5.2,5.6
		c-0.2,2.7,1.6,5.2,4.3,6c1,0.3,2,0.4,3.1,0C22,25.2,21.6,24.8,21.1,24.4z M24.7,24.2c2.4,2.2,7.8,2.7,11.2-1.2
		c3.1-3.6,2.1-8.6,0.4-10.1c-0.6,0.5-1.2,1-1.7,1.5c1.4,2.7,1.2,5.4-0.7,7.3c-1.9,2-4.5,2.4-7.6,1C25.7,23.1,25.2,23.7,24.7,24.2z
		 M32.8,16.3c-1.5,1.5-3,3.1-4.5,4.6c1.1,0.6,2.7,0.3,3.7-0.7C32.9,19.3,33.5,17.5,32.8,16.3z"/>
	<path class="st0" d="M59.6,21.7c0,0.8,0,1.5,0,2.2c-1.5,0-3.1,0-4.7,0c0-0.7,0-1.5,0-2.2C56.5,21.7,58,21.7,59.6,21.7z"/>
	<path class="st0" d="M43,7.1c-0.8,0-1.5,0-2.3,0c0-0.8,0-1.5,0-2.3c0.8,0,1.5,0,2.3,0C43,5.6,43,6.3,43,7.1z"/>
	<path class="st0" d="M45.4,4.8c0.8,0,1.5,0,2.3,0c0,0.8,0,1.5,0,2.3c-0.8,0-1.5,0-2.3,0C45.4,6.3,45.4,5.6,45.4,4.8z"/>
	<path class="st0" d="M41.6,40.4c0,0.8,0,1.5,0,2.3c-0.8,0-1.5,0-2.3,0c0-0.7,0-1.5,0-2.3C40.1,40.4,40.8,40.4,41.6,40.4z"/>
	<path class="st0" d="M16.6,42.7c-0.8,0-1.5,0-2.3,0c0-0.8,0-1.5,0-2.3c0.8,0,1.5,0,2.3,0C16.6,41.1,16.6,41.9,16.6,42.7z"/>
	<path class="st0" d="M64.4,42.7c0-0.8,0-1.5,0-2.3c0.8,0,1.5,0,2.3,0c0,0.8,0,1.5,0,2.3C65.9,42.7,65.2,42.7,64.4,42.7z"/>
</g>
</svg>
