<?xml version="1.0" encoding="utf-8"?>
<!-- Generator: Adobe Illustrator 25.0.0, SVG Export Plug-In . SVG Version: 6.00 Build 0)  -->
<svg version="1.1" id="Layer_1" xmlns="http://www.w3.org/2000/svg" xmlns:xlink="http://www.w3.org/1999/xlink" x="0px" y="0px"
	 viewBox="0 0 51.7 49.8" style="enable-background:new 0 0 51.7 49.8;" xml:space="preserve">
<style type="text/css">
	.st0{fill:#5B8C51;}
</style>
<path class="st0" d="M42,49.8c-0.2-0.1-0.4-0.2-0.6-0.4c-5.1-3.2-10.1-6.4-15.2-9.6c-0.3-0.2-0.5-0.2-0.8,0
	c-5,3.2-10.1,6.4-15.2,9.6c-0.2,0.1-0.3,0.2-0.6,0.4c0.3-1,0.5-2,0.7-3c1.3-5,2.6-10.1,3.9-15.1c0.1-0.3,0-0.5-0.2-0.8
	c-4.5-3.8-9.1-7.7-13.6-11.5C0.3,19.3,0.2,19.2,0,19c0.8-0.1,1.5-0.1,2.2-0.2c4.4-0.3,8.7-0.6,13.1-0.8c1-0.1,2.1-0.2,3.1-0.2
	c0.4,0,0.4-0.2,0.5-0.5c1.7-4.4,3.5-8.7,5.2-13.1c0.5-1.4,1.1-2.7,1.7-4.2C26,0.3,26,0.4,26.1,0.6c2.2,5.6,4.4,11.1,6.6,16.7
	c0.1,0.4,0.3,0.5,0.8,0.6c3.9,0.2,7.9,0.5,11.8,0.8c1.8,0.1,3.6,0.2,5.3,0.3c0.3,0,0.7,0.1,1.1,0.1c-1.1,0.9-2.1,1.8-3.1,2.7
	c-3.6,3.1-7.3,6.2-10.9,9.2c-0.3,0.2-0.3,0.5-0.3,0.8c1.5,5.9,3,11.7,4.5,17.6C42,49.4,42,49.6,42,49.8z"/>
</svg>
