<?xml version="1.0" encoding="utf-8"?>
<!-- Generator: Adobe Illustrator 25.0.0, SVG Export Plug-In . SVG Version: 6.00 Build 0)  -->
<svg version="1.1" id="Layer_1" xmlns="http://www.w3.org/2000/svg" xmlns:xlink="http://www.w3.org/1999/xlink" x="0px" y="0px"
	 viewBox="0 0 99.2 49.8" style="enable-background:new 0 0 99.2 49.8;" xml:space="preserve">
<style type="text/css">
	.st0{fill:#5B8C51;}
</style>
<g>
	<path class="st0" d="M99.2,25.5c-0.5,0.6-1,1.3-1.5,1.8c-7.2,7.2-14.3,14.4-21.5,21.5c-1.1,1.1-2.3,1.2-3.3,0.5c-1-0.8-1.1-2-0.4-3
		c0.3-0.4,0.6-0.7,1-1.1c5.7-5.7,11.4-11.4,17.1-17.1c0.2-0.2,0.6-0.4,0.8-0.7c0-0.1-0.1-0.2-0.1-0.3c-0.4,0-0.8,0-1.2,0
		c-28.9,0-57.8,0-86.7,0c-0.5,0-1.1,0-1.6-0.1c-1-0.2-1.7-1.2-1.7-2.2c0-1,0.7-1.9,1.7-2.1c0.5-0.1,1.1-0.1,1.6-0.1
		c28.9,0,57.8,0,86.6,0c0.4,0,0.8,0,1.5,0c-0.4-0.4-0.7-0.7-0.9-1C84.7,15.8,78.9,10,73.1,4.2c-0.8-0.8-1.3-1.6-0.8-2.8
		c0.5-1.3,2.1-1.8,3.3-1c0.4,0.3,0.7,0.6,1.1,1c7,7,14.1,14.1,21.1,21.1c0.6,0.6,1,1.2,1.5,1.9C99.2,24.7,99.2,25.1,99.2,25.5z"/>
</g>
</svg>
