<?xml version="1.0" encoding="utf-8"?>
<!-- Generator: Adobe Illustrator 25.0.0, SVG Export Plug-In . SVG Version: 6.00 Build 0)  -->
<svg version="1.1" id="Layer_1" xmlns="http://www.w3.org/2000/svg" xmlns:xlink="http://www.w3.org/1999/xlink" x="0px" y="0px"
	 viewBox="0 0 71 49.8" style="enable-background:new 0 0 71 49.8;" xml:space="preserve">
<style type="text/css">
	.st0{fill:#5B8C51;}
</style>
<path class="st0" d="M35.3,0c7.3,0.3,14.6,0.5,21.9,0.9c1.7,0.1,3.4,0.3,5.1,0.6C66.4,2.2,69,5,69.8,9.3c1.1,5.9,1.3,12,1.1,18
	c-0.1,4.2-0.5,8.4-1,12.6c-0.3,3.1-1.5,5.7-4.2,7.4c-1.7,1.1-3.5,1.4-5.4,1.6c-7.3,0.8-14.7,0.9-22.1,0.9c-7.4,0-14.8-0.3-22.2-0.5
	c-2.4-0.1-4.8-0.4-7.1-0.7C4.8,48,2,45.2,1.2,41c-0.8-4.2-1-8.4-1.2-12.6c-0.2-5.6,0-11.1,0.7-16.7C0.9,10.5,1.1,9.2,1.5,8
	c1-3.7,4-6.2,8-6.7c6.9-0.9,13.9-0.9,20.9-1.1c1.7,0,3.3,0,5,0C35.3,0.2,35.3,0.1,35.3,0z M28.5,14.4c0,7.1,0,14.1,0,21.2
	c6.2-3.5,12.2-7.1,18.4-10.6C40.7,21.5,34.6,18,28.5,14.4z"/>
</svg>
