<?xml version="1.0" encoding="utf-8"?>
<!-- Generator: Adobe Illustrator 25.0.0, SVG Export Plug-In . SVG Version: 6.00 Build 0)  -->
<svg version="1.1" id="Layer_1" xmlns="http://www.w3.org/2000/svg" xmlns:xlink="http://www.w3.org/1999/xlink" x="0px" y="0px"
	 viewBox="0 0 50 50" style="enable-background:new 0 0 50 50;" xml:space="preserve">
<style type="text/css">
	.st0{fill:#5B8C51;}
</style>
<g>
	<path class="st0" d="M47.9,50c-15.3,0-30.6,0-45.9,0C1,49.7,0.3,49,0,47.9c0-10.5,0-21.1,0-31.6c0.2-0.1,0.3-0.3,0.5-0.4
		c2.2-1.6,4.5-3.2,6.7-4.7c0.3-0.2,0.4-0.4,0.4-0.7c0-1.4,0-2.9,0-4.3c0-1.3,0.6-2,2-2c2.4,0,4.7,0,7.1,0c0.2,0,0.5-0.1,0.7-0.2
		c1.3-0.9,2.5-1.7,3.7-2.7c2.3-1.7,5.5-1.7,7.8,0c1.2,0.9,2.5,1.8,3.7,2.6c0.2,0.2,0.6,0.3,0.9,0.3c2.4,0,4.7,0,7.1,0
		c1.2,0,1.9,0.7,1.9,1.9c0,1.5,0,3,0,4.5c0,0.2,0.1,0.5,0.3,0.6c2.2,1.6,4.4,3.2,6.6,4.7c0.4,0.3,0.6,0.6,0.6,1
		c0,10.1,0,20.3,0,30.4c0,0.2,0,0.5-0.1,0.7C49.7,49.1,49,49.7,47.9,50z M9.2,5.9c0,0.1,0,0.2,0,0.3c0,5.4,0,10.7,0,16.1
		c0,0.2,0.1,0.4,0.3,0.5c4.1,3.4,8.2,6.8,12.3,10.2c2,1.6,4.5,1.6,6.5,0c0.5-0.4,1-0.8,1.5-1.3c3.6-3,7.1-5.9,10.7-8.9
		c0.3-0.2,0.4-0.5,0.4-0.8c0-5.2,0-10.4,0-15.6c0-0.2,0-0.3,0-0.5C30.3,5.9,19.7,5.9,9.2,5.9z M46.8,48.3C41,43.5,35.3,38.7,29.6,34
		c-1.3,1.2-2.8,1.8-4.6,1.8c-1.8,0-3.3-0.7-4.6-1.8C14.7,38.8,9,43.5,3.2,48.3C17.8,48.3,32.2,48.3,46.8,48.3z M1.7,47.4
		c5.8-4.9,11.6-9.6,17.4-14.5c-5.8-4.8-11.6-9.6-17.4-14.5C1.7,28.1,1.7,37.7,1.7,47.4z M48.3,18.4c-5.8,4.9-11.6,9.6-17.4,14.5
		c5.8,4.8,11.6,9.6,17.4,14.5C48.3,37.7,48.3,28.1,48.3,18.4z M47.8,16.7c-1.8-1.3-3.5-2.5-5.3-3.7c0,2.7,0,5.4,0,8.1
		C44.3,19.6,46,18.2,47.8,16.7z M7.5,13c-1.8,1.3-3.5,2.5-5.3,3.7c1.8,1.5,3.5,2.9,5.3,4.4C7.5,18.4,7.5,15.7,7.5,13z M20.1,4.1
		c3.3,0,6.5,0,9.8,0c0,0,0-0.1,0.1-0.1c-1-0.6-1.9-1.3-3-1.9c-0.8-0.4-1.7-0.5-2.7-0.4C22.6,1.9,21.4,3.2,20.1,4.1z"/>
	<path class="st0" d="M26.7,22.5c-0.9,0.8-1.8,1.3-3,1.4c-2.3,0.3-4.2-1.2-4.4-3.5c-0.2-2.7,1.4-5.5,3.8-6.7
		c1.5-0.7,3.3-0.5,4.5,0.7c0.1,0.1,0.2,0.3,0.4,0.5c0.1-0.4,0.1-0.6,0.2-0.8c0.1-0.5,0.5-0.8,1-0.7c0.5,0.1,0.8,0.5,0.7,1.1
		c-0.5,2.3-1,4.5-1.4,6.8c-0.1,0.7,0,0.9,0.7,1c0.9,0.1,1.6-0.2,2.2-0.9c1.6-1.9,1.9-4.1,1.1-6.3c-0.8-2.3-2.5-3.7-4.9-4.1
		c-4.6-0.8-9.3,2.2-10.6,6.7c-1,3.6,1,7.3,4.5,8.3c2.6,0.8,5.2,1,7.8,0.4c1.7-0.4,3.2-1.3,4.3-2.6c0.3-0.4,0.7-0.5,1.1-0.3
		c0.4,0.2,0.5,0.5,0.4,0.9c0,0.2-0.2,0.3-0.3,0.5c-1.5,1.8-3.5,2.8-5.8,3.2c-3,0.6-5.9,0.3-8.7-0.8c-4.7-1.8-6.7-7.3-4.3-11.8
		c1.8-3.4,4.6-5.7,8.5-6.2c4.2-0.6,7.6,1.1,9.2,4.6c1.4,3,1.1,6-1,8.6C31.6,23.5,30.4,24,29,24C28,23.9,27.2,23.5,26.7,22.5z
		 M21,19.5c0,1.9,0.8,2.9,2.2,2.9c0.8,0,1.5-0.2,2.1-0.8c1-0.9,1.8-1.9,2-3.3c0.1-0.7,0-1.2-0.3-1.8c-0.1-0.3-0.3-0.5-0.5-0.7
		c-0.7-0.8-1.8-1.1-2.7-0.5C22,16.2,21.2,17.8,21,19.5z"/>
</g>
</svg>
