<?xml version="1.0" encoding="utf-8"?>
<!-- Generator: Adobe Illustrator 25.0.0, SVG Export Plug-In . SVG Version: 6.00 Build 0)  -->
<svg version="1.1" id="Layer_1" xmlns="http://www.w3.org/2000/svg" xmlns:xlink="http://www.w3.org/1999/xlink" x="0px" y="0px"
	 viewBox="0 0 47.9 50" style="enable-background:new 0 0 47.9 50;" xml:space="preserve">
<style type="text/css">
	.st0{fill:#5B8C51;}
</style>
<g>
	<path class="st0" d="M20.6,19.9c1.2,0.6,2.4,1.3,3.7,2c0-0.9,0-1.8,0-2.8c0-0.8,0.1-0.9,0.9-0.9c4.4,0,8.8,0,13.2,0
		c0.8,0,0.9,0.1,0.9,0.9c0,2.4,0,4.7,0,7.1c0,0.2,0,0.4,0,0.7c0.8,0,1.6,0,2.3,0c0.7,0,0.8,0.2,0.8,0.8c0,0.9,0,1.9,0,2.8
		c0,0.6-0.2,0.7-0.8,0.8c-0.4,0-0.7,0-1.1,0c0,0.2,0,0.4,0,0.6c0,1.9,0,3.8,0,5.7c0,0.7-0.1,0.9-0.9,0.9c-10.5,0-21,0-31.6,0
		c-0.8,0-0.9-0.1-0.9-0.9c0-1.9,0-3.8,0-5.7c0-0.2,0-0.4,0-0.7c-0.4,0-0.8,0-1.2,0c-0.4,0-0.7-0.2-0.7-0.7c0-1,0-2.1,0-3.1
		c0-0.4,0.2-0.7,0.7-0.7c0.7,0,1.5,0,2.2,0c0.1,0,0.4-0.1,0.4-0.3c1.4-3.7,2.7-5,6.7-6.6c-1.5-1.1-2.1-2.6-1.9-4.4
		c0.2-1.2,0.7-2.1,1.7-2.8c1.9-1.5,4.6-1.2,6.2,0.7C22.8,15,23.1,17.9,20.6,19.9z M39.5,31.3c-10.4,0-20.7,0-31.1,0c0,2,0,4,0,6
		c10.4,0,20.7,0,31.1,0C39.5,35.3,39.5,33.3,39.5,31.3z M38.2,19.3c-4.3,0-8.6,0-12.8,0c0,2.5,0,5,0,7.6c4.3,0,8.5,0,12.8,0
		C38.2,24.3,38.2,21.8,38.2,19.3z M6.5,30.2c11.7,0,23.3,0,34.9,0c0-0.8,0-1.5,0-2.2c-11.6,0-23.2,0-34.9,0
		C6.5,28.7,6.5,29.4,6.5,30.2z M24.3,26.8c0-1,0-1.9,0-2.8c0-0.3-0.2-0.6-0.4-0.8c-3.1-3.2-8.3-3.3-11.6-0.3c-1.2,1.1-2,2.4-2.5,4
		C14.7,26.8,19.4,26.8,24.3,26.8z M14.6,16.2c0,1.9,1.5,3.4,3.4,3.4c1.9,0,3.4-1.5,3.4-3.4c0-1.9-1.5-3.4-3.4-3.4
		C16.1,12.8,14.6,14.4,14.6,16.2z"/>
	<path class="st0" d="M41,10.9c-1.7-1.9-3.7-3.5-5.9-4.7c-1.8,3.1-7.7,3.7-10.6,1.1c-0.4-0.4-0.9-0.8-1.4-1.2
		c-1.3-1.2-2.9-1.8-4.7-2c-0.1,0-0.2,0-0.2,0c-0.2-0.1-0.5-0.3-0.5-0.4c0-0.2,0.1-0.5,0.3-0.6c2.3-1.5,4.7-2.5,7.4-2.8
		C27.7-0.2,29.9,0,31.9,1c1.6,0.8,2.9,1.9,3.4,3.7c0.1,0.2,0.2,0.3,0.4,0.4c6.4,3.7,10.5,9.2,11.8,16.5c1.6,9.4-1.4,17.2-8.7,23.2
		c-4.6,3.8-10,5.4-15.9,5.1c-10.4-0.5-19.3-7.7-22-17.8C-1.8,22.5,2,12.1,10.3,6.4c0.1-0.1,0.3-0.2,0.4-0.2c0.2,0,0.5,0,0.6,0.2
		c0.1,0.1,0.1,0.4,0,0.6c0,0.1-0.2,0.2-0.4,0.3c-5.5,3.9-8.7,9.2-9.7,15.9C0,32.5,5,42,13.4,46.3c12,6.1,26.4,1,31.6-11.3
		c3.4-8,2.3-15.7-2.8-22.7c-0.2-0.3-0.4-0.4-0.7-0.3c-0.1,0-0.3,0-0.4,0c-0.9,0-1.5,0.2-2,1.2c-1.1,2.1-3.2,2.6-5.4,2.4
		c-1.4-0.2-2.8-0.5-4.3-0.8c-0.4-0.1-0.6-0.5-0.4-0.8c1.5-1.9,3.2-3.6,5.6-4.3c1.6-0.4,3,0,4.2,1.1c0.3,0.3,0.6,0.5,1.1,0.3
		C40.3,10.9,40.6,10.9,41,10.9z M19.8,3.1c2.1,0.4,3.7,1.6,5.1,2.9c1.1,1,2.4,1.6,4,1.7c1.5,0.1,3-0.1,4.2-1c1.4-1,1.4-1.6,0.6-2.9
		c-0.7-1.2-1.8-1.8-3.1-2.2c-2-0.7-4-0.7-6.1-0.3C22.9,1.7,21.4,2.3,19.8,3.1z M30.4,13.8c1.5,0.4,3,0.8,4.5,0.6
		c1.5-0.1,2.7-0.8,3.4-2.2c0.1-0.3,0.1-0.4-0.1-0.6c-0.9-0.8-2-1.2-3.2-1C33.1,11,31.8,12.3,30.4,13.8z"/>
</g>
</svg>
