<?xml version="1.0" encoding="UTF-8"?>
<svg id="Layer_1" xmlns="http://www.w3.org/2000/svg" version="1.1" viewBox="0 0 61.1 49.8">
  <!-- Generator: Adobe Illustrator 30.3.0, SVG Export Plug-In . SVG Version: 2.1.3 Build 182)  -->
  <defs>
    <style>
      .st0 {
        fill: #fff;
      }
    </style>
  </defs>
  <path class="st0" d="M0,44.2c6.8.6,12.9-1,18.4-5.2-5.7-.5-9.6-3.4-11.7-8.8,1.9.2,3.7.3,5.5-.2-7.5-1.9-10.2-8.6-9.8-12.5,1.7.9,3.5,1.4,5.5,1.5-3.1-2.3-5-5.2-5.4-8.9-.3-2.7.2-5.3,1.6-7.8,6.8,8,15.4,12.4,25.8,13.1,0-1.3-.2-2.5-.1-3.6.2-5.1,4.1-10.1,9.1-11.3,4.7-1.2,8.8-.1,12.3,3.2.3.3.5.3.8.2,2.4-.5,4.7-1.4,6.9-2.6.1-.1.3-.2.5-.3-.4,1.5-1.1,2.7-2,3.8-.9,1.1-2,2-3,3,2.2-.3,4.4-.9,6.6-1.8l.1.1c-1,1.2-2,2.4-3,3.5-.9.9-1.9,1.6-2.8,2.5-.2.2-.3.5-.3.7,0,13-5.1,23.4-15.7,30.9-4.5,3.2-9.6,4.9-15,5.7-5.1.7-10.2.3-15.2-1.1-3.1-.9-6.1-2.2-8.8-4-.1.1-.2,0-.3-.1Z"/>
</svg>