<?xml version="1.0" encoding="utf-8"?>
<!-- Generator: Adobe Illustrator 25.0.0, SVG Export Plug-In . SVG Version: 6.00 Build 0)  -->
<svg version="1.1" id="Layer_1" xmlns="http://www.w3.org/2000/svg" xmlns:xlink="http://www.w3.org/1999/xlink" x="0px" y="0px"
	 viewBox="0 0 27.2 49.8" style="enable-background:new 0 0 27.2 49.8;" xml:space="preserve">
<style type="text/css">
	.st0{fill:#5B8C51;}
</style>
<path class="st0" d="M21.8,24.9c-0.3-0.3-0.6-0.4-0.7-0.6C14.4,17.6,7.6,10.9,1,4.1c-0.4-0.4-0.7-1-0.9-1.5
	c-0.2-0.9,0.3-1.8,1.1-2.3c0.8-0.5,1.8-0.4,2.5,0.2C3.9,0.6,4,0.8,4.2,1c7.3,7.3,14.6,14.6,21.9,21.9c1.4,1.4,1.4,2.5,0,3.9
	c-7.3,7.4-14.7,14.7-22,22.1c-0.7,0.7-1.5,1.1-2.5,0.8c-1.5-0.5-2-2.3-1.1-3.5c0.2-0.2,0.4-0.4,0.6-0.6c6.7-6.7,13.4-13.4,20.1-20.1
	C21.3,25.3,21.5,25.2,21.8,24.9z"/>
</svg>
