<?xml version="1.0" encoding="utf-8"?>
<!-- Generator: Adobe Illustrator 25.0.0, SVG Export Plug-In . SVG Version: 6.00 Build 0)  -->
<svg version="1.1" id="Layer_1" xmlns="http://www.w3.org/2000/svg" xmlns:xlink="http://www.w3.org/1999/xlink" x="0px" y="0px"
	 viewBox="0 0 55.6 49.8" style="enable-background:new 0 0 55.6 49.8;" xml:space="preserve">
<style type="text/css">
	.st0{fill:#5B8C51;}
</style>
<g>
	<path class="st0" d="M7.4,31.3c-0.3-1.9-0.7-3.7-1-5.5c-0.2-1.7-0.2-3.5,0.2-5.2c1-3.7,3.7-5.7,7.3-6.4c3.4-0.7,6.3,0.6,8.9,2.6
		c0.2,0.2,0.4,0.3,0.6,0.5c0-1.4,0.1-2.8,0-4.1c-0.2-2.6-0.6-5.2-1.6-7.6c-0.6-1.6-1.5-3.1-3.1-3.9c-0.5-0.2-0.6-0.7-0.4-1.1
		c0.3-0.5,0.7-0.6,1.1-0.3c0.8,0.5,1.6,1.1,2.2,1.8C23,3.3,23.6,5,24.1,6.8c0.1-0.3,0.2-0.4,0.3-0.6c1.7-3.6,4.8-5.4,8.5-6
		c0.7-0.1,1.1,0.3,1,1.1c-0.4,5.5-3.7,9.3-8.7,10.1c-0.1,0-0.1,0-0.2,0c0.1,1.7,0.2,3.4,0.3,5.3c0.2-0.1,0.3-0.2,0.5-0.3
		c2.2-1.5,4.6-2.5,7.4-2.4c1.2,0.1,2.3,0.4,3.5,0.9c0.3,0.2,0.7,0.2,1.1,0.2c0.6,0.1,1.2,0.1,1.8,0.1c1.5,0.2,2.7-0.8,2.6-2.3
		c-0.1-3.5,2.3-6.2,5.7-6.6c2.4-0.3,4.4,0.6,5.8,2.6c1.5,2,1.6,4.2,0.6,6.5c-0.6,1.3-1.5,2.3-2.8,3c-1.3,0.6-1.6,2.2-0.8,3.3
		c0.3,0.5,0.7,0.9,1,1.4c0.9,1.6,0.4,3.3-1.2,4.2c-0.8,0.4-1.7,0.7-2.6,1c-1,0.4-2.1,0.6-3,1.1c-1.1,0.5-1.6,1.4-1.8,2.6
		c5.7-2,10.7,1.6,12,5.7c1.4,4.4-0.6,9.2-4.8,11.2c-4.1,2-9.9,0.7-12.4-4.5c-1.5,1-2.9,1.9-4.4,2.8c-1.5,0.9-3,1.8-4.8,1.8
		c-3.8,0.1-7.6,0.3-11.3-0.5c-3-0.7-5.3-2.4-6.9-5.1c-0.6-1-1.1-2-1.7-3c-1.6-3.2-4.3-5.1-7.7-5.9c-0.6-0.1-1.2-0.2-1.3-1
		c0-0.7,0.6-0.9,1.1-1C3.2,31.7,5.3,31.3,7.4,31.3z M35.5,16.3c-1.3-0.6-2.7-0.7-4-0.5c-2.6,0.4-4.7,1.7-6.6,3.5
		c-0.7,0.7-1,0.7-1.7,0c-1.6-1.4-3.3-2.6-5.4-3.2C13.7,14.7,8,17.5,8,22.9c0,2.8,0.5,5.4,1.3,8.1c0,0.2,0.3,0.3,0.4,0.3
		c0.8,0.1,1.6,0.2,2.4,0.3c5.7,1.1,10.4,3.9,13.8,8.7c0.1,0.1,0.1,0.2,0.1,0.3c0.2-0.3,0.2-0.5,0.2-0.7c0.3-2.3,0.7-4.6,1-6.9
		c0.4-2.8,2.1-4.4,4.8-5c0.4-0.1,0.8-0.2,1.2-0.3c2.1-0.6,3.1-2.1,2.7-4.3c-0.2-1.1-0.5-2.1-0.7-3.2C34.9,18.9,34.6,17.6,35.5,16.3z
		 M27.9,46.1c0.1,0,0.1,0,0.2,0c0.1-0.2,0.3-0.4,0.4-0.7c5.8-9.8,11.6-19.6,17.4-29.4c0.1-0.2,0.2-0.4,0.4-0.6
		c0.3-0.3,0.7-0.4,1.1-0.2c0.4,0.2,0.5,0.6,0.3,1c-0.1,0.2-0.2,0.4-0.3,0.5c-5.9,9.9-11.7,19.8-17.6,29.7c-0.1,0.2-0.2,0.4-0.4,0.6
		c0.2,0,0.2,0,0.3-0.1c0.3-0.1,0.6-0.2,0.8-0.3c2.4-1.1,4.5-2.5,6.6-4.1c0.1-0.1,0.2-0.4,0.2-0.6c-0.5-3.7,0.7-6.7,3.6-9
		c0.2-0.2,0.4-0.4,0.4-0.7c0-2.2,1-3.8,2.9-4.7c1.2-0.5,2.4-0.8,3.7-1.3c0.6-0.2,1.2-0.4,1.8-0.7c0.8-0.5,0.9-1.1,0.5-1.9
		c-0.2-0.4-0.6-0.8-0.9-1.2c-1.5-2-0.9-4.7,1.4-5.9c0.3-0.1,0.6-0.3,0.8-0.5c1.6-1.3,2.2-3.8,1.2-5.8c-1-2-3.2-3-5.3-2.5
		c-2.2,0.6-3.6,2.5-3.6,4.8c0.1,2.6-2,4.4-4.6,4.1c-0.4-0.1-0.9-0.1-1.3-0.1c-0.9,0-1.3,0.4-1.4,1.3c0,0.3,0,0.5,0,0.8
		c0.3,1.2,0.6,2.4,0.8,3.7c0.7,3.5-0.7,5.9-4.2,6.9c-0.7,0.2-1.5,0.4-2.2,0.7c-1.1,0.4-1.8,1.1-2,2.3c-0.9,3.8-1.4,7.6-1.3,11.5
		C27.8,44.6,27.9,45.4,27.9,46.1z M26.2,46.3c0.1-1.5-0.1-2.3-0.8-3.5c-4.3-7.2-10.8-10.1-19-9.8c-0.9,0-1.8,0.3-2.7,0.4
		c0.2,0.2,0.3,0.3,0.5,0.4c2.3,1,4.2,2.6,5.5,4.7c0.8,1.3,1.6,2.7,2.3,4.1c1.2,2.1,3,3.5,5.4,4.2c2.2,0.6,4.5,0.7,6.8,0.7
		c0.1,0,0.1-0.1,0.2-0.1c-0.2-0.1-0.4-0.2-0.6-0.3c-3-1.5-5.8-3.3-8.2-5.7c-1.2-1.2-2.3-2.6-3.5-3.9c-0.4-0.5-0.4-0.9,0-1.3
		c0.4-0.3,0.9-0.2,1.3,0.2c0.1,0.2,0.3,0.3,0.4,0.5c1.8,2.2,3.8,4.2,6.2,5.9C22,44.3,24,45.4,26.2,46.3z M32.2,2.2
		c-3.6,0.6-7.3,4.6-7,7.5C29,9,31.6,6.2,32.2,2.2z M38.9,39.7c2,0,4,0,6,0c-1-1.8-2-3.4-3-5.2C40.2,35.9,39.2,37.6,38.9,39.7z
		 M47.9,39.7c2,0,4,0,6,0c-0.3-2.2-1.3-3.8-3-5.2C49.8,36.3,48.9,38,47.9,39.7z M49.4,33.7c-2-0.8-4-0.8-6,0c1,1.7,2,3.4,3,5.2
		C47.4,37.1,48.4,35.4,49.4,33.7z M43.4,47.5c2,0.8,4,0.8,6,0c-1-1.7-2-3.4-3-5.2C45.3,44.1,44.4,45.8,43.4,47.5z M47.9,41.5
		c1,1.8,2,3.5,3,5.2c1.7-1.4,2.7-3,3-5.2C51.8,41.5,49.9,41.5,47.9,41.5z M41.9,46.7c1-1.8,2-3.4,3-5.2c-2,0-4,0-6,0
		C39.2,43.6,40.2,45.3,41.9,46.7z"/>
	<path class="st0" d="M11.8,24.5c0-0.9,0.1-2,0.6-2.9c0.5-1.1,1.4-1.7,2.6-1.8c0.5-0.1,1,0.2,1,0.7c0.1,0.5-0.2,0.9-0.7,0.9
		c-1,0.1-1.6,0.9-1.7,2c-0.2,1.6,0.1,3.1,0.6,4.6c0.1,0.2,0.2,0.4,0.2,0.6c0.2,0.5,0,1-0.5,1.1c-0.5,0.2-0.9,0-1.1-0.5
		c-0.4-1.2-0.7-2.5-1-3.8C11.8,25.2,11.8,24.9,11.8,24.5z"/>
</g>
</svg>
