<?xml version="1.0" encoding="utf-8"?>
<!-- Generator: Adobe Illustrator 25.0.0, SVG Export Plug-In . SVG Version: 6.00 Build 0)  -->
<svg version="1.1" id="Layer_1" xmlns="http://www.w3.org/2000/svg" xmlns:xlink="http://www.w3.org/1999/xlink" x="0px" y="0px"
	 viewBox="0 0 72.4 49.8" style="enable-background:new 0 0 72.4 49.8;" xml:space="preserve">
<style type="text/css">
	.st0{fill:#5B8C51;}
</style>
<g>
	<path class="st0" d="M72.4,20c-0.3,0.2-0.5,0.4-0.8,0.4c-1.3,0.3-2.6,0.5-3.9,0.8c-0.6,0.1-0.8-0.2-0.9-0.7
		c-0.2-1.1-0.4-2.2-0.7-3.3c-1.5-5.4-6.5-9.5-12.1-10c-1.5-0.1-2.9-0.1-4.4-0.1c-0.1,0-0.4,0-0.4,0c-0.6,0.9-1.5,0.7-2.3,0.9
		c-2.1,0.6-4.3,0.7-6.4,0.6c-4.9,0-9.9,0-14.8,0c-0.3,0-0.5,0-0.9,0c0,0.5,0,0.9,0,1.3c0,0.6-0.2,0.8-0.8,0.8c-2.6,0-5.3,0-7.9,0
		c-0.6,0-0.8-0.2-0.8-0.8c0-0.4,0-0.8,0-1.4c-0.5,0-0.9,0-1.4,0c-0.5,0-0.8-0.2-0.8-0.7c0-2.4,0-4.8,0-7.2c0-0.2,0.3-0.5,0.4-0.7
		C23.7,0,33.9,0,44,0c1.3,0.3,2.6,0.6,4,0.9c0.3,0.1,0.6,0.2,0.9,0.3c0.3,0.1,0.6,0.3,0.9,0.3c1.9,0.1,3.8,0,5.6,0.3
		c7.8,0.9,14.5,7,16.3,14.7c0.2,1,0.5,2.1,0.7,3.2C72.4,19.7,72.4,19.8,72.4,20z M14.3,7.5c9.6,0,19.2,0,28.8,0c0-2.1,0-4.2,0-6.3
		c-9.6,0-19.2,0-28.8,0C14.3,3.3,14.3,5.4,14.3,7.5z M71.1,19.4C70,8.4,60.6,1.3,49.2,2.7c0,1.1,0,2.2,0,3.3
		C59.3,5.5,66,9.5,67.9,20C69,19.8,70.1,19.6,71.1,19.4z M44.3,7.4c1.2-0.2,2.2-0.4,3.3-0.6c0.1,0,0.3-0.3,0.3-0.4
		c0-1.4,0-2.9,0-4.3c-1.3-0.2-2.4-0.5-3.7-0.7C44.3,3.3,44.3,5.3,44.3,7.4z M23.6,8.7c-2.4,0-4.8,0-7.2,0c0,0.3,0,0.6,0,1
		c2.4,0,4.8,0,7.2,0C23.6,9.3,23.6,9,23.6,8.7z"/>
	<path class="st0" d="M0,38.2c0.1-0.5,0.2-0.9,0.3-1.4c1.1-4.1,4.6-7.1,8.8-7.6c0.3,0,0.6-0.1,0.9-0.1c0.1-0.3,0.1-0.7,0.2-1.1
		c-0.1,0-0.2,0-0.3,0c-2.6,0.9-4-0.6-4.9-2.4c-0.3-0.5-0.1-0.8,0.3-1.1c2-1.1,3.9-1.2,5.4,0.7c0.1,0.1,0.1,0.1,0.2,0.2
		c0.3-0.5,0.6-1,0.9-1.5c0.2-0.3,0.6-0.5,0.9-0.2c0.2,0.2,0.2,0.6,0,0.8c-0.9,1.4-1.3,2.9-1.5,4.6c3.3,0.4,5.8,1.9,7.7,4.7
		c0.2-0.4,0.3-0.7,0.4-1.1c1.4-3.2,4.4-3.9,7-3.2c0.7,0.2,1.4,0.4,2.3,0.6c0.1-0.6,0.1-1,0.2-1.6c-0.4,0.1-0.8,0.2-1.2,0.3
		c-1.8,0.2-3.6-1.1-4.1-2.8c-0.1-0.2,0.2-0.7,0.4-0.8c1.6-0.9,3.6-1.6,5.6,0.8c0.3-0.5,0.6-1,0.9-1.4c0.2-0.3,0.5-0.6,0.9-0.3
		c0.4,0.3,0.3,0.6,0,0.9c-1,1.4-1.4,3-1.5,4.9c0.7-0.2,1.3-0.3,1.9-0.4c0.9-0.1,1.9-0.4,2.8-0.3c2.8,0.2,4.3,1.9,5.1,4.4
		c1.5,4.7-0.5,10.9-4.3,14c-1.4,1.1-3,1.9-4.8,1.5c-0.9-0.2-1.6-0.2-2.5,0c-2.1,0.5-3.8-0.5-5.2-1.9c-1.2-1.2-2.1-2.6-3.1-3.9
		c0,0-0.1,0.1-0.1,0.2c-1.8,3.5-4.6,5.5-8.5,5.9c-0.2,0-0.3,0.1-0.5,0.1c-0.3,0-0.6,0-0.8,0c-0.2,0-0.3-0.1-0.5-0.1
		c-4.3-0.5-7.8-3.4-8.9-7.6c-0.1-0.5-0.2-1-0.3-1.5C0,39.8,0,39,0,38.2z M39,37.1c-0.1-0.5-0.1-1.2-0.2-1.8c-0.6-3.7-3.3-5.6-7-4.3
		c-1.7,0.6-3.4,0.5-5.1-0.1c-3-1-5.8,0.1-6.6,3.6c-0.9,3.6-0.1,6.9,1.8,10c0.9,1.5,2.1,2.7,3.7,3.5c1.1,0.5,2.2,0.6,3.3,0
		c0.3-0.1,0.7-0.1,1,0c0.9,0.5,1.9,0.6,2.8,0.2c0.9-0.5,1.9-1,2.6-1.7C37.8,44,38.8,40.8,39,37.1z M18.4,37.4c0.3-1.2,0.1-2.1-0.5-3
		c-2.2-3-5.1-4.4-8.8-4c-4.5,0.5-7.9,4.4-8,8.8c-0.1,4.6,3.2,8.6,7.6,9.3c4.5,0.7,8.9-1.9,10.2-6.2c0.1-0.4,0.1-0.8,0-1.2
		C18.8,39.7,18.6,38.5,18.4,37.4z M6.2,25.4c0.9,1.8,2.5,2.3,4.1,1.2C9.4,24.9,8,24.4,6.2,25.4z M29,27.4c-1-1.8-2.5-2.3-4.1-1.2
		C25.8,28,27.2,28.4,29,27.4z"/>
	<path class="st0" d="M18.3,11.6c-0.2,0.5-0.4,1-0.6,1.4c-0.1,0.1-0.5,0.3-0.6,0.2c-0.2-0.1-0.4-0.4-0.4-0.6
		c0.1-0.5,0.3-0.9,0.5-1.3c0.1-0.2,0.4-0.3,0.6-0.2C18,11.1,18.2,11.4,18.3,11.6z"/>
	<path class="st0" d="M24.5,15.7c-0.1,0.2-0.3,0.4-0.5,0.5c-0.2,0-0.5-0.1-0.6-0.2c-0.2-0.4-0.4-0.9-0.5-1.3c0-0.2,0.2-0.5,0.3-0.6
		c0.1-0.1,0.5,0.1,0.6,0.2C24.1,14.7,24.2,15.1,24.5,15.7z"/>
	<path class="st0" d="M17.2,14.5c-0.2,0.5-0.4,1-0.6,1.4c-0.1,0.1-0.4,0.3-0.6,0.2c-0.2-0.1-0.4-0.4-0.4-0.6
		c0.1-0.5,0.3-0.9,0.5-1.4c0.1-0.1,0.4-0.2,0.6-0.2C16.9,14.1,17,14.4,17.2,14.5z"/>
	<path class="st0" d="M22.2,10.9c0.3,0.2,0.5,0.3,0.5,0.4c0.2,0.4,0.4,0.9,0.5,1.3c0,0.2-0.2,0.5-0.3,0.6c-0.1,0.1-0.5,0-0.6-0.2
		c-0.2-0.4-0.4-0.9-0.5-1.4C21.8,11.4,22.1,11.2,22.2,10.9z"/>
	<path class="st0" d="M16.1,17.5c-0.2,0.6-0.3,1-0.6,1.4c-0.1,0.2-0.5,0.3-0.6,0.3c-0.2-0.1-0.4-0.4-0.3-0.7
		c0.1-0.4,0.2-0.8,0.4-1.2c0.1-0.2,0.4-0.3,0.6-0.3C15.8,17.1,15.9,17.4,16.1,17.5z"/>
	<path class="st0" d="M20.5,12.2c0,0.1,0,0.3,0,0.4c-0.1,0.2-0.3,0.4-0.5,0.6c-0.2-0.2-0.5-0.4-0.6-0.6c-0.1-0.3,0-0.6,0-0.9
		c0-0.4,0.1-0.8,0.6-0.7c0.2,0,0.4,0.4,0.5,0.7C20.6,11.9,20.5,12.1,20.5,12.2z"/>
	<path class="st0" d="M24,17.5c0.1-0.2,0.3-0.4,0.4-0.5c0.2,0,0.5,0,0.6,0.2c0.2,0.4,0.4,0.9,0.5,1.4c0,0.2-0.2,0.5-0.4,0.6
		c-0.1,0.1-0.5-0.1-0.6-0.2C24.3,18.5,24.2,18,24,17.5z"/>
	<path class="st0" d="M20.6,18.3c-0.1,0.4,0.2,1.1-0.5,1.1c-0.7,0-0.6-0.6-0.6-1.1c0-0.5-0.2-1.1,0.6-1.1
		C20.7,17.2,20.5,17.9,20.6,18.3z"/>
	<path class="st0" d="M14.9,20.5c-0.2,0.5-0.3,1-0.6,1.4c-0.1,0.1-0.4,0.3-0.6,0.2c-0.2-0.1-0.4-0.4-0.4-0.6
		c0.1-0.5,0.3-0.9,0.5-1.3c0.1-0.2,0.5-0.3,0.6-0.2C14.7,20.1,14.8,20.3,14.9,20.5z"/>
	<path class="st0" d="M26.7,21.6c-0.2,0.2-0.3,0.4-0.4,0.5c-0.2,0-0.5-0.1-0.6-0.3c-0.2-0.4-0.4-0.8-0.5-1.2c0-0.2,0.1-0.5,0.3-0.6
		c0.1-0.1,0.5,0,0.6,0.2C26.3,20.6,26.5,21.1,26.7,21.6z"/>
	<path class="st0" d="M20.5,21.4c0,0.4,0.2,1-0.5,1.1c-0.7,0-0.6-0.7-0.6-1.1c0-0.1,0-0.3,0-0.3c0.2-0.3,0.3-0.7,0.5-0.7
		c0.5-0.1,0.6,0.3,0.6,0.7C20.5,21.1,20.5,21.2,20.5,21.4z"/>
	<path class="st0" d="M20.5,15.3c0,0.1,0,0.2,0,0.4c0,0.4-0.1,0.8-0.6,0.7c-0.2,0-0.4-0.4-0.5-0.7c-0.1-0.3-0.1-0.6,0-0.9
		c0.1-0.3,0.4-0.4,0.6-0.7c0.2,0.2,0.4,0.4,0.5,0.7C20.6,14.9,20.5,15.1,20.5,15.3z"/>
</g>
</svg>
