<?xml version="1.0" encoding="UTF-8"?>
<svg id="Layer_1" xmlns="http://www.w3.org/2000/svg" version="1.1" viewBox="0 0 50 36.2">
  <!-- Generator: Adobe Illustrator 30.3.0, SVG Export Plug-In . SVG Version: 2.1.3 Build 182)  -->
  <defs>
    <style>
      .st0 {
        fill: #e6c531;
      }

      .st1 {
        fill: #5b8c51;
      }

      .st2 {
        display: none;
      }
    </style>
  </defs>
  <g class="st2">
    <path class="st1" d="M22.6,34.5c-1.7-6.5,1.9-13.7,7.8-16.9,5.9-2.9,12.3-2.8,18.7-3.6l.7-.1.1.9c1.7,16.8-12.2,25.3-27.3,19.7h0ZM22.9,34.3c14.1.4,24.2-4.1,25.4-19.4l.8.8c-12-1.7-24.8,6.3-26.2,18.6h0Z"/>
    <path class="st1" d="M20.5,27.4c-6.5,1.7-13.7-1.9-16.8-7.8C.8,13.7.9,7.3.1,1l-.1-.8.9-.1c16.7-1.7,25.2,12.2,19.6,27.3h0ZM20.3,27.1C20.7,13.1,16.2,3,.9,1.8l.8-.8C.1,12.9,8,25.7,20.3,27.1h0Z"/>
  </g>
  <g id="Generative_Object__x28_0_x2C__0_x29_">
    <path class="st0" d="M27.35,33.81c1.65-6.22-1.85-13.11-7.58-16.17-5.73-2.78-11.95-2.68-18.17-3.45l-.68-.1-.1.86c-1.65,16.08,11.85,24.21,26.52,18.85h0ZM27.06,33.62c-13.7.38-23.51-3.92-24.68-18.57l-.78.77c11.66-1.63,24.09,6.03,25.46,17.8h0Z"/>
    <path class="st0" d="M29.39,27.01c6.32,1.63,13.31-1.82,16.32-7.47,2.82-5.65,2.72-11.77,3.5-17.8l.1-.77-.87-.1c-16.23-1.63-24.48,11.68-19.04,26.13h0ZM29.59,26.73c-.39-13.4,3.98-23.07,18.85-24.21l-.78-.77c1.55,11.39-6.12,23.64-18.07,24.98h0Z"/>
  </g>
</svg>