<?xml version="1.0" encoding="UTF-8"?>
<svg id="Layer_1" xmlns="http://www.w3.org/2000/svg" version="1.1" viewBox="0 0 26.9 49.8">
  <!-- Generator: Adobe Illustrator 30.3.0, SVG Export Plug-In . SVG Version: 2.1.3 Build 182)  -->
  <defs>
    <style>
      .st0 {
        fill: #fff;
      }
    </style>
  </defs>
  <path class="st0" d="M7.5,28.1H1.4C.3,28.1,0,27.8,0,26.7v-7.4C0,18.2.3,17.9,1.4,17.9h6.1v-.8c0-2.3,0-4.6.2-6.9C8.2,4.4,12.6.2,18.4,0,20.8-.1,23.3,0,25.7,0,26.5,0,26.9.3,26.9,1.2v7.2c0,.8-.3,1.2-1.2,1.2-1.6,0-3.3,0-4.9.1-1.9,0-2.7.7-2.7,2.6v5.5h7c1.3,0,1.6.3,1.6,1.6v7.2c0,1.1-.3,1.4-1.4,1.4h-7.2v19.9c0,1.6-.2,1.9-1.9,1.9h-6.8c-1.6,0-1.8-.2-1.8-1.8v-19.1c-.1-.2-.1-.5-.1-.8Z"/>
</svg>