<?xml version="1.0" encoding="UTF-8"?>
<svg id="Layer_1" xmlns="http://www.w3.org/2000/svg" version="1.1" viewBox="0 0 74.76 62.33">
  <!-- Generator: Adobe Illustrator 30.3.0, SVG Export Plug-In . SVG Version: 2.1.3 Build 182)  -->
  <defs>
    <style>
      .st0 {
        fill: #5b8c51;
      }
    </style>
  </defs>
  <path class="st0" d="M49.76,17.63h13.6c1.3,0,2.3.5,2.9,1.6,2.3,4.1,4.6,8.2,6.8,12.4,1.2,2.3,1.6,4.9,1.6,7.5v13.3c0,1.5-.9,2.4-2.5,2.4h-7.5c-.9,5.1-5,7.5-8.6,7.5-3.2,0-7.4-2.1-8.4-7.5h-17.2c-.4,2.5-1.6,4.6-3.8,6-1.5,1-3.1,1.5-4.8,1.4-4.2-.1-6.8-2.5-8.3-7.5h-1.7c-1.4,0-2.4-.9-2.4-2.4v-5.9c0-.9.3-1.2,1.2-1.2h37V15.43q0-1.1-1-1.1c-11.7.2-23.6.2-35.4.2h-.9c-.5-.1-.8-.5-.8-1s.3-.9.8-1h36.8c1.9,0,2.7.8,2.7,2.7-.1.8-.1,1.5-.1,2.4ZM49.86,19.63v28.6c5.1-5.5,13.9-2.6,15,4.6h7.5c.2,0,.4-.3.4-.5.1-.7,0-1.4,0-2-.2-.1-.4-.1-.5-.2-2-.7-3.3-2.4-3.3-4.5v-2.9c0-1.5.9-2.4,2.5-2.5h1.4v-.4c0-2.9-.6-5.7-1.9-8.3-2-3.7-4-7.3-6-10.9-.4-.6-.9-.9-1.6-.9h-8.4c-1.8-.1-3.5-.1-5.1-.1ZM27.76,47.33c.2.2.4.4.5.6,1.2,1.2,1.9,2.6,2.2,4.2.1.5.3.7.8.7h16.5v-5.5h-20ZM62.76,53.83c0-3.6-2.9-6.5-6.5-6.5s-6.5,2.9-6.5,6.5,3,6.5,6.6,6.5,6.4-2.9,6.4-6.5ZM22.06,60.33c3.5.1,6.5-2.8,6.6-6.2.1-3.7-2.8-6.7-6.4-6.7-3.5-.1-6.5,2.8-6.5,6.3-.2,3.6,2.6,6.5,6.3,6.6ZM16.66,47.33h-5.1v5.1c0,.1.2.4.4.4h1.5c.1,0,.3-.2.4-.3.2-2,1.2-3.7,2.8-5.2ZM72.66,48.13v-5.9h-1.1c-.5,0-.7.2-.7.7v2.6c.1,1.3.7,2.2,1.8,2.6Z"/>
  <path class="st0" d="M31.46,42.53c-7,0-12.5-5.7-12.5-12.7s5.7-12.5,12.6-12.5,12.6,5.7,12.5,12.7c-.1,6.9-5.7,12.5-12.6,12.5ZM31.46,40.53c5.8,0,10.6-4.7,10.6-10.5s-4.7-10.7-10.6-10.6c-5.8,0-10.5,4.7-10.5,10.5,0,5.8,4.6,10.5,10.5,10.6Z"/>
  <path class="st0" d="M8.56,27.03H3.56c-.8,0-1.3-.4-1.3-1s.4-1,1.2-1h10c.8,0,1.3.4,1.3,1s-.4,1-1.3,1h-4.9Z"/>
  <path class="st0" d="M8.46,34.83H3.36c-.8,0-1.2-.4-1.2-1s.4-.9,1.1-1h10.4c.6.1.9.4,1,1,0,.6-.4,1-1,1h-5.2Z"/>
  <path class="st0" d="M8.46,19.33H3.46c-.8,0-1.2-.3-1.2-1,0-.6.4-1,1.2-1h10c.8,0,1.3.4,1.3,1s-.4,1-1.2,1h-5.1Z"/>
  <path class="st0" d="M8.46,42.53H3.36c-.3,0-.8-.3-1-.6-.1-.2,0-.7.2-1,.1-.3.5-.4.8-.4h10.3c.7,0,1.1.4,1.2,1,0,.6-.4,1-1.2,1h-5.2Z"/>
  <path class="st0" d="M57.76,20.73h4.1c1.1,0,1.9.4,2.4,1.4,1.7,3.1,3.4,6.2,5.1,9.3.4.7.7,1.5,1,2.3.6,1.7-.9,3.3-2.6,2.9-5-1.1-10-2.3-15-3.4-1.2-.3-1.8-1.1-1.9-2.4v-7.7c0-1.5.9-2.4,2.4-2.4,1.6,0,3.1,0,4.5,0ZM57.76,22.73h-4.1c-.6,0-.7.2-.7.7v7.1c0,.5.2.7.6.8,1.9.4,3.7.8,5.6,1.3,2.9.7,5.8,1.3,8.7,2h.5v-.6c-.1-.4-.3-.8-.5-1.2-1.8-3.2-3.5-6.4-5.3-9.6-.1-.2-.5-.5-.8-.5-1.3,0-2.6,0-4,0Z"/>
  <path class="st0" d="M59.56,53.83c0,1.8-1.4,3.2-3.2,3.3-1.8,0-3.3-1.5-3.3-3.3s1.5-3.2,3.2-3.2c1.8,0,3.2,1.4,3.3,3.2ZM57.46,53.83c0-.7-.6-1.2-1.2-1.2-.7,0-1.2.6-1.2,1.2,0,.7.6,1.3,1.3,1.2.6,0,1.2-.6,1.1-1.2Z"/>
  <path class="st0" d="M25.36,53.83c0,1.8-1.5,3.2-3.2,3.2-1.8,0-3.2-1.5-3.2-3.3,0-1.7,1.5-3.2,3.2-3.2,1.8.1,3.2,1.5,3.2,3.3ZM22.16,52.63c-.7,0-1.2.5-1.2,1.2s.5,1.2,1.2,1.3c.7,0,1.3-.5,1.3-1.2-.1-.8-.6-1.3-1.3-1.3Z"/>
  <path class="st0" d="M30.36,26.93v-2.9c0-.8.4-1.2,1.1-1.2s1.2.4,1.2,1.2v4.6c0,.4.1.6.5.8,1.1.6,2.2,1.3,3.3,1.9.8.5,1,1.1.6,1.7s-1,.7-1.7.3c-1.4-.8-2.8-1.6-4.2-2.4-.6-.3-.8-.7-.8-1.4,0-.8,0-1.7,0-2.6Z"/>
</svg>