<?xml version="1.0" encoding="utf-8"?>
<!-- Generator: Adobe Illustrator 25.0.0, SVG Export Plug-In . SVG Version: 6.00 Build 0)  -->
<svg version="1.1" id="Layer_1" xmlns="http://www.w3.org/2000/svg" xmlns:xlink="http://www.w3.org/1999/xlink" x="0px" y="0px"
	 viewBox="0 0 51.1 49.8" style="enable-background:new 0 0 51.1 49.8;" xml:space="preserve">
<style type="text/css">
	.st0{fill:#5B8C51;}
</style>
<path class="st0" d="M5.5,22.7c1.2,0,2.4,0.5,3.5,1.4c3,2.7,6,5.5,9,8.2c1,0.9,1.5,0.9,2.4-0.1c9.3-10.5,18.7-21.1,28-31.6
	c0.5-0.5,1-0.8,1.7-0.6c0.6,0.2,1,0.7,1,1.4c0,0.3-0.1,0.7-0.3,1C46.7,9,42.6,15.5,38.5,22.1c-5.2,8.3-10.4,16.7-15.5,25
	c-0.9,1.4-2,2.3-3.7,2.6c-1.9,0.3-3.4-0.3-4.6-1.7C10.5,42.8,6.2,37.6,2,32.4c-0.8-1-1.6-1.9-1.8-3.2C-0.6,25.9,1.9,22.8,5.5,22.7z"
	/>
</svg>
