<?xml version="1.0" encoding="utf-8"?>
<!-- Generator: Adobe Illustrator 25.0.0, SVG Export Plug-In . SVG Version: 6.00 Build 0)  -->
<svg version="1.1" id="Layer_1" xmlns="http://www.w3.org/2000/svg" xmlns:xlink="http://www.w3.org/1999/xlink" x="0px" y="0px"
	 viewBox="0 0 60.1 49.8" style="enable-background:new 0 0 60.1 49.8;" xml:space="preserve">
<style type="text/css">
	.st0{fill:#5B8C51;}
</style>
<g>
	<path class="st0" d="M20.2,21.9c1-1,1.9-2,2.8-2.9c0.1-0.1,0.1-0.4,0-0.6c-1.9-4.1-1.4-8,1.2-11.5c1.5-2.1,3.7-3.4,6.2-4
		c0.7-0.2,1.1,0.1,1.4,0.7c2.3,3.8,1.8,8.8-1.1,12.4c-1.4,1.8-3.3,3-5.5,3.6c-0.4,0.1-0.7,0.4-1,0.6c-4.8,3.9-6.6,10.5-4.5,16.3
		c0.1,0.2,0.1,0.3,0.2,0.5c2.5-2.4,5.9-2.6,8.6-0.5c1.2-4.3,3.4-8.1,5.1-12.2c0.4-1,0.7-1.1,1.7-0.8c2.3,0.8,4.5,1.5,6.9,2.3
		c0.4-0.9,0.7-1.9,1.2-2.8c0.2-0.3,0.5-0.6,0.7-0.9c0.1-0.2,0.3-0.4,0.4-0.6c2.7-6.3,5.5-12.7,8.2-19c0.9-2,2.7-2.9,4.7-2.3
		c2.2,0.7,3.2,3,2.2,5.2c-1.5,3.3-3,6.5-4.5,9.8c-1.4,3.1-2.9,6.1-4.3,9.2c-0.1,0.3-0.1,0.6-0.1,0.9c0,0.3-0.1,0.6-0.2,0.9
		c-0.4,0.9-0.8,1.7-1.3,2.6c1.3,0.7,2.5,1.4,3.8,2.1c0.9,0.5,1.8,1,2.6,1.6c0.6,0.4,0.7,0.7,0.4,1.4c-1.4,3.3-2.9,6.5-4.4,9.7
		c-0.8,1.7-1.9,3.1-3.4,4.5c0.4,0,0.6,0,0.8,0c2.9,0,5.9,0,8.8,0c0.2,0,0.4,0,0.7,0c0.5,0.1,0.7,0.4,0.7,0.8c0,0.5-0.3,0.8-0.7,0.9
		c-0.2,0-0.4,0-0.6,0c-18.9,0-37.8,0-56.7,0c-0.2,0-0.4,0-0.5,0C0.3,49.7,0,49.4,0,48.9c0-0.5,0.3-0.8,0.8-0.8c0.6,0,1.3,0,1.8,0
		c-0.1-1-0.4-1.9-0.3-2.7c0.2-3.2,2.5-5.5,5.7-5.8c0.4,0,0.7-0.1,0.8-0.6c1.2-3.5,5.1-5.1,8.4-3.5c0.2,0.1,0.3,0.2,0.5,0.2
		c-0.1-1.4-0.4-2.9-0.4-4.4c0-1.5,0.3-2.9,0.4-4.4c-0.8-0.2-1.7-0.3-2.6-0.5c-5.6-1.6-9.1-7.7-7.5-13.3C8,12.2,8.2,12,9.3,12
		c5.3-0.1,10.1,4,10.8,9.3C20.1,21.5,20.2,21.7,20.2,21.9z M48.9,25.6c-0.9-1.1-2-1.7-3.3-1.8c-0.4,0-0.6,0.1-0.7,0.4
		c-1,2.4-2.1,4.8-3.1,7.2c-0.5,1.1-0.9,2.2-1.2,3.3c-0.5,1.6-0.6,3.2-0.4,4.9c0.2-0.1,0.3-0.2,0.4-0.3c1.9-1.5,3.3-3.2,4.3-5.4
		c0.4-0.8,0.8-1,1.3-0.7c0.5,0.3,0.6,0.8,0.2,1.5c-1.4,3-3.6,5.3-6.4,7c-0.8,0.5-1.4,0.2-1.6-0.7c-0.5-3.4,0-6.6,1.4-9.7
		c0.6-1.3,1.2-2.6,1.8-4c-2.1-0.8-4.2-1.5-6.4-2.3c-1.3,3-2.7,5.8-3.8,8.7c-0.5,1.3-0.8,2.8-1.1,4.3c-0.2,0.9,0.2,1.4,1.1,1.5
		c3.1,0.4,5.3,2.6,5.5,5.7c0.1,0.9-0.2,1.8-0.3,2.8c0,0,0.1,0,0.2,0c2.7,0,5.5,0,8.2,0c0.2,0,0.5-0.1,0.7-0.2c1.9-1.3,3.4-3,4.4-5
		c1.4-2.9,2.6-5.8,3.9-8.7c0.1-0.1,0.1-0.3,0.1-0.5c-1.9-1.1-3.8-2.1-5.8-3.2c-0.3,0.6-0.5,1-0.7,1.4c-0.3,0.5-0.7,0.7-1.2,0.5
		c-0.4-0.2-0.6-0.7-0.4-1.2c0.1-0.2,0.2-0.3,0.2-0.5C47.3,28.9,48.1,27.3,48.9,25.6z M10.9,42.2c0.1,0,0.1,0,0.2,0
		c0,0-0.1-0.1-0.1-0.1c-1.5-1.2-3.8-1.1-5.4,0.3c-1.5,1.3-2,3.6-1,5.3C4.7,47.9,5,48,5.3,48c9.6,0,19.2,0,28.8,0
		c0.4,0,0.6-0.2,0.8-0.5c0.8-1.7,0.4-3.8-1-5.1c-1.6-1.4-4.2-1.5-5.6-0.2c0.2,0.5,0.5,1,0.7,1.5c0.2,0.5,0.2,1.1,0.3,1.7
		c0,0.6-0.3,1-0.8,1.1c-0.5,0-0.9-0.3-0.9-1c-0.2-2.5-1.7-4-4.2-4.3c-0.7-0.1-1.1-0.4-1-1c0.1-0.5,0.5-0.8,1.2-0.8
		c1.2,0.1,2.2,0.4,3.2,1.1c0.1,0.1,0.4,0.2,0.6,0.1c0.6-0.3,1.1-0.6,1.6-1c0-0.1,0-0.2-0.1-0.4c-0.6-1.6-1.8-2.6-3.5-2.8
		c-1.8-0.2-3.2,0.4-4.2,1.9c-0.4,0.5-0.7,1-0.4,1.7c0.1,0.3,0.1,0.6,0,0.8c-0.2,0.3-0.5,0.7-0.8,0.7c-0.3,0-0.6-0.4-0.8-0.6
		c-0.1-0.1-0.1-0.4-0.1-0.6c-0.1-2-1.7-3.6-3.7-3.9c-2.1-0.3-4,0.8-4.8,2.7c-0.1,0.2-0.1,0.3-0.1,0.4c0.5,0.3,1,0.5,1.4,0.8
		c0.3,0.2,0.5,0.2,0.8,0c1-0.7,2-1,3.2-1.1c0.6,0,1,0.3,1.1,0.8c0,0.5-0.3,0.9-0.9,1c-0.1,0-0.1,0-0.2,0c-2.4,0.3-3.9,1.8-4.1,4.2
		c-0.1,0.7-0.4,1.1-0.9,1c-0.5,0-0.9-0.4-0.8-1.1C10.3,44.3,10.6,43.3,10.9,42.2z M49.4,23.4c0.1-0.2,0.2-0.4,0.3-0.6
		c2.1-4.4,4.1-8.9,6.2-13.3c0.8-1.6,1.5-3.3,2.3-4.9c0.3-0.8,0.3-1.5-0.2-2.1c-0.5-0.6-1.2-0.8-2-0.7c-0.8,0.2-1.2,0.8-1.5,1.5
		c-2.6,6-5.1,11.9-7.7,17.9c-0.1,0.3-0.3,0.6-0.4,0.8C47.4,22.5,48.4,22.9,49.4,23.4z M31.7,8.9c0-1.3-0.3-2.5-0.8-3.7
		c-0.2-0.5-0.4-0.5-0.9-0.4c-5,1.6-7.7,7.7-5.5,12.5c0.2,0.5,0.4,0.6,0.9,0.4C29.1,16.5,31.6,12.9,31.7,8.9z M9.2,14.4
		c0,0.5-0.1,0.9-0.1,1.2c-0.2,4.8,3.8,9.3,8.5,9.5c0.5,0,0.7-0.1,0.8-0.6c0.8-3.8-1.3-8.1-5-9.9c-0.5-0.3-1.1-0.4-1.6-0.7
		c0,0.1-0.1,0.1-0.1,0.2c0.2,0.1,0.3,0.2,0.5,0.3c1.9,1.9,3.4,4.1,4.5,6.6c0.1,0.2,0.2,0.4,0.2,0.6c0.2,0.6,0.1,1.1-0.4,1.3
		c-0.5,0.2-0.9-0.1-1.2-0.6c-0.8-1.5-1.6-3.1-2.6-4.6C11.7,16.5,10.6,15.4,9.2,14.4z"/>
</g>
</svg>
