<?xml version="1.0" encoding="utf-8"?>
<!-- Generator: Adobe Illustrator 25.0.0, SVG Export Plug-In . SVG Version: 6.00 Build 0)  -->
<svg version="1.1" id="Layer_1" xmlns="http://www.w3.org/2000/svg" xmlns:xlink="http://www.w3.org/1999/xlink" x="0px" y="0px"
	 viewBox="0 0 49.8 49.8" style="enable-background:new 0 0 49.8 49.8;" xml:space="preserve">
<style type="text/css">
	.st0{fill:#5B8C51;}
</style>
<g>
	<path class="st0" d="M49.8,49.3c-0.2,0.4-0.6,0.5-1,0.5c-12.2,0-24.3,0-36.5,0c-0.1,0-0.3,0-0.4,0c-0.4-0.1-0.6-0.3-0.6-0.7
		c0-0.4,0.2-0.6,0.6-0.7c0.2,0,0.4,0,0.5,0c11.7,0,23.5,0,35.2,0c0.2,0,0.4,0,0.6,0c0-0.6,0-1.1,0-1.6c-15.6,0-31.2,0-46.8,0
		c0,0.5,0,1.1,0,1.6c0.5,0,0.9,0,1.4,0c1.9,0,3.7,0,5.6,0c0.4,0,0.7,0.1,0.8,0.5c0.2,0.5-0.2,1-0.8,1c-1.5,0-2.9,0-4.4,0
		c-1.1,0-2.1,0-3.2,0c-0.6,0-0.9-0.3-0.9-0.9C0,48,0,47,0,46.1c0-0.6,0.3-0.9,0.9-0.9c0.9,0,1.8,0,2.7,0c0,0,0.1,0,0.2-0.1
		c0-0.2,0-0.3,0-0.5c0-3.4,0-6.8,0-10.3c0-0.9,0.2-1.1,1.1-1.1c2.4,0,4.7,0,7.1,0c0.9,0,1.1,0.2,1.1,1.1c0,3.4,0,6.8,0,10.3
		c0,0.2,0,0.4,0,0.6c0.6,0,1.1,0,1.7,0c0-0.2,0-0.4,0-0.6c0-5,0-10,0-14.9c0-0.9,0.2-1.1,1.1-1.1c2.4,0,4.8,0,7.1,0
		c0.9,0,1.1,0.2,1.1,1c0,5,0,10,0,15c0,0.2,0,0.4,0,0.6c0.6,0,1.1,0,1.7,0c0-0.2,0-0.4,0-0.6c0-6.9,0-13.9,0-20.8
		c0-1,0.2-1.1,1.1-1.1c2.4,0,4.7,0,7.1,0c0.9,0,1.1,0.2,1.1,1.1c0,6.9,0,13.8,0,20.8c0,0.2,0,0.4,0,0.7c0.6,0,1.1,0,1.7,0
		c0-0.2,0-0.4,0-0.6c0-8.3,0-16.5,0-24.8c0-1,0.2-1.1,1.1-1.1c2.4,0,4.8,0,7.2,0c0.8,0,1,0.2,1,1c0,3.5,0,7,0,10.5
		c0,0.1,0,0.3,0,0.4c-0.1,0.4-0.4,0.6-0.8,0.5c-0.4,0-0.6-0.2-0.6-0.6c0-0.2,0-0.4,0-0.5c0-3.1,0-6.1,0-9.2c0-0.2,0-0.4,0-0.6
		c-2.1,0-4.2,0-6.4,0c0,8.3,0,16.6,0,25c2.1,0,4.2,0,6.4,0c0-0.2,0-0.4,0-0.6c0-3.5,0-6.9,0-10.4c0-0.2,0-0.3,0-0.5
		c0-0.4,0.3-0.7,0.7-0.7c0.4,0,0.6,0.2,0.7,0.6c0,0.2,0,0.4,0,0.5c0,3.5,0,6.9,0,10.4c0,0.2,0,0.4,0,0.6c1,0,1.9,0,2.8,0
		c0.4,0,0.8,0.1,1,0.5C49.8,46.9,49.8,48.1,49.8,49.3z M27.2,45.2c0.2,0,0.4,0,0.5,0c1.8,0,3.5,0,5.3,0c0.5,0,0.6-0.1,0.6-0.6
		c0-6.7,0-13.4,0-20c0-0.2,0-0.3,0-0.5c-2.1,0-4.2,0-6.3,0C27.2,31.1,27.2,38.1,27.2,45.2z M22.6,45.2c0-5.1,0-10.1,0-15.2
		c-2.1,0-4.2,0-6.3,0c0,5.1,0,10.1,0,15.2C18.4,45.2,20.5,45.2,22.6,45.2z M11.6,45.2c0-3.5,0-7,0-10.5c-2.1,0-4.2,0-6.3,0
		c0,3.5,0,7,0,10.5C7.4,45.2,9.4,45.2,11.6,45.2z"/>
	<path class="st0" d="M44.3,0c0.4,0.3,0.9,0.5,1.2,0.8c0.5,0.4,0.6,1,0.6,1.6c0,2.5,0,5,0,7.5c0,0.7-0.3,0.9-0.9,0.9
		c-0.9,0-1.8,0-2.7,0c-0.7,0-0.9-0.3-1-0.9c0-0.6,0-1.3,0-2.1c-0.2,0.2-0.3,0.3-0.4,0.4c-2.2,2.2-4.5,4.5-6.7,6.7
		c-0.6,0.7-1.4,1-2.3,1c-1.8,0-3.5,0-5.3,0c-0.3,0-0.6,0.1-0.8,0.3c-2.8,3.1-5.6,6.1-8.4,9.2c-0.7,0.7-1.4,1.1-2.4,1.1
		c-3.4,0-6.9,0-10.3,0c-0.9,0-1.1-0.2-1.1-1.1c0-0.8,0-1.7,0-2.5c0-0.7,0.3-0.9,0.9-0.9c1.4,0,2.8,0,4.2,0c0.1,0,0.2,0,0.2,0
		c0.5,0.1,0.7,0.4,0.7,0.8c0,0.4-0.3,0.7-0.7,0.7c-1.1,0-2.2,0-3.3,0c-0.2,0-0.4,0-0.6,0c0,0.5,0,1,0,1.5c0,0.1,0.2,0.2,0.3,0.2
		c0.3,0,0.5,0,0.8,0c3,0,5.9,0,8.9,0c0.5,0,0.9-0.2,1.2-0.5c2.9-3.2,5.9-6.4,8.8-9.6c0.3-0.3,0.6-0.5,1.1-0.5c1.9,0,3.9,0,5.8,0
		c0.5,0,0.9-0.1,1.2-0.5c2.7-2.7,5.4-5.4,8.1-8.1c0.1-0.1,0.2-0.2,0.3-0.3c0.3-0.1,0.6-0.2,0.8-0.2c0.4,0.1,0.5,0.4,0.5,0.7
		c0,0.9,0,1.8,0,2.7c0,0.2,0,0.3,0,0.5c0.6,0,1.1,0,1.7,0c0-0.2,0-0.3,0-0.5c0-2.1,0-4.2,0-6.3c0-0.9-0.3-1.2-1.2-1.2
		c-2.1,0-4.2,0-6.3,0c-0.2,0-0.3,0-0.5,0c0,0.6,0,1.1,0,1.7c0.4,0,0.8,0,1.1,0c0.7,0,1.3,0,2,0c0.4,0,0.7,0.1,0.8,0.5
		c0.1,0.4,0,0.7-0.3,0.9c-2.7,2.7-5.3,5.3-8,8c-0.2,0.2-0.6,0.3-0.9,0.3c-2,0-4,0-6,0c-0.5,0-0.8,0.2-1.1,0.5
		c-2.9,3.2-5.9,6.5-8.9,9.7c-0.3,0.3-0.6,0.4-1,0.4c-0.7,0-1.3,0-2,0c-0.5,0-0.8-0.3-0.8-0.7c0-0.4,0.3-0.7,0.8-0.7c0.5,0,1,0,1.5,0
		c0.3,0,0.5-0.1,0.8-0.3c2.8-3.1,5.7-6.2,8.5-9.3c0.6-0.7,1.3-1,2.3-1c1.8,0,3.7,0,5.5,0c0.2,0,0.5-0.1,0.6-0.2
		c2.1-2.1,4.2-4.2,6.3-6.3C38,4.8,38,4.7,38.2,4.6c-0.7,0-1.4,0-2.1,0c-0.7,0-0.9-0.2-0.9-0.9c0-0.9,0-1.7,0-2.6
		c0-0.4,0.1-0.8,0.4-1.1C38.5,0,41.4,0,44.3,0z"/>
</g>
</svg>
