<?xml version="1.0" encoding="utf-8"?>
<!-- Generator: Adobe Illustrator 25.0.0, SVG Export Plug-In . SVG Version: 6.00 Build 0)  -->
<svg version="1.1" id="Layer_1" xmlns="http://www.w3.org/2000/svg" xmlns:xlink="http://www.w3.org/1999/xlink" x="0px" y="0px"
	 viewBox="0 0 69.4 49.8" style="enable-background:new 0 0 69.4 49.8;" xml:space="preserve">
<style type="text/css">
	.st0{fill:#5B8C51;}
</style>
<g>
	<path class="st0" d="M0,32.8c0.4-0.3,0.7-0.6,1.1-0.8c3.3-1.6,6.5-3.1,9.8-4.6c0.2-0.1,0.4-0.2,0.7-0.3c-0.2-0.3-0.4-0.6-0.6-0.9
		c-1.1-2-2.3-3.9-3.3-6C5.1,14.9,8,9.4,11.8,7.1C15.4,5,19,4.8,22.7,6.8c3.6,2,5.5,5.1,5.7,9.2c0,0.9-0.2,1.8-0.4,2.7
		c0,0.2-0.1,0.4-0.2,0.8c1.1-0.5,2.1-1,3-1.4c1.1-0.5,2.1-1,3.2-1.5c0.5-0.3,1-0.2,1.5,0c1.7,0.8,3.5,1.7,5.4,2.6
		c-0.2-0.4-0.3-0.7-0.4-1c-3.7-7.6,1.3-15.5,7.8-17.6c8.7-2.8,17.6,3.9,17.2,13c-0.1,2-0.8,3.9-1.7,5.6c-1.4,2.5-2.9,4.9-4.4,7.4
		c-0.2,0.3-0.4,0.6-0.6,0.9c2,0.9,3.9,1.8,5.9,2.7c1.3,0.6,2.7,1.2,4,1.9c0.3,0.2,0.6,0.4,0.9,0.7c0,0.2,0,0.5,0,0.7
		c-0.3,0.2-0.7,0.5-1,0.7c-10.9,5.1-21.8,10.2-32.7,15.4c-0.7,0.3-1.2,0.3-1.8,0C22.8,44.4,11.9,39.3,1,34.2c-0.4-0.2-0.6-0.5-1-0.7
		C0,33.3,0,33,0,32.8z M52.3,32.8c0.4-0.5,0.7-0.9,1-1.3c3-3.8,5.9-7.7,8.2-12.1c1-1.8,1.9-3.6,2-5.7C64,6.4,57.1,0.6,50,2.1
		c-6.3,1.3-11.4,8.5-7.7,15.8c1.4,2.8,3,5.4,4.8,7.9C48.8,28.1,50.5,30.4,52.3,32.8z M49.3,41.1c-0.2-0.1-0.2-0.1-0.3-0.2
		c-4.6-2.2-9.3-4.4-14-6.5c-0.2-0.1-0.5-0.1-0.7,0c-1,0.5-2,1-3.1,1.4c-3.7,1.7-7.4,3.5-11.1,5.2c0.2,0.1,0.3,0.2,0.4,0.3
		c4.6,2.1,9.1,4.3,13.7,6.4c0.3,0.1,0.7,0.1,1,0c4.1-1.9,8.1-3.8,12.2-5.7C48,41.7,48.6,41.4,49.3,41.1z M23.6,26.9
		c0.2,0.1,0.3,0.2,0.4,0.2c3.4,1.6,6.8,3.2,10.2,4.8c0.3,0.1,0.7,0.1,1-0.1c3.3-1.5,6.5-3,9.7-4.6c0.2-0.1,0.4-0.2,0.6-0.3
		c-1-1.6-2-3.2-3.1-4.8c-0.1-0.2-0.4-0.3-0.6-0.4c-2.2-1.1-4.5-2.1-6.7-3.2c-0.4-0.2-0.7-0.2-1.1,0c-1.8,0.8-3.5,1.8-5.3,2.5
		c-1.6,0.6-2.8,1.6-3.5,3.2C24.9,25.2,24.2,26,23.6,26.9z M17.5,31.9c0.7-0.9,1.3-1.7,2-2.5c2.2-2.9,4.3-5.8,5.9-9.1
		c0.6-1.4,1.2-2.7,1.1-4.3c-0.3-5.4-5-9.3-10.4-8.4c-5.6,0.9-9,7-6.8,11.8C11.4,23.9,14.4,27.8,17.5,31.9z M22.6,28.5
		c-1.4,1.8-2.8,3.6-4.2,5.3c-0.6,0.7-1.2,0.7-1.7,0c-0.9-1.1-1.8-2.2-2.6-3.4c-0.5-0.6-0.9-1.2-1.3-1.8c-3.2,1.5-6.3,3-9.5,4.5
		c0.1,0.1,0.2,0.1,0.2,0.1c4.7,2.2,9.4,4.4,14.1,6.6c0.2,0.1,0.6,0.1,0.8-0.1c2.5-1.2,5.1-2.4,7.6-3.6c2.2-1,4.3-2,6.6-3.1
		C29.1,31.5,25.9,30,22.6,28.5z M66.2,33.1C66,33,65.9,33,65.9,33c-2.6-1.2-5.2-2.4-7.8-3.7c-0.4-0.2-0.6-0.1-0.9,0.2
		c-1.3,1.7-2.6,3.3-3.9,5c-0.7,0.9-1.2,0.9-2,0c-1.4-1.8-2.8-3.6-4.2-5.5c-0.3-0.4-0.5-0.4-0.9-0.2c-1.9,0.9-3.8,1.8-5.7,2.7
		c-1.2,0.5-2.3,1.1-3.5,1.6c0.1,0.1,0.1,0.1,0.1,0.1c4.7,2.2,9.4,4.4,14.1,6.6c0.2,0.1,0.5,0,0.7-0.1c1.4-0.6,2.9-1.3,4.3-2
		C59.6,36.3,62.8,34.7,66.2,33.1z"/>
	<path class="st0" d="M53.3,15.6c2.1-2,4.8-2.4,7.5-2.4c1.1,0,1.5,0.5,1.1,1.5c-0.4,1-0.8,2-1.3,2.9c-1.3,2.1-3.3,3.2-5.8,3.2
		c-0.5,0-1,0-1.6,0c0,1.1,0,2.2,0,3.3c0,0.3,0,0.6,0,0.9c0,0.8-0.3,1.2-0.9,1.2c-0.6,0-1-0.4-1-1.3c0-1.2,0-2.3,0-3.5
		c0-0.2,0-0.4,0-0.8c-0.9,0-1.8,0.1-2.6,0c-2.3-0.3-4-1.7-5.1-3.7c-0.4-0.8-0.7-1.6-1-2.5c-0.3-0.9,0.1-1.4,1.1-1.4
		c2.8,0,5.4,0.4,7.6,2.4c0.1,0,0.1-0.1,0.2-0.1c-0.1-0.3-0.2-0.8-0.5-1c-3.3-3.5-2.6-7.9,0.6-11.1c0.4-0.4,0.9-0.4,1.3,0
		c3.2,3.2,4,7.5,0.7,11.1c-0.3,0.3-0.4,0.7-0.5,1C53.2,15.5,53.3,15.5,53.3,15.6z M59.8,15.1c-3.1,0-5.9,1.7-6.2,3.8
		C56.6,19.4,59,17.9,59.8,15.1z M51.1,18.9c-0.5-2.3-3.4-3.9-6.2-3.7C45.5,17.8,48,19.4,51.1,18.9z M51.4,11.5c0-0.7,0-1.3,0-2
		c0-0.8,0.3-1.2,0.9-1.2c0.6,0,0.9,0.4,1,1.2c0,0.7,0,1.4,0,2.2c1.1-1.8,0.7-4.6-0.9-6.2C50.7,7,50.3,9.6,51.4,11.5z"/>
	<path class="st0" d="M16.7,13.3c0.4-1.7,1.3-2.8,2.6-3.8c0.6-0.4,1.1-0.4,1.4,0c0.4,0.5,0.3,1-0.3,1.5c-0.7,0.6-1.3,1.2-1.7,2.1
		c0.4-0.1,0.7-0.2,1-0.3c1.5-0.3,2.7,0.2,3.5,1.5c1.2,2.2,0.8,5.7-1,7.8c-1.7,2-4.5,2.7-7,1.7c-2.4-0.9-3.6-2.8-4-5.2
		c-0.2-1.1-0.1-2.3,0.1-3.4c0.5-2.2,2.2-3,4.3-2.4C16,13,16.3,13.1,16.7,13.3z M12.9,17.1c0.1,0.6,0.1,1.1,0.2,1.5
		c0.4,1.8,1.3,3.2,3.2,3.6c1.8,0.4,3.5,0.1,4.6-1.5c1.2-1.7,1.5-3.5,0.6-5.4c-0.2-0.5-0.7-0.8-1.3-0.6c-0.6,0.2-1.2,0.4-1.8,0.6
		c-0.7,0.3-1.3,0.3-2,0c-0.6-0.3-1.3-0.5-1.9-0.6c-0.6-0.1-1,0.1-1.2,0.7C13.2,15.9,13.1,16.6,12.9,17.1z"/>
</g>
</svg>
