<?xml version="1.0" encoding="utf-8"?>
<!-- Generator: Adobe Illustrator 25.0.0, SVG Export Plug-In . SVG Version: 6.00 Build 0)  -->
<svg version="1.1" id="Layer_1" xmlns="http://www.w3.org/2000/svg" xmlns:xlink="http://www.w3.org/1999/xlink" x="0px" y="0px"
	 viewBox="0 0 50 35.7" style="enable-background:new 0 0 50 35.7;" xml:space="preserve">
<style type="text/css">
	.st0{fill:#5B8C51;}
</style>
<g>
	<path class="st0" d="M25,3.6c-7.6,0-15.2,0-22.8,0c-0.3,0-0.5,0-0.8-0.1C0.5,3.3-0.1,2.5,0,1.6C0.1,0.7,0.8,0.1,1.7,0
		C1.9,0,2,0,2.2,0c15.2,0,30.4,0,45.6,0c0.3,0,0.5,0,0.8,0c0.9,0.2,1.5,1,1.4,1.9c-0.1,0.9-0.8,1.6-1.7,1.6c-0.2,0-0.4,0-0.6,0
		C40.2,3.6,32.6,3.6,25,3.6z"/>
	<path class="st0" d="M21.4,19.6c-6.4,0-12.8,0-19.2,0c-0.3,0-0.5,0-0.8-0.1c-0.9-0.2-1.5-1-1.4-1.9c0.1-0.9,0.8-1.6,1.7-1.6
		c0.1,0,0.3,0,0.4,0c12.8,0,25.7,0,38.5,0c0.3,0,0.5,0,0.8,0c0.9,0.2,1.5,1,1.4,1.9c-0.1,0.9-0.8,1.6-1.7,1.6c-0.3,0-0.7,0-1,0
		C33.9,19.6,27.7,19.6,21.4,19.6z"/>
	<path class="st0" d="M13.4,35.7c-3.8,0-7.7,0-11.5,0c-1.4,0-2.3-1.3-1.8-2.5c0.3-0.8,0.9-1.1,1.8-1.1c2.4,0,4.9,0,7.3,0
		c5.2,0,10.4,0,15.6,0c1.4,0,2.3,1.2,1.8,2.4c-0.3,0.7-0.9,1.1-1.8,1.1C21,35.7,17.2,35.7,13.4,35.7z"/>
</g>
</svg>
