<?xml version="1.0" encoding="utf-8"?>
<!-- Generator: Adobe Illustrator 25.0.0, SVG Export Plug-In . SVG Version: 6.00 Build 0)  -->
<svg version="1.1" id="Layer_1" xmlns="http://www.w3.org/2000/svg" xmlns:xlink="http://www.w3.org/1999/xlink" x="0px" y="0px"
	 viewBox="0 0 41.9 49.8" style="enable-background:new 0 0 41.9 49.8;" xml:space="preserve">
<style type="text/css">
	.st0{fill:#5B8C51;}
</style>
<g>
	<path class="st0" d="M23.4,0c0.5,0.3,0.7,0.8,0.6,1.4c0,0.6,0,1.2,0,1.7c0,0.7-0.4,1.1-1,1.1c-0.6,0-1-0.4-1-1.1c0-0.6,0-1.3,0-1.9
		c0-0.6,0.2-1,0.7-1.2C23,0,23.2,0,23.4,0z"/>
	<path class="st0" d="M11.9,47c-0.5,1.4-1.6,2-3,2c-2,0-4,0-5.9,0C1.1,49,0,47.9,0,46.1c0-6.4,0-12.8,0-19.1C0,25.2,1.1,24,2.9,24
		c1.9,0,3.9,0,5.8,0c1.7,0,2.4,0.4,3.2,2c1-0.7,1.8-1.5,2.6-2.4c1.8-2.1,2.8-4.7,3.4-7.4c0.3-1.5,0.6-3,0.9-4.5
		c0.1-0.4,0.2-0.8,0.4-1.2c0.6-1.5,1.9-2.1,3.5-1.7c2.3,0.6,3.7,2.2,4.5,4.3C28,15,28,17,27.4,19c-0.4,1.5-0.8,2.9-1.2,4.4
		c0,0.1-0.1,0.2-0.1,0.5c0.2,0,0.4,0,0.6,0c3.7,0,7.4,0,11.1,0c2.2,0,3.9,1.6,4.1,3.8c0.1,1.3-0.4,2.3-1.3,3.2
		c0.9,0.8,1.3,1.8,1.3,3c0,1.2-0.5,2.2-1.3,3c1.1,1.1,1.6,2.4,1.2,3.9c-0.3,1.5-1.3,2.4-2.6,2.9c0.2,0.8,0.4,1.5,0.4,2.3
		c0,2.1-1.7,3.9-3.8,3.9c-4.8,0-9.6,0.1-14.3,0c-3.2-0.1-6.3-1.1-9.2-2.5c-0.1-0.1-0.2-0.1-0.3-0.2C12,47,12,47,11.9,47z M12,36.5
		c0,2.5,0,5.1,0,7.6c0,0.5,0.2,0.8,0.6,1c3,1.7,6.2,2.7,9.6,2.7c4.5,0.1,8.9,0,13.4,0c1.3,0,2.2-0.8,2.2-2c0-1.2-0.9-2-2.2-2.1
		c-0.6,0-1.1,0-1.7,0c-0.7,0-1.1-0.7-0.9-1.3c0.2-0.5,0.6-0.6,1.1-0.6c1.3,0,2.7,0,4,0c1,0,1.8-0.8,1.9-1.8c0.1-0.9-0.5-1.9-1.4-2.1
		c-0.3-0.1-0.6-0.1-0.9-0.1c-1.2,0-2.5,0-3.7,0c-0.7,0-1.1-0.4-1.1-1c0-0.5,0.4-0.9,1.1-0.9c1.3,0,2.6,0,3.9,0c1.2,0,2.1-0.9,2.1-2
		c0-1.1-0.9-2-2.1-2c-1.3,0-2.5,0-3.8,0c-0.7,0-1.1-0.4-1.2-1c0-0.6,0.4-1,1.2-1c1.3,0,2.6,0,3.8,0c1,0,1.8-0.7,2-1.6
		c0.3-1.3-0.7-2.5-2.1-2.5c-4.2,0-8.4,0-12.6,0c-1.1,0-1.4-0.5-1.2-1.5c0.6-2.1,1.1-4.2,1.6-6.3c0.5-2.2,0.2-4.2-1.2-6
		c-0.6-0.8-1.4-1.2-2.4-1.4c-0.5-0.1-0.8,0.1-1,0.5c-0.2,0.4-0.3,0.8-0.4,1.3c-0.3,1.4-0.5,2.7-0.8,4.1c-1,4.9-3.4,8.9-7.6,11.7
		c-0.2,0.1-0.3,0.4-0.3,0.6C12,31.4,12,33.9,12,36.5z M1.9,36.5c0,3.2,0,6.4,0,9.6c0,0.8,0.3,1,1,1c2,0,4,0,6,0c0.8,0,1-0.2,1-1
		c0-6.3,0-12.7,0-19c0-0.8-0.3-1-1-1c-2,0-4,0-5.9,0c-0.9,0-1.1,0.2-1.1,1.2C1.9,30.2,1.9,33.3,1.9,36.5z"/>
	<path class="st0" d="M15.3,5.7c-0.2,0.3-0.4,0.6-0.6,0.8c-0.3,0.1-0.7,0.1-1,0c-0.7-0.5-1.3-1.1-1.9-1.7c-0.4-0.4-0.4-0.9,0-1.3
		c0.3-0.4,0.9-0.5,1.3-0.1c0.6,0.5,1.2,1.1,1.8,1.6C15.1,5.1,15.2,5.3,15.3,5.7z"/>
	<path class="st0" d="M31.8,6.6C31.5,6.5,31.2,6.3,31,6c-0.2-0.3-0.2-0.8,0.1-1c0.6-0.6,1.3-1.2,2-1.8C33.5,3,34,3.1,34.3,3.4
		c0.3,0.4,0.3,0.9,0,1.2c-0.6,0.6-1.3,1.2-2,1.8C32.2,6.5,32,6.5,31.8,6.6z"/>
	<path class="st0" d="M10,13.5c-0.4,0-0.8,0-1.3-0.1c-0.5-0.1-0.9-0.4-0.9-0.9c0-0.5,0.3-1,0.9-1c0.9,0,1.7,0,2.6,0.1
		c0.5,0.1,0.9,0.5,0.8,1c0,0.5-0.4,0.9-1,0.9C10.7,13.5,10.3,13.5,10,13.5C10,13.5,10,13.5,10,13.5z"/>
	<path class="st0" d="M36.1,13.5c-0.4,0-0.7,0-1.1,0c-0.5,0-0.9-0.4-0.9-0.9c0-0.5,0.2-1,0.8-1c0.9-0.1,1.7-0.1,2.6-0.1
		c0.5,0,0.8,0.5,0.8,1c0,0.5-0.3,0.9-0.9,0.9C37,13.5,36.6,13.5,36.1,13.5C36.1,13.5,36.1,13.5,36.1,13.5z"/>
	<path class="st0" d="M6.2,29.4c0.5,0,0.9,0.4,1,0.9c0,0.5-0.4,1-1,1c-0.5,0-1-0.5-1-1C5.3,29.9,5.7,29.4,6.2,29.4z"/>
</g>
</svg>
