<?xml version="1.0" encoding="utf-8"?>
<!-- Generator: Adobe Illustrator 25.0.0, SVG Export Plug-In . SVG Version: 6.00 Build 0)  -->
<svg version="1.1" id="Layer_1" xmlns="http://www.w3.org/2000/svg" xmlns:xlink="http://www.w3.org/1999/xlink" x="0px" y="0px"
	 viewBox="0 0 51.3 49.8" style="enable-background:new 0 0 51.3 49.8;" xml:space="preserve">
<style type="text/css">
	.st0{fill:#5B8C51;}
</style>
<g>
	<path class="st0" d="M12.8,41.3c-0.9-1.5-1.9-3-2.7-4.6C7.8,32.4,6.3,27.9,5.9,23c-0.1-1,0-2-0.1-3c0-0.5,0.2-0.8,0.7-1
		c2.1-0.8,4.1-1.6,6.2-2.4c0.5-0.2,0.6-0.4,0.6-0.9c0-2.3,0-4.6,0-6.8c0-1.6,1-2.5,2.5-2.5c2.1,0,4.2,0,6.4,0c0-0.2,0-0.4,0-0.6
		c0-1.6,0-3.1,0-4.7c0-0.7,0.2-1,0.9-1c1.6,0,3.2,0,4.9,0C28.8,0,29,0.3,29,1c0,1.7,0,3.5,0,5.3c0.2,0,0.4,0,0.6,0
		c1.9,0,3.8,0,5.8,0c1.6,0,2.5,0.9,2.5,2.5c0,2.3,0,4.7,0,7c0,0.4,0.1,0.6,0.5,0.7c2.1,0.8,4.1,1.6,6.2,2.4c0.7,0.2,0.9,0.6,0.9,1.3
		c0.1,3.9-0.7,7.7-2,11.3c-1.2,3.3-2.7,6.5-4.8,9.4c-0.1,0.1-0.2,0.2-0.3,0.4c1.3,0.6,2.6,0.8,4,0.8c1.4,0,2.7-0.4,4-1
		c1.3-0.6,2.6-0.8,4-0.8c0.6,0,0.9,0.2,0.9,0.7c0,0.5-0.3,0.8-0.9,0.8c-1.4,0-2.7,0.4-4,0.9c-2.8,1.2-5.6,1.2-8.4,0
		c-2.8-1.2-5.5-1.2-8.2,0c-2.8,1.2-5.6,1.2-8.4,0c-2.8-1.2-5.5-1.2-8.2,0c-2.8,1.2-5.6,1.2-8.4,0c-1.3-0.5-2.5-0.9-3.9-0.9
		C0.3,41.8,0,41.5,0,41c0-0.5,0.3-0.7,0.9-0.7c1.5,0,2.9,0.3,4.2,0.9c2.3,1.1,4.7,1.1,7.2,0.2C12.5,41.4,12.7,41.4,12.8,41.3z
		 M26.4,42.1c0.4-0.1,0.8-0.1,1.2-0.2c0.7-0.2,1.5-0.4,2.1-0.7c2.1-0.9,4.3-1.1,6.6-0.6c0.6,0.1,0.9,0,1.2-0.5
		c2.8-3.9,4.6-8.2,5.8-12.9c0.1-0.5,0-0.7-0.5-0.9c-4.9-1.9-9.9-3.8-14.8-5.7c-0.5-0.2-1-0.4-1.6-0.6C26.4,27.4,26.4,34.7,26.4,42.1
		z M24.9,20c-0.1,0-0.2,0.1-0.3,0.1c-5.4,2.1-10.8,4.2-16.3,6.3C8,26.5,7.9,26.7,8,27c0.6,1.9,1.2,3.8,1.9,5.7
		c1,2.7,2.4,5.2,4.1,7.6c0.2,0.2,0.3,0.4,0.7,0.3c2.5-0.6,5-0.4,7.3,0.7c0.9,0.4,1.8,0.7,2.9,0.7C24.9,34.7,24.9,27.4,24.9,20z
		 M14.8,15.7c0.1,0,0.2-0.1,0.3-0.1c3.3-1.3,6.7-2.6,10-3.9c0.3-0.1,0.6-0.1,0.9,0c2.5,1,5,1.9,7.5,2.9c1,0.4,1.9,0.7,2.9,1.1
		c0-0.2,0-0.3,0-0.4c0-2.1,0-4.3,0-6.4c0-0.8-0.3-1.1-1.1-1.1c-6.5,0-12.9,0-19.4,0c-0.9,0-1.1,0.3-1.1,1.1c0,2,0,3.9,0,5.9
		C14.8,15.1,14.8,15.4,14.8,15.7z M7.5,25.1c1.6-0.6,3-1.2,4.5-1.7c4.2-1.6,8.3-3.2,12.5-4.8c0.3-0.1,0.5-0.3,0.5-0.7
		c0-0.8,0-1.7,0-2.5c0-0.7,0-1.3,0-2c-1.3,0.5-2.6,1-3.8,1.5c-4.5,1.7-8.9,3.5-13.4,5.2c-0.2,0.1-0.5,0.3-0.5,0.4
		C7.3,22,7.4,23.5,7.5,25.1z M43.7,25.1c0.1-1.5,0.2-2.9,0.3-4.3c0-0.4-0.1-0.6-0.5-0.8c-4.5-1.7-9-3.5-13.5-5.3
		c-1.2-0.5-2.4-0.9-3.7-1.4c0,1.5,0,3,0,4.5c0,0.5,0.1,0.7,0.6,0.8c2.9,1.1,5.8,2.3,8.8,3.4C38.3,23,40.9,24,43.7,25.1z M27.5,1.5
		c-1.3,0-2.5,0-3.8,0c0,1.6,0,3.2,0,4.7c1.3,0,2.5,0,3.8,0C27.5,4.6,27.5,3.1,27.5,1.5z"/>
	<path class="st0" d="M42.2,49.8c-1.6,0-3-0.3-4.4-0.9c-2.6-1.1-5.1-1.2-7.7,0c-3,1.3-6,1.3-9.1,0c-2.5-1.1-5-1.1-7.5,0
		c-3,1.3-6.1,1.4-9.1,0C3.4,48.3,2.2,48,1,48c0,0-0.1,0-0.1,0C0.3,48,0,47.7,0,47.3c0-0.4,0.3-0.7,0.9-0.7c1.5,0,2.9,0.3,4.3,0.9
		c2.6,1.1,5.1,1.1,7.7,0c0.7-0.3,1.4-0.6,2.1-0.7c2.3-0.5,4.5-0.3,6.7,0.6c2.7,1.2,5.3,1.2,8,0c2.8-1.2,5.7-1.3,8.5,0
		c2.8,1.2,5.5,1.2,8.2,0c1.3-0.6,2.7-0.9,4.1-0.8c0.3,0,0.6,0.2,0.7,0.5c0.1,0.2,0,0.5-0.2,0.7c-0.1,0.1-0.4,0.2-0.6,0.2
		c-1.4,0-2.8,0.4-4.1,1C45.1,49.6,43.7,49.8,42.2,49.8z"/>
</g>
</svg>
