<?xml version="1.0" encoding="utf-8"?>
<!-- Generator: Adobe Illustrator 25.0.0, SVG Export Plug-In . SVG Version: 6.00 Build 0)  -->
<svg version="1.1" id="Layer_1" xmlns="http://www.w3.org/2000/svg" xmlns:xlink="http://www.w3.org/1999/xlink" x="0px" y="0px"
	 viewBox="0 0 29.2 49.5" style="enable-background:new 0 0 29.2 49.5;" xml:space="preserve">
<style type="text/css">
	.st0{fill:#5B8C51;}
</style>
<g>
	<path class="st0" d="M15.6,0c1,0.2,2,0.3,2.9,0.6c3.5,1,6.3,3,8.3,6.1c1.6,2.5,2.4,5.3,2.3,8.2c0,6.6,0,13.2,0,19.7
		c0,4.5-1.6,8.4-5.1,11.3c-3.3,2.8-7.2,4-11.5,3.4c-4.2-0.6-7.5-2.7-9.9-6.1C0.9,40.7,0,37.9,0,34.9c0-6.7-0.1-13.5,0-20.2
		C0.2,8.4,3.2,3.9,8.9,1.2c1.4-0.7,2.9-1,4.4-1.1c0.1,0,0.3,0,0.4-0.1C14.3,0,15,0,15.6,0z M26.2,24.8
		C26.2,24.8,26.2,24.8,26.2,24.8c0-3.3,0-6.5,0-9.8c0-0.5,0-1.1-0.1-1.6c-0.4-3-1.7-5.6-4-7.6c-3.6-3.1-9.2-3.7-13.3-1.2
		C5,6.9,3,10.3,3,14.8c0,6.7,0,13.3,0,20c0,0.6,0,1.2,0.1,1.8c0.5,3.5,2.3,6.2,5.2,8.1c4.3,2.7,9.4,2.5,13.4-0.7
		c2.7-2.1,4.3-5,4.4-8.4C26.2,32,26.2,28.4,26.2,24.8z"/>
	<path class="st0" d="M16.1,14.8c0,1.1,0,2.2,0,3.2c0,1-0.6,1.6-1.5,1.6c-0.9,0-1.5-0.6-1.5-1.6c0-2.2,0-4.3,0-6.5
		c0-1,0.6-1.6,1.5-1.6c0.9,0,1.5,0.7,1.5,1.6C16.1,12.6,16.1,13.7,16.1,14.8z"/>
</g>
</svg>
