<?xml version="1.0" encoding="utf-8"?>
<!-- Generator: Adobe Illustrator 25.0.0, SVG Export Plug-In . SVG Version: 6.00 Build 0)  -->
<svg version="1.1" id="Layer_1" xmlns="http://www.w3.org/2000/svg" xmlns:xlink="http://www.w3.org/1999/xlink" x="0px" y="0px"
	 viewBox="0 0 42.6 49.8" style="enable-background:new 0 0 42.6 49.8;" xml:space="preserve">
<style type="text/css">
	.st0{fill:#5B8C51;}
</style>
<g>
	<path class="st0" d="M30.3,19.4c2.2,0.9,4.5,1.8,6.7,2.6c1.1,0.4,1.8,1,2.3,2c0.9,1.8,2,3.5,3,5.2c0.4,0.8,0.3,1.2-0.5,1.5
		c-0.9,0.3-1.7,0.7-2.6,1c-0.3,0.1-0.5,0.3-0.5,0.7c0,3.3,0,6.6,0,9.9c0,0.8-0.1,0.9-0.8,1.2c-5.4,2.1-10.7,4.2-16.1,6.3
		c-0.4,0.2-0.8,0.2-1.2,0c-5.4-2.1-10.8-4.2-16.2-6.3c-0.6-0.3-0.8-0.4-0.8-1.1c0-3.3,0-6.6,0-9.9c0-0.4-0.1-0.6-0.5-0.8
		c-0.9-0.3-1.7-0.7-2.6-1c-0.7-0.3-0.9-0.7-0.5-1.3c1.2-2.1,2.4-4.2,3.7-6.3c0.1-0.2,0.4-0.4,0.7-0.5c2.4-1,4.8-1.9,7.2-2.8
		c0.2-0.1,0.4-0.1,0.5-0.2c-1-4.5,0.3-8.2,4.2-10.7c3.3-2.1,6.8-2,10,0.2C30.2,11.4,31.3,15,30.3,19.4z M37.2,32.4
		c-0.2,0.1-0.5,0.2-0.7,0.2c-3.6,1.4-7.2,2.8-10.8,4.2c-0.9,0.3-1.1,0.3-1.5-0.6c-0.6-1.1-1.2-2.1-1.8-3.2c-0.1-0.1-0.1-0.2-0.3-0.4
		c0,5.1,0,10.1,0,15.1c0.1,0,0.2,0,0.2-0.1c4.9-1.9,9.7-3.8,14.6-5.7c0.3-0.1,0.3-0.3,0.3-0.6c0-2.9,0-5.8,0-8.6
		C37.3,32.8,37.2,32.6,37.2,32.4z M5.3,32.4c0,3.1,0,6.1,0,9.1c0,0.4,0.1,0.5,0.5,0.7c3.9,1.5,7.8,3,11.7,4.6c1,0.4,2,0.8,3,1.1
		c0-5.1,0-10.1,0-15.2c-0.8,1.3-1.5,2.6-2.2,3.8c-0.4,0.7-0.6,0.8-1.4,0.5c-2.6-1-5.1-2-7.7-3C8,33.5,6.7,32.9,5.3,32.4z M21.3,8.9
		c-4.3,0-7.8,3.5-7.8,7.9c0,4.3,3.5,7.8,7.8,7.8c4.3,0,7.8-3.5,7.8-7.9C29.1,12.3,25.6,8.8,21.3,8.9z M40.7,29.4
		c-0.9-1.6-1.9-3.2-2.7-4.8c-0.2-0.4-0.4-0.4-0.8-0.3c-4.7,1.8-9.3,3.6-14,5.5c-0.2,0.1-0.5,0.2-0.8,0.3c1,1.8,2,3.5,3,5.2
		C30.5,33.4,35.6,31.4,40.7,29.4z M20.2,30.1c-5.1-2-10.2-4-15.3-5.9c-1,1.8-2,3.5-3,5.2c5.1,2,10.2,4,15.3,5.9
		C18.2,33.6,19.2,31.9,20.2,30.1z M6.7,23.2c0.2,0.1,0.2,0.1,0.3,0.1c4.6,1.8,9.3,3.6,13.9,5.4c0.2,0.1,0.5,0,0.7,0
		c4-1.5,8-3.1,12-4.7c0.7-0.3,1.4-0.5,2.2-0.9c-2.1-0.8-4.1-1.6-6.1-2.4c-1.9,3.4-4.6,5.3-8.4,5.3c-3.8,0-6.6-1.9-8.5-5.3
		C10.8,21.6,8.8,22.4,6.7,23.2z"/>
	<path class="st0" d="M16,6.1c-0.2,0.2-0.4,0.5-0.6,0.6c-0.4,0.2-0.7,0-0.9-0.3c-0.4-0.6-0.7-1.2-1-1.8c-0.3-0.4-0.5-0.9-0.8-1.4
		c-0.2-0.4-0.1-0.9,0.3-1.1C13.3,1.9,13.8,2,14,2.4c0.6,1,1.2,2.1,1.8,3.2C15.9,5.7,15.9,5.8,16,6.1z"/>
	<path class="st0" d="M22.1,2.6c0,0.6,0,1.1,0,1.7c0,0.5-0.3,0.9-0.8,0.9c-0.5,0-0.8-0.3-0.8-0.9c0-1.2,0-2.3,0-3.5
		c0-0.5,0.3-0.9,0.8-0.9c0.5,0,0.8,0.3,0.8,0.9C22.1,1.4,22.1,2,22.1,2.6z"/>
	<path class="st0" d="M11.4,10.2c0,0.7-0.6,1.1-1,0.9C9.2,10.5,8.1,9.8,7,9.1c-0.4-0.2-0.4-0.6-0.2-1c0.2-0.4,0.6-0.5,1-0.3
		C8.9,8.5,10,9.1,11,9.8C11.2,9.9,11.3,10.1,11.4,10.2z"/>
	<path class="st0" d="M27.5,7c-0.7,0-1.1-0.6-0.8-1.1c0.6-1.1,1.2-2.2,1.9-3.2c0.2-0.4,0.7-0.4,1-0.2c0.3,0.2,0.5,0.6,0.3,1
		c-0.6,1.1-1.2,2.2-1.9,3.2C27.9,6.8,27.6,6.9,27.5,7z"/>
	<path class="st0" d="M35.7,9.1c-0.1,0.1-0.2,0.4-0.4,0.5c-1,0.6-2,1.2-3.1,1.8c-0.4,0.2-0.9,0.1-1.1-0.3c-0.2-0.4-0.1-0.8,0.3-1.1
		c1-0.6,2.1-1.2,3.1-1.8C35.1,7.9,35.7,8.3,35.7,9.1z"/>
	<path class="st0" d="M35.2,16.1c0.6,0,1.1,0,1.7,0c0.5,0,0.9,0.3,0.9,0.8c0,0.4-0.3,0.8-0.8,0.8c-1.2,0-2.4,0-3.5,0
		c-0.5,0-0.8-0.3-0.8-0.8c0-0.5,0.3-0.7,0.8-0.8C34,16.1,34.6,16.1,35.2,16.1z"/>
	<path class="st0" d="M7,17.3c-0.6,0-1.1,0-1.7,0c-0.6,0-0.9-0.3-0.9-0.8c0-0.5,0.3-0.8,0.9-0.8c1.1,0,2.3,0,3.4,0
		c0.6,0,0.9,0.3,0.9,0.8c0,0.5-0.3,0.8-0.9,0.8C8.2,17.3,7.6,17.3,7,17.3z"/>
	<path class="st0" d="M19.5,16.7c0.2-0.2,0.3-0.3,0.4-0.4c1.3-1.3,2.6-2.6,4-4c0.9-0.9,2.1-0.9,3-0.1c0.8,0.8,0.8,2.1-0.1,3
		c-2,2-3.9,4-5.9,5.9c-1,1-2.3,0.9-3.1-0.2c-0.8-1-1.7-2.1-2.5-3.1c-0.7-1-0.6-2.2,0.3-2.9c0.9-0.7,2.1-0.6,2.9,0.4
		C18.8,15.7,19.1,16.2,19.5,16.7z M25.9,13.7c0-0.4-0.4-0.7-0.7-0.5c-0.1,0.1-0.2,0.2-0.4,0.3c-1.5,1.6-3.1,3.1-4.6,4.7
		c-0.6,0.5-1,0.5-1.5-0.1c-0.5-0.6-1-1.2-1.5-1.9c-0.2-0.3-0.5-0.5-0.8-0.2c-0.3,0.2-0.2,0.5,0,0.8c0.8,1,1.6,2,2.4,3
		c0.3,0.4,0.5,0.4,0.9,0.1c2-2,3.9-3.9,5.9-5.9C25.8,13.9,25.8,13.8,25.9,13.7z"/>
</g>
</svg>
