<?xml version="1.0" encoding="utf-8"?>
<!-- Generator: Adobe Illustrator 25.0.0, SVG Export Plug-In . SVG Version: 6.00 Build 0)  -->
<svg version="1.1" id="Layer_1" xmlns="http://www.w3.org/2000/svg" xmlns:xlink="http://www.w3.org/1999/xlink" x="0px" y="0px"
	 viewBox="0 0 50 50" style="enable-background:new 0 0 50 50;" xml:space="preserve">
<style type="text/css">
	.st0{fill:#5B8C51;}
</style>
<path class="st0" d="M25,27.4c-0.2,0.3-0.3,0.5-0.5,0.6c-7.1,7.1-14.1,14.1-21.2,21.2c-0.5,0.5-1.1,0.9-1.9,0.7
	c-1.3-0.4-1.7-1.8-0.9-2.9c0.1-0.2,0.3-0.3,0.4-0.4c7-7,14.1-14.1,21.1-21.1c0.1-0.1,0.3-0.3,0.5-0.4c0-0.1,0.1-0.2,0.1-0.2
	c-0.2-0.1-0.4-0.2-0.6-0.3C14.9,17.5,7.9,10.4,0.8,3.3C0.5,3,0.2,2.5,0.1,2C0,1.2,0.4,0.7,1.1,0.3C1.7,0,2.4,0.1,3,0.5
	c0.2,0.1,0.3,0.3,0.4,0.4c7,7,14,14,21.1,21.1c0.1,0.1,0.3,0.3,0.6,0.6c0.1-0.2,0.2-0.4,0.3-0.6c7.1-7.1,14.2-14.2,21.3-21.3
	c0.6-0.6,1.2-0.9,2-0.6c1.2,0.4,1.7,1.8,0.9,2.8c-0.1,0.2-0.3,0.4-0.5,0.5c-7,7-14,14-21.1,21.1c-0.2,0.2-0.3,0.3-0.6,0.5
	c0.2,0.2,0.4,0.4,0.5,0.5c7.1,7.1,14.2,14.1,21.2,21.2c0.3,0.3,0.6,0.8,0.7,1.3c0.2,0.7-0.2,1.4-0.9,1.8c-0.6,0.4-1.4,0.3-2-0.1
	c-0.2-0.1-0.3-0.3-0.5-0.5c-7-7-14.1-14.1-21.1-21.1C25.4,27.9,25.2,27.7,25,27.4z"/>
</svg>
