<?xml version="1.0" encoding="utf-8"?>
<!-- Generator: Adobe Illustrator 25.0.0, SVG Export Plug-In . SVG Version: 6.00 Build 0)  -->
<svg version="1.1" id="Layer_1" xmlns="http://www.w3.org/2000/svg" xmlns:xlink="http://www.w3.org/1999/xlink" x="0px" y="0px"
	 viewBox="0 0 50 49.8" style="enable-background:new 0 0 50 49.8;" xml:space="preserve">
<style type="text/css">
	.st0{fill:#5B8C51;}
</style>
<g>
	<path class="st0" d="M45.4,0c0.4,0,0.8,0,1.2,0c0.1,0,0.2,0.1,0.4,0.1c1.3,0.4,2.3,1.6,2.3,3c0,0.7-0.2,1.5-0.3,2.2
		c0,0.3,0,0.5,0.1,0.8c0.3,0.7,0.5,1.5,0.5,2.3c-0.1,1.4-0.9,2.2-2.1,2.8c-0.3,0.1-0.3,0.3-0.4,0.6c-0.1,0.6-0.2,1.2-0.3,1.8
		c0,0.1-0.1,0.3-0.1,0.5c0.8,0,1.6,0,2.3,0c0.5,0,0.9,0.1,1.1,0.5c0,9.3,0,18.6,0,27.9c-0.3,0.4-0.7,0.5-1.1,0.5c-2.5,0-5.1,0-7.6,0
		c-0.2,0-0.3,0-0.5,0c-0.2,2.1-1.7,3.2-3.7,2.5c-0.5-0.2-1.1-0.3-1.6-0.5c-0.2,0.4-0.3,0.7-0.5,1c-0.5,1-1.3,1.5-2.4,1.4
		c-0.2,0-0.4,0.1-0.5,0.3c-0.4,0.3-0.7,0.8-1.1,1.1c-0.7,0.5-1.5,0.3-2.2,0c-0.3-0.1-0.5-0.2-0.8,0c-0.7,0.6-1.5,1-2.5,1.1
		c0,0-0.1,0-0.1,0c-0.4-0.1-0.9-0.2-1.3-0.3c-7.8-2.7-15.5-5.3-23.2-8c-0.3-0.1-0.6-0.4-0.9-0.6c0-6.6,0-13.2,0-19.7
		c0.5-0.6,0.7-0.6,1.4-0.3c4.4,2,8.7,3.9,13.1,5.9c1.2,0.6,2.1,0.4,3.1-0.5c0.3-0.3,0.4-0.6,0.4-1c0-3.1,0-6.2,0-9.2
		c0-0.5-0.1-0.8-0.6-1c-1.2-0.6-2.4-1.3-3.5-2.1c-0.5-0.4-1-1-1.2-1.5c-0.2-0.7-0.6-1.1-1.1-1.6c-1-0.8-1.4-1.8-1.4-3.1
		c0.2-2.8,2.2-4.4,4.9-3.6c0.4,0.1,0.9,0.1,1.4,0.1C17,3.2,17.5,3,18.1,2.8c1.7-0.5,3.1-0.3,4.2,1.1c0,0,0.1,0.1,0.1,0.1
		c0.2,0.3,0.5,0.3,0.8,0.2c1.4-0.4,2.6-0.1,3.6,1c0.4,0.4,0.8,0.8,1.2,1.2c0,0,0,0,0,0c2.1-1.8,5.2-1.1,6.5,1.1
		c0.1,0.1,0.3,0.2,0.4,0.2c1.2,0.1,2.2,0.6,2.9,1.4C38,9.3,38,9.5,38.1,9.6c0.2-0.2,0.3-0.4,0.4-0.5c0.4-0.3,0.3-0.6,0.3-1.1
		c-0.1-0.8-0.3-1.6-0.3-2.5c0-1.3,0.6-2.5,1.9-3c0.9-0.3,1.7-0.8,2.4-1.5C43.6,0.4,44.5,0.2,45.4,0z M1.6,22.7
		c0,0.1-0.1,0.1-0.1,0.2c0,1.5,0,3,0,4.4c0,0.1,0.2,0.4,0.3,0.4c4.2,1.9,8.4,3.8,12.7,5.7c1.1,0.5,2,0.3,2.9-0.5
		c0.9-0.9,1.9-1.9,2.8-2.8c0.2-0.2,0.6-0.4,0.9-0.5c1.7-0.4,3.3-0.8,5-1.1c0.3-0.1,0.7-0.1,1-0.1c1.2,0.2,2,1,2.1,2.2
		c0.1,1.1-0.6,2.1-1.7,2.5c-0.8,0.3-1.5,0.5-2.3,0.8c-0.4,0.1-0.5,0.4-0.2,0.6c0.1,0.1,0.3,0.1,0.4,0.2c3.3,1.4,6.6,2.8,9.8,4.2
		c1.6,0.7,3.3,1.1,4.7,2.3c0,0,0.1,0,0.1,0c0.9,0,1.8,0,2.7,0c0-8.6,0-17.2,0-25.7c-7.8,0-15.6,0-23.4,0c0,0.2,0,0.4,0,0.6
		c0,4.4,0,8.8,0,13.2c0,0.7-0.3,1-0.8,1c-0.5,0-0.8-0.4-0.8-1c0-0.5,0-0.9,0-1.5c-1.5,0.9-2.9,0.8-4.4,0.1C9.8,26.4,6,24.7,2.3,23
		C2.1,22.9,1.9,22.8,1.6,22.7z M33.9,44.4c-0.3-0.1-0.5-0.2-0.8-0.3c-1.2-0.4-2.4-0.8-3.6-1.2c-0.4-0.1-0.7-0.4-0.6-0.9
		c0.1-0.4,0.3-0.6,0.7-0.7c0.2,0,0.4,0.1,0.6,0.1c2.4,0.8,4.8,1.6,7.2,2.4c0.9,0.3,1.4,0.1,1.7-0.5c0.2-0.6-0.1-1.1-0.9-1.5
		c-4.5-1.9-8.9-3.8-13.4-5.7c-0.9-0.4-1.4-1.1-1.3-1.9c0-0.8,0.6-1.5,1.5-1.8c0.7-0.2,1.4-0.5,2.1-0.7c0.6-0.2,0.8-0.7,0.7-1.2
		c-0.1-0.5-0.6-0.7-1.2-0.6c-1.6,0.3-3.2,0.7-4.8,1.1c-0.2,0-0.4,0.2-0.5,0.3c-0.9,0.8-1.7,1.7-2.5,2.5c-1.5,1.5-3,1.8-4.9,0.9
		C9.9,33.1,6,31.3,2.1,29.6c-0.1-0.1-0.3-0.1-0.5-0.2c0,0.1,0,0.2,0,0.3c0,3.4,0,6.7,0,10.1c0,0.3,0.1,0.4,0.4,0.5
		c1.7,0.6,3.5,1.2,5.2,1.8c5.9,2,11.7,4,17.6,6c0.5,0.2,1,0.2,1.6-0.2c-0.2-0.1-0.4-0.2-0.6-0.2c-0.6-0.2-0.8-0.6-0.7-1
		c0.2-0.5,0.6-0.6,1.2-0.4c1.1,0.4,2.2,0.7,3.2,1.1c0.6,0.2,0.9,0.1,1.2-0.6c-0.6-0.2-1.2-0.4-1.8-0.6c-0.5-0.2-0.8-0.6-0.6-1
		c0.1-0.5,0.6-0.7,1.1-0.5c0.9,0.3,1.7,0.6,2.6,0.9c1.3,0.4,1.5,0.4,2-0.9C33.9,44.5,33.9,44.5,33.9,44.4z M23.3,12
		c0.3-0.4,0.5-0.8,0.8-1.1c0.2-0.3,0.6-0.6,0.6-1c0-0.4-0.3-0.8-0.5-1.1c-0.1-0.1-0.2-0.3-0.3-0.4c-1-1.2-2.1-2.4-3.1-3.7
		c-0.4-0.5-0.9-0.7-1.6-0.5c-0.2,0.1-0.5,0.1-0.7,0.2c-1.5,0.4-2.9,0.7-4.4,0.2c-0.9-0.3-1.8,0.2-2.1,1.1c-0.6,1.5-0.3,2.4,0.7,3.1
		c0.2,0.2,0.4,0.3,0.6,0.5c0.3,0.4,0.6,0.9,0.7,1.3c0.1,0.5,0.3,0.8,0.6,1c1.2,0.7,2.4,1.4,3.6,2.2c0.2,0.1,0.4,0.3,0.7,0.3
		c1.2,0,2.5,0,3.9,0c-0.1-0.2-0.2-0.4-0.3-0.5c-0.2-0.2-0.4-0.4-0.6-0.6c-0.3-0.4-0.7-0.5-1.2-0.5c-0.9,0-1.8,0-2.7,0
		c-0.6,0-0.9-0.3-0.9-0.8c0-0.5,0.3-0.8,0.9-0.8c0.5,0,1,0,1.4,0c-1.5-1.3-2.9-2.5-4.8-3.1c-0.5-0.2-0.8-0.6-0.6-1
		c0.1-0.5,0.6-0.7,1.1-0.5c0.9,0.4,1.8,0.9,2.7,1.3c0.2,0.1,0.3,0.2,0.5,0.3c0-0.1,0-0.1,0-0.1C18.2,7.4,18.1,7,18,6.6
		c-0.1-0.6,0.1-1,0.5-1.1c0.4-0.1,0.8,0.2,1,0.7c0.3,1,0.5,2,0.8,3c0,0.1,0.1,0.3,0.2,0.4C21.4,10.4,22.3,11.2,23.3,12z M44.6,38.8
		c0.4-0.8,0.8-1.4,0.8-2.3c0-6.1,0-12.2,0-18.4c0-0.6,0.3-1,0.8-1c0.5,0,0.8,0.4,0.8,1c0,0.1,0,0.2,0,0.3c0,6.1,0,12.2,0,18.3
		c0,0.2,0,0.4,0.1,0.5c0.5,0.7,0.9,1.4,1.5,2.2c0-8.1,0-16,0-23.9c-1.3,0-2.6,0-3.8,0C44.6,23.4,44.6,31,44.6,38.8z M33.5,14
		c-0.1-2.1-2.3-3.9-4.7-3.9c-2.2,0-4.4,1.9-4.5,3.9C27.4,14,30.4,14,33.5,14z M38.3,14.1c0.3,0,0.4,0,0.6,0c1.5,0,3,0,4.5,0
		c1.6,0,1.7-0.1,2-1.7c0.2-1.2-0.1-2-1.3-2.4c-0.7-0.3-1.5-0.5-2.3-0.6c-1.2-0.2-2.4,0.6-2.7,1.9c0.5,0.2,1,0.3,1.5,0.5
		c0.5,0.2,0.7,0.6,0.6,1c-0.1,0.4-0.6,0.6-1.1,0.5c-0.5-0.2-1-0.3-1.6-0.5C38.5,13.2,38.4,13.6,38.3,14.1z M42.3,7.9
		c0.2-0.2,0.3-0.3,0.4-0.4c0.3-0.6,0.4-1.3,0.7-1.9c0.4-0.7,0.8-1.5,1.3-2.1C45,3,45.5,3,45.8,3.3c0.4,0.3,0.4,0.8,0,1.2
		c-0.9,1.1-1.3,2.4-1.7,3.7c0.3,0.1,0.5,0.2,0.7,0.3c0.1,0,0.3,0,0.3-0.1c1.6-1.4,2.5-3.1,2.6-5.3c0-1-0.7-1.6-1.7-1.6
		c-1.8,0-3.4,1.3-3.7,3.1C42.2,5.7,42.3,6.7,42.3,7.9z M33.1,10c0.5,0.6,1,1.2,1.3,1.9c0.4,0.7,0.5,1.4,0.8,2.1c0.5,0,1,0,1.5,0
		c0.2-0.9,0.4-1.8,0.6-2.7c0-0.1,0-0.2,0-0.3C36.5,9.1,34,8.9,33.1,10z M33,8.1c-0.6-0.8-1.6-1.3-2.6-1c-0.9,0.2-1.5,0.7-2,1.5
		c1.1-0.1,2.1,0.1,3,0.5c0.1,0,0.3,0,0.4-0.1C32.2,8.8,32.6,8.4,33,8.1z M24,5.8c0.8,1.1,1.5,2.3,2.3,3.4c-0.1,0,0,0,0,0
		c0.5-0.1,0.4-0.6,0.5-0.8C27,8,26.9,7.7,26.7,7.5c-0.5-0.4-0.9-0.9-1.4-1.4C24.9,5.7,24.5,5.6,24,5.8z M45,41.4c0.9,0,1.8,0,2.7,0
		c-0.5-0.8-1-1.5-1.5-2.3C45.8,39.9,45.4,40.6,45,41.4z M40.6,4.1c-0.2,0.4-0.5,0.7-0.5,1c0,0.8,0,1.6,0.1,2.4
		c0,0.1,0.1,0.2,0.2,0.3c0.1-0.1,0.2-0.2,0.2-0.4C40.6,6.4,40.6,5.4,40.6,4.1z M46.3,9.6c0.1,0.3,0.3,0.4,0.5,0.2
		c0.2-0.2,0.4-0.3,0.6-0.5c0.4-0.4,0.6-0.9,0.4-1.5C47.3,8.4,46.8,9,46.3,9.6z"/>
</g>
</svg>
