<?xml version="1.0" encoding="utf-8"?>
<!-- Generator: Adobe Illustrator 25.0.0, SVG Export Plug-In . SVG Version: 6.00 Build 0)  -->
<svg version="1.1" id="Ñëîé_1" xmlns="http://www.w3.org/2000/svg" xmlns:xlink="http://www.w3.org/1999/xlink" x="0px" y="0px"
	 viewBox="0 0 653.5 714.8" style="enable-background:new 0 0 653.5 714.8;" xml:space="preserve">
<style type="text/css">
	.st0{fill:#FDD062;}
	.st1{fill:#5B8C51;}
	.st2{fill:#FFFFFF;}
	.st3{fill:#EDDD5E;}
	.st4{fill:url(#SVGID_1_);}
</style>
<g>
	<circle class="st0" cx="582" cy="693" r="21.7"/>
	<path class="st1" d="M588.3,686.7c-3.5-3.5-9.1-3.5-12.6,0c-3.5,3.5-3.5,9.1,0,12.6c3.5,3.5,9.1,3.5,12.6,0
		C591.7,695.8,591.7,690.2,588.3,686.7z"/>
	<path class="st0" d="M427.8,539.2c86.6-86.6,86.6-226.9,0-313.5c-86.6-86.6-226.9-86.6-313.5,0L427.8,539.2z"/>
	<path class="st2" d="M75.5,186.9l-2.1-2.1c40.3-40.3,91.1-67,146.8-77.3l0.5,3C165.6,120.6,115.3,147,75.5,186.9z"/>
	<path class="st2" d="M421.8,150.6c-44.9-29.2-97-44.7-150.8-44.7v-3c54.4,0,107.1,15.6,152.4,45.2L421.8,150.6z"/>
	<path class="st2" d="M542.7,330.5C532.4,276,506,226.3,466.6,186.9l2.1-2.1c39.9,39.9,66.5,90.1,77,145.2L542.7,330.5z"/>
	<path class="st2" d="M500.5,542.1l-2.5-1.7c32.4-46.5,49.5-101.1,49.5-158h3C550.6,439.9,533.3,495.2,500.5,542.1z"/>
	<circle class="st3" cx="549.1" cy="382.4" r="11"/>
	<circle class="st2" cx="549.1" cy="382.4" r="12.5"/>
	<circle class="st0" cx="549.1" cy="382.4" r="9.5"/>
	<circle class="st0" cx="467.6" cy="185.8" r="11"/>
	<path class="st2" d="M467.6,198.3c-3.3,0-6.5-1.3-8.8-3.7c-2.4-2.4-3.7-5.5-3.7-8.8c0-3.3,1.3-6.5,3.7-8.8c2.4-2.4,5.5-3.7,8.8-3.7
		s6.5,1.3,8.8,3.7c2.4,2.4,3.7,5.5,3.7,8.8c0,3.3-1.3,6.5-3.7,8.8C474.1,197,471,198.3,467.6,198.3z M467.6,176.3
		c-2.5,0-4.9,1-6.7,2.8c-1.8,1.8-2.8,4.2-2.8,6.7c0,2.5,1,4.9,2.8,6.7c1.8,1.8,4.2,2.8,6.7,2.8c2.5,0,4.9-1,6.7-2.8
		c1.8-1.8,2.8-4.2,2.8-6.7c0-2.5-1-4.9-2.8-6.7C472.6,177.3,470.2,176.3,467.6,176.3z"/>
	<circle class="st0" cx="271.2" cy="104.4" r="11"/>
	<path class="st2" d="M271.2,116.9c-3.3,0-6.5-1.3-8.8-3.7c-4.9-4.9-4.9-12.8,0-17.7c2.4-2.4,5.5-3.7,8.8-3.7c3.3,0,6.5,1.3,8.8,3.7
		c2.4,2.4,3.7,5.5,3.7,8.8c0,3.3-1.3,6.5-3.7,8.8C277.7,115.6,274.5,116.9,271.2,116.9z M271.2,94.9c-2.5,0-4.9,1-6.7,2.8
		c-3.7,3.7-3.7,9.7,0,13.4c1.8,1.8,4.2,2.8,6.7,2.8s4.9-1,6.7-2.8c1.8-1.8,2.8-4.2,2.8-6.7c0-2.5-1-4.9-2.8-6.7
		C276.1,95.9,273.7,94.9,271.2,94.9z"/>
	<path class="st2" d="M56.1,169.5c-0.5,0-1.1-0.2-1.4-0.6c-0.4-0.4-0.6-0.9-0.6-1.4c0-0.5,0.2-1,0.6-1.4c0.8-0.7,2.1-0.8,2.8,0
		c0.4,0.4,0.6,0.9,0.6,1.4c0,0.5-0.2,1-0.6,1.4C57.1,169.2,56.6,169.5,56.1,169.5z"/>
	<path class="st2" d="M41.1,155.4c-0.8-0.8-0.8-2.1,0-2.8l0,0c0.8-0.8,2-0.8,2.8,0l0,0c0.8,0.8,0.8,2,0,2.8l0,0
		c-0.4,0.4-0.9,0.6-1.4,0.6l0,0C42,155.9,41.5,155.7,41.1,155.4z M27.6,141.8c-0.8-0.8-0.8-2,0-2.8l0,0c0.8-0.8,2-0.8,2.8,0l0,0
		c0.8,0.8,0.8,2.1,0,2.8l0,0c-0.4,0.4-0.9,0.6-1.4,0.6l0,0C28.5,142.4,28,142.2,27.6,141.8z M14.1,128.3c-0.8-0.8-0.8-2.1,0-2.8l0,0
		c0.8-0.8,2-0.8,2.8,0l0,0c0.8,0.8,0.8,2,0,2.8l0,0c-0.4,0.4-0.9,0.6-1.4,0.6l0,0C15,128.9,14.5,128.7,14.1,128.3z"/>
	<path class="st2" d="M2,115.4c-0.5,0-1-0.2-1.4-0.6c-0.4-0.4-0.6-0.9-0.6-1.4c0-0.5,0.2-1,0.6-1.4c0.7-0.7,2.1-0.7,2.8,0
		c0.4,0.4,0.6,0.9,0.6,1.4c0,0.5-0.2,1-0.6,1.4C3,115.2,2.5,115.4,2,115.4z"/>
	<path class="st2" d="M540,653.5c-0.5,0-1-0.2-1.4-0.6c-0.4-0.4-0.6-0.9-0.6-1.4c0-0.5,0.2-1.1,0.6-1.4c0.7-0.7,2.1-0.8,2.8,0
		c0.4,0.4,0.6,0.9,0.6,1.4c0,0.5-0.2,1-0.6,1.4C541.1,653.2,540.6,653.5,540,653.5z"/>
	<path class="st2" d="M525.1,639.4c-0.8-0.8-0.8-2,0-2.8l0,0c0.8-0.8,2-0.8,2.8,0l0,0c0.8,0.8,0.8,2,0,2.8l0,0
		c-0.4,0.4-0.9,0.6-1.4,0.6l0,0C526,639.9,525.5,639.7,525.1,639.4z M511.6,625.8c-0.8-0.8-0.8-2,0-2.8l0,0c0.8-0.8,2-0.8,2.8,0l0,0
		c0.8,0.8,0.8,2,0,2.8l0,0c-0.4,0.4-0.9,0.6-1.4,0.6l0,0C512.5,626.4,512,626.2,511.6,625.8z M498.1,612.3c-0.8-0.8-0.8-2.1,0-2.8
		l0,0c0.8-0.8,2-0.8,2.8,0l0,0c0.8,0.8,0.8,2,0,2.8l0,0c-0.4,0.4-0.9,0.6-1.4,0.6l0,0C499,612.9,498.5,612.7,498.1,612.3z"/>
	<path class="st2" d="M486,599.4c-0.5,0-1-0.2-1.4-0.6c-0.4-0.4-0.6-0.9-0.6-1.4c0-0.5,0.2-1,0.6-1.4c0.7-0.8,2.1-0.8,2.8,0
		c0.4,0.4,0.6,0.9,0.6,1.4c0,0.5-0.2,1-0.6,1.4C487,599.2,486.5,599.4,486,599.4z"/>
	<path class="st2" d="M271,80.4c-0.5,0-1-0.2-1.4-0.6c-0.4-0.4-0.6-0.9-0.6-1.4c0-0.5,0.2-1,0.6-1.4c0.8-0.7,2.1-0.7,2.8,0
		c0.4,0.4,0.6,0.9,0.6,1.4c0,0.5-0.2,1-0.6,1.4C272.1,80.2,271.5,80.4,271,80.4z"/>
	<path class="st2" d="M269,59.3c0-1.1,0.9-2,2-2l0,0c1.1,0,2,0.9,2,2l0,0c0,1.1-0.9,2-2,2l0,0C269.9,61.3,269,60.4,269,59.3z
		 M269,40.2c0-1.1,0.9-2,2-2l0,0c1.1,0,2,0.9,2,2l0,0c0,1.1-0.9,2-2,2l0,0C269.9,42.2,269,41.3,269,40.2z M269,21.1c0-1.1,0.9-2,2-2
		l0,0c1.1,0,2,0.9,2,2l0,0c0,1.1-0.9,2-2,2l0,0C269.9,23.1,269,22.2,269,21.1z"/>
	<path class="st2" d="M271,4c-0.5,0-1-0.2-1.4-0.6C269.2,3,269,2.5,269,2c0-0.5,0.2-1,0.6-1.4c0.8-0.8,2.1-0.7,2.8,0
		c0.4,0.4,0.6,0.9,0.6,1.4c0,0.5-0.2,1-0.6,1.4C272.1,3.8,271.5,4,271,4z"/>
	<path class="st2" d="M486,169.5c-0.5,0-1-0.2-1.4-0.6c-0.4-0.4-0.6-0.9-0.6-1.4c0-0.5,0.2-1,0.6-1.4c0.7-0.8,2.1-0.8,2.8,0
		c0.4,0.4,0.6,0.9,0.6,1.4c0,0.5-0.2,1-0.6,1.4C487,169.2,486.5,169.5,486,169.5z"/>
	<path class="st2" d="M498.1,155.4c-0.8-0.8-0.8-2.1,0-2.8l0,0c0.8-0.8,2-0.8,2.8,0l0,0c0.8,0.8,0.8,2,0,2.8l0,0
		c-0.4,0.4-0.9,0.6-1.4,0.6l0,0C499,155.9,498.5,155.7,498.1,155.4z M511.6,141.8c-0.8-0.8-0.8-2,0-2.8l0,0c0.8-0.8,2.1-0.8,2.8,0
		l0,0c0.8,0.8,0.8,2.1,0,2.8l0,0c-0.4,0.4-0.9,0.6-1.4,0.6l0,0C512.5,142.4,512,142.2,511.6,141.8z M525.1,128.3
		c-0.8-0.8-0.8-2,0-2.8l0,0c0.8-0.8,2-0.8,2.8,0l0,0c0.8,0.8,0.8,2,0,2.8l0,0c-0.4,0.4-0.9,0.6-1.4,0.6l0,0
		C526,128.9,525.5,128.7,525.1,128.3z"/>
	<path class="st2" d="M540,115.4c-0.5,0-1-0.2-1.4-0.6c-0.4-0.4-0.6-0.9-0.6-1.4c0-0.5,0.2-1,0.6-1.4c0.8-0.7,2.1-0.7,2.8,0
		c0.4,0.4,0.6,0.9,0.6,1.4c0,0.5-0.2,1-0.6,1.4C541.1,115.2,540.6,115.4,540,115.4z"/>
	<path class="st2" d="M575,384.4c-0.5,0-1-0.2-1.4-0.6c-0.4-0.4-0.6-0.9-0.6-1.4c0-0.5,0.2-1,0.6-1.4c0.8-0.8,2.1-0.8,2.8,0
		c0.4,0.4,0.6,0.9,0.6,1.4c0,0.5-0.2,1-0.6,1.4C576.1,384.2,575.6,384.4,575,384.4z"/>
	<path class="st2" d="M630.4,382.4c0-1.1,0.9-2,2-2l0,0c1.1,0,2,0.9,2,2l0,0c0,1.1-0.9,2-2,2l0,0
		C631.3,384.4,630.4,383.5,630.4,382.4z M611.3,382.4c0-1.1,0.9-2,2-2l0,0c1.1,0,2,0.9,2,2l0,0c0,1.1-0.9,2-2,2l0,0
		C612.1,384.4,611.3,383.5,611.3,382.4z M592.1,382.4c0-1.1,0.9-2,2-2l0,0c1.1,0,2,0.9,2,2l0,0c0,1.1-0.9,2-2,2l0,0
		C593,384.4,592.1,383.5,592.1,382.4z"/>
	<path class="st2" d="M651.5,384.4c-0.5,0-1-0.2-1.4-0.6c-0.4-0.4-0.6-0.9-0.6-1.4c0-0.5,0.2-1,0.6-1.4c0.7-0.8,2.1-0.8,2.8,0
		c0.4,0.4,0.6,0.9,0.6,1.4c0,0.5-0.2,1-0.6,1.4C652.5,384.2,652,384.4,651.5,384.4z"/>
	<polygon class="st2" points="407.5,158.7 407.3,155.7 428.5,154.5 427.3,133.4 430.3,133.2 431.6,157.4 	"/>
	<polygon class="st2" points="545.7,342.5 526,328.6 527.7,326.1 545,338.3 557.2,321 559.6,322.7 	"/>
	<polygon class="st2" points="490.5,549.6 490.4,525.5 493.4,525.5 493.5,546.6 514.7,546.5 514.7,549.5 	"/>
	<polygon class="st2" points="218.8,126 216.5,124.1 230.1,107.8 213.9,94.3 215.8,92 234.3,107.5 	"/>
	<path class="st1" d="M295.5,406.9c1.1,0.1,2.2,0.1,3.3,0.1c20.5,0,34.8-16,34.8-38.9c0-21.5-14.7-37.7-34.2-37.7
		c-12,0-20,4.4-29.4,16.1l-0.6,0.8l-33.7-30.8l17.4-96.6h102V260h-69.8l-6.4,36.5c10-4,16.7-5.3,26.3-5.3c19.8,0,37.9,7.7,50.9,21.8
		c13,14,20.1,33.4,20.1,54.6c0,34-18.8,61.7-46.7,73.1L295.5,406.9z"/>
	
		<radialGradient id="SVGID_1_" cx="-21369.3574" cy="-1316320.875" r="551.7397" gradientTransform="matrix(0.3642 0.3642 -0.1267 0.1267 -158757.3281 174982.1094)" gradientUnits="userSpaceOnUse">
		<stop  offset="0" style="stop-color:#000000"/>
		<stop  offset="3.908271e-02" style="stop-color:#222222"/>
		<stop  offset="9.918797e-02" style="stop-color:#505050"/>
		<stop  offset="0.1649" style="stop-color:#7A7A7A"/>
		<stop  offset="0.235" style="stop-color:#9E9E9E"/>
		<stop  offset="0.3103" style="stop-color:#BCBCBC"/>
		<stop  offset="0.3927" style="stop-color:#D5D5D5"/>
		<stop  offset="0.485" style="stop-color:#E8E8E8"/>
		<stop  offset="0.5928" style="stop-color:#F5F5F5"/>
		<stop  offset="0.7304" style="stop-color:#FDFDFD"/>
		<stop  offset="1" style="stop-color:#FFFFFF"/>
	</radialGradient>
	<path class="st4" d="M426,537.6c-21.8-21.8-283.2-283.2-305.3-305.3c0,0,101.3-6.4,206.5,98.8C429.5,433.3,426,537.6,426,537.6z"/>
	<circle class="st0" cx="74.4" cy="185.8" r="11"/>
	<path class="st2" d="M74.4,198.3c-3.3,0-6.5-1.3-8.8-3.7c-4.9-4.9-4.9-12.8,0-17.7c2.4-2.4,5.5-3.7,8.8-3.7c3.3,0,6.5,1.3,8.8,3.7
		c2.4,2.4,3.7,5.5,3.7,8.8c0,3.3-1.3,6.5-3.7,8.8C80.9,197,77.8,198.3,74.4,198.3z M74.4,176.3c-2.5,0-4.9,1-6.7,2.8
		c-3.7,3.7-3.7,9.7,0,13.4c1.8,1.8,4.2,2.8,6.7,2.8c2.5,0,4.9-1,6.7-2.8c1.8-1.8,2.8-4.2,2.8-6.7c0-2.5-1-4.9-2.8-6.7
		C79.3,177.3,76.9,176.3,74.4,176.3z"/>
	<path class="st1" d="M475.4,571.3c-4.3-4.3-11.3-4.3-15.6,0c-4.3,4.3-4.3,11.3,0,15.6c4.3,4.3,11.3,4.3,15.6,0
		C479.7,582.5,479.7,575.6,475.4,571.3z"/>
	<path class="st0" d="M467.6,591.5c-3.3,0-6.5-1.3-8.8-3.7c-4.9-4.9-4.9-12.8,0-17.7c2.4-2.4,5.5-3.7,8.8-3.7s6.5,1.3,8.8,3.7
		c4.9,4.9,4.9,12.8,0,17.7C474.1,590.2,471,591.5,467.6,591.5z M467.6,569.5c-2.5,0-4.9,1-6.7,2.8c-3.7,3.7-3.7,9.7,0,13.4
		c1.8,1.8,4.2,2.8,6.7,2.8c2.5,0,4.9-1,6.7-2.8c3.7-3.7,3.7-9.7,0-13.4C472.6,570.5,470.2,569.5,467.6,569.5z"/>
</g>
</svg>
