<?xml version="1.0" encoding="UTF-8"?>
<svg id="Layer_1" xmlns="http://www.w3.org/2000/svg" version="1.1" viewBox="0 0 566.93 189">
  <!-- Generator: Adobe Illustrator 30.3.0, SVG Export Plug-In . SVG Version: 2.1.3 Build 182)  -->
  <defs>
    <style>
      .st0 {
        fill: #fff;
      }
    </style>
  </defs>
  <path class="st0" d="M123.93,95.76c1.16,0,2.12.27,2.9.8s1.17,1.42,1.17,2.67c0,.58-.17,1.51-.5,2.8-.33,1.29-.78,2.78-1.33,4.47-.56,1.69-1.19,3.52-1.9,5.47-.71,1.96-1.45,3.88-2.2,5.77-.76,1.89-1.51,3.68-2.27,5.37-.76,1.69-1.45,3.12-2.07,4.27-.45.36-1.11.65-2,.87s-1.87.33-2.94.33c-1.29,0-2.39-.17-3.3-.5s-1.57-.88-1.97-1.64-.89-1.8-1.47-3.14c-.58-1.34-1.2-2.85-1.87-4.54-.67-1.69-1.36-3.48-2.07-5.37-.71-1.89-1.39-3.77-2.04-5.64-.65-1.87-1.25-3.67-1.8-5.41-.56-1.74-1.01-3.29-1.37-4.67.44-.53,1.08-.99,1.9-1.37s1.68-.57,2.57-.57c1.16,0,2.1.27,2.84.8.73.53,1.3,1.49,1.7,2.87l3.34,11.01c.27.89.57,1.84.9,2.84s.66,1.98.97,2.94.61,1.87.9,2.74.52,1.59.7,2.17h.27c1.29-3.92,2.56-7.95,3.8-12.12,1.25-4.16,2.34-8.27,3.27-12.32.53-.31,1.15-.54,1.84-.7.69-.16,1.37-.23,2.04-.23v.03Z"/>
  <path class="st0" d="M133.87,87.02c0-1.29.46-2.39,1.37-3.3s2.08-1.37,3.5-1.37,2.58.46,3.47,1.37c.89.91,1.33,2.01,1.33,3.3s-.45,2.46-1.33,3.37c-.89.91-2.05,1.37-3.47,1.37s-2.59-.46-3.5-1.37-1.37-2.04-1.37-3.37ZM134.54,96.7c.36-.09.88-.2,1.57-.33.69-.13,1.44-.2,2.24-.2,1.6,0,2.77.29,3.5.87s1.1,1.6,1.1,3.07v27.9c-.36.09-.88.2-1.57.33-.69.13-1.44.2-2.24.2-1.6,0-2.77-.29-3.5-.87s-1.1-1.6-1.1-3.07v-27.9Z"/>
  <path class="st0" d="M158.57,116.06c.62,2.27,1.78,3.92,3.47,4.94s3.78,1.54,6.27,1.54c1.87,0,3.59-.28,5.17-.83,1.58-.56,2.86-1.15,3.84-1.77.62.36,1.14.85,1.54,1.47s.6,1.29.6,2c0,.89-.3,1.68-.9,2.37-.6.69-1.42,1.28-2.47,1.77s-2.28.87-3.7,1.13c-1.42.27-2.96.4-4.61.4-2.63,0-5.02-.36-7.18-1.07-2.16-.71-4.01-1.79-5.54-3.24-1.54-1.45-2.74-3.24-3.6-5.37-.87-2.14-1.3-4.63-1.3-7.48s.42-5.16,1.27-7.21c.84-2.05,1.99-3.76,3.44-5.14s3.13-2.4,5.04-3.07c1.91-.67,3.94-1,6.07-1s4.18.35,6.01,1.03c1.82.69,3.38,1.65,4.67,2.87s2.3,2.69,3.04,4.41c.73,1.71,1.1,3.57,1.1,5.57,0,1.25-.32,2.18-.97,2.8s-1.55,1.02-2.7,1.2l-18.56,2.67h0ZM165.98,101.84c-2.18,0-4.01.72-5.47,2.17-1.47,1.45-2.29,3.5-2.47,6.17l14.82-2.2c-.18-1.65-.82-3.08-1.94-4.31-1.11-1.22-2.76-1.84-4.94-1.84h0Z"/>
  <path class="st0" d="M197.12,121.33c.87.62,2.08.93,3.64.93.76,0,1.52-.09,2.3-.27s1.48-.4,2.1-.67c.36.36.66.79.9,1.3.24.51.37,1.1.37,1.77,0,1.33-.6,2.44-1.8,3.3-1.2.87-3.14,1.3-5.81,1.3-3.52,0-6.29-.79-8.31-2.37-2.03-1.58-3.04-4.19-3.04-7.84v-30.64c.36-.09.88-.2,1.57-.33.69-.13,1.44-.2,2.24-.2,1.56,0,2.7.29,3.44.87.73.58,1.1,1.6,1.1,3.07v5.54h9.81c.22.36.42.82.6,1.4.18.58.27,1.2.27,1.87,0,1.16-.27,2-.8,2.54-.53.53-1.25.8-2.14.8h-7.74v14.55c0,1.42.43,2.45,1.3,3.07h0Z"/>
  <path class="st0" d="M220.22,128.34c-.69.13-1.44.2-2.24.2-1.6,0-2.77-.29-3.5-.87s-1.1-1.6-1.1-3.07v-39.92c.36-.13.88-.26,1.57-.37s1.44-.17,2.24-.17c1.6,0,2.77.29,3.5.87s1.1,1.6,1.1,3.07v39.92c-.36.09-.88.2-1.57.33h0Z"/>
  <path class="st0" d="M261.84,112.25c0,2.58-.39,4.91-1.17,6.98s-1.88,3.84-3.3,5.31c-1.42,1.47-3.14,2.59-5.14,3.37s-4.25,1.17-6.74,1.17-4.74-.39-6.74-1.17-3.72-1.89-5.14-3.34c-1.42-1.45-2.53-3.2-3.3-5.27-.78-2.07-1.17-4.42-1.17-7.04s.39-4.91,1.17-6.98,1.89-3.83,3.34-5.27c1.45-1.45,3.17-2.56,5.17-3.34s4.23-1.17,6.68-1.17,4.67.39,6.68,1.17c2,.78,3.73,1.9,5.17,3.37,1.45,1.47,2.56,3.24,3.34,5.31s1.17,4.37,1.17,6.91h-.02ZM245.48,102.17c-2.4,0-4.29.88-5.67,2.64s-2.07,4.24-2.07,7.44.68,5.74,2.04,7.48c1.36,1.74,3.26,2.6,5.71,2.6s4.35-.88,5.71-2.64,2.04-4.24,2.04-7.44-.69-5.68-2.07-7.44-3.27-2.64-5.67-2.64h-.02Z"/>
  <path class="st0" d="M288.04,103.51c-1.09-.89-2.57-1.34-4.44-1.34-1.29,0-2.48.16-3.57.47s-2.04.71-2.84,1.2v24.16c-.4.09-.93.2-1.6.33-.67.13-1.42.2-2.27.2-1.56,0-2.71-.29-3.47-.87s-1.13-1.6-1.13-3.07v-21.43c0-1.07.22-1.94.67-2.6.44-.67,1.13-1.31,2.07-1.94,1.29-.89,3-1.64,5.14-2.24,2.14-.6,4.49-.9,7.08-.9,4.58,0,8.13,1.01,10.65,3.04,2.51,2.03,3.77,5,3.77,8.91v20.56c-.36.09-.88.2-1.57.33-.69.13-1.43.2-2.24.2-1.6,0-2.77-.29-3.5-.87s-1.1-1.6-1.1-3.07v-16.89c0-1.91-.55-3.31-1.64-4.21v.03Z"/>
  <path class="st0" d="M326.92,125.34c-.89.45-1.93.82-3.1,1.13-1.18.31-2.55.47-4.11.47-2,0-3.89-.28-5.67-.83-1.78-.56-3.34-1.46-4.67-2.7-1.33-1.25-2.39-2.86-3.17-4.84s-1.17-4.39-1.17-7.24c0-2.58.39-4.86,1.17-6.84s1.89-3.64,3.34-4.97c1.45-1.33,3.17-2.34,5.17-3,2-.67,4.23-1,6.67-1,2.31,0,4.44.29,6.38.87s3.48,1.25,4.64,2c.8.53,1.43,1.13,1.9,1.8.47.67.7,1.51.7,2.54v25.77c0,2.27-.41,4.23-1.24,5.87-.82,1.65-1.95,2.99-3.37,4.04-1.42,1.04-3.09,1.81-5.01,2.3-1.91.49-3.98.73-6.21.73s-4.33-.21-6.04-.63c-1.71-.42-2.99-.9-3.84-1.44-1.47-.93-2.2-2.18-2.2-3.74,0-.85.18-1.58.53-2.2.36-.62.78-1.09,1.27-1.4,1.16.71,2.56,1.33,4.21,1.87,1.65.53,3.4.8,5.27.8,2.67,0,4.76-.51,6.28-1.54,1.51-1.02,2.27-2.67,2.27-4.94v-2.87h0ZM321.11,120.4c1.29,0,2.39-.18,3.3-.53.91-.36,1.7-.78,2.37-1.27v-15.09c-.62-.36-1.35-.67-2.17-.93s-1.81-.4-2.97-.4c-2.45,0-4.42.75-5.91,2.24s-2.24,3.79-2.24,6.91c0,1.69.19,3.12.57,4.27.38,1.16.91,2.09,1.6,2.8s1.5,1.22,2.44,1.54c.93.31,1.94.47,3,.47h.01Z"/>
  <path class="st0" d="M351.55,98.57h12.08c.22.36.42.81.6,1.37s.27,1.17.27,1.84c0,1.16-.27,2-.8,2.54s-1.25.8-2.14.8h-9.61v22.9c-.4.09-.93.2-1.6.33-.67.13-1.42.2-2.27.2-1.56,0-2.72-.29-3.47-.87-.76-.58-1.13-1.6-1.13-3.07v-29.5c0-2.14.33-3.96,1-5.47s1.6-2.76,2.8-3.74c1.2-.98,2.63-1.7,4.27-2.17,1.65-.47,3.45-.7,5.41-.7,5.92,0,8.88,1.56,8.88,4.67,0,.71-.14,1.35-.43,1.9-.29.56-.63,1.01-1.04,1.37-.85-.36-1.79-.64-2.84-.87-1.05-.22-2.15-.33-3.3-.33-2.31,0-4.01.45-5.07,1.34-1.07.89-1.6,2.34-1.6,4.34v3.14-.02Z"/>
  <path class="st0" d="M377.59,128.01c-.4.09-.93.2-1.6.33-.67.13-1.42.2-2.27.2-1.56,0-2.71-.29-3.47-.87s-1.13-1.6-1.13-3.07v-21.16c0-1.16.27-2.14.8-2.94s1.31-1.51,2.34-2.14c1.38-.84,3.08-1.54,5.11-2.07,2.02-.53,4.22-.8,6.58-.8,4.23,0,6.34,1.31,6.34,3.94,0,.62-.1,1.21-.3,1.77-.2.56-.41,1.01-.63,1.37-1.02-.22-2.29-.33-3.8-.33s-3.03.18-4.41.53c-1.38.36-2.56.8-3.54,1.33v23.9h-.02Z"/>
  <path class="st0" d="M424.45,124.43c-.36.69-1,1.3-1.94,1.84-1.29.8-2.93,1.47-4.91,2s-4.24.8-6.78.8c-2.31,0-4.41-.26-6.27-.77-1.87-.51-3.47-1.3-4.81-2.37-1.33-1.07-2.36-2.42-3.07-4.07-.71-1.65-1.07-3.6-1.07-5.87v-19.42c.36-.13.88-.26,1.57-.37s1.46-.17,2.3-.17c1.56,0,2.71.28,3.47.83.76.56,1.13,1.59,1.13,3.1v15.89c0,2.31.59,3.97,1.77,4.97s2.86,1.5,5.04,1.5c1.38,0,2.55-.13,3.5-.4s1.68-.56,2.17-.87v-24.5c.36-.13.88-.26,1.57-.37s1.44-.17,2.24-.17c1.6,0,2.77.28,3.5.83.73.56,1.1,1.59,1.1,3.1v21.9c0,1.02-.18,1.88-.53,2.57l.02.02Z"/>
  <path class="st0" d="M433.06,87.02c0-1.29.46-2.39,1.37-3.3.91-.91,2.08-1.37,3.5-1.37s2.58.46,3.47,1.37c.89.91,1.33,2.01,1.33,3.3s-.45,2.46-1.33,3.37c-.89.91-2.05,1.37-3.47,1.37s-2.59-.46-3.5-1.37-1.37-2.04-1.37-3.37ZM433.72,96.7c.36-.09.88-.2,1.57-.33.69-.13,1.44-.2,2.24-.2,1.6,0,2.77.29,3.5.87s1.1,1.6,1.1,3.07v27.9c-.36.09-.88.2-1.57.33-.69.13-1.44.2-2.24.2-1.6,0-2.77-.29-3.5-.87s-1.1-1.6-1.1-3.07v-27.9Z"/>
  <path class="st0" d="M460.66,121.33c.87.62,2.08.93,3.64.93.76,0,1.52-.09,2.3-.27s1.48-.4,2.1-.67c.36.36.66.79.9,1.3.24.51.37,1.1.37,1.77,0,1.33-.6,2.44-1.8,3.3-1.2.87-3.14,1.3-5.81,1.3-3.52,0-6.29-.79-8.31-2.37-2.03-1.58-3.04-4.19-3.04-7.84v-30.64c.36-.09.88-.2,1.57-.33.69-.13,1.44-.2,2.24-.2,1.56,0,2.7.29,3.44.87.73.58,1.1,1.6,1.1,3.07v5.54h9.81c.22.36.42.82.6,1.4s.27,1.2.27,1.87c0,1.16-.27,2-.8,2.54-.53.53-1.25.8-2.14.8h-7.74v14.55c0,1.42.43,2.45,1.3,3.07h0Z"/>
  <path class="st0" d="M253.24,95.19s-1-9.34,12.34-9.17c0,7.5-5,10.5-12.34,9.17h0Z"/>
  <path class="st0" d="M252.17,91.84s-9.34,1-9.17-12.34c7.5,0,10.5,5,9.17,12.34Z"/>
</svg>