<?xml version="1.0" encoding="utf-8"?>
<!-- Generator: Adobe Illustrator 25.0.0, SVG Export Plug-In . SVG Version: 6.00 Build 0)  -->
<svg version="1.1" id="Layer_1" xmlns="http://www.w3.org/2000/svg" xmlns:xlink="http://www.w3.org/1999/xlink" x="0px" y="0px"
	 viewBox="0 0 57.8 49.8" style="enable-background:new 0 0 57.8 49.8;" xml:space="preserve">
<style type="text/css">
	.st0{fill:#5B8C51;}
</style>
<g>
	<path class="st0" d="M57.8,43c-0.3,0.4-0.8,0.6-1.3,0.6c-2.1,0-4.3,0-6.4,0c-1.3,0-1.9-0.6-1.9-1.9c0-4.8,0-9.6,0-14.4
		c0-0.2,0-0.4,0-0.7c-1.1,0-2.2,0-3.3,0c-1.1,0.1-2.1-0.2-3-0.8c-3.3-2-6.6-4-9.9-6c-0.7-0.4-1.3-0.6-2.1-0.6c-2.2,0-4.4,0-6.6,0
		c-1,0-1.7,0.4-2.3,1.1c-1.4,1.9-2.8,3.8-4.2,5.6C15.8,27,16,28.4,17,29.2c1.1,0.8,2.5,0.6,3.4-0.5c1.1-1.4,2.1-2.8,3.2-4.1
		c1-1.2,2.4-1.5,3.7-0.7c5.6,3.4,11.1,6.9,16.7,10.4c1.2,0.8,1.8,1.9,1.6,3.3c-0.2,1.3-1,2.2-2.2,2.6c-0.5,0.2-1,0.1-1.6,0.2
		c-0.1,0.9-0.5,1.8-1.3,2.4c-0.9,0.6-1.8,0.7-2.9,0.5c-0.1,1.1-0.6,2-1.5,2.6c-0.9,0.6-1.9,0.7-2.9,0.3c0,0.2-0.1,0.3-0.1,0.4
		c-0.5,2-2.6,3.1-4.5,2.2c-0.5-0.2-0.9-0.4-1.4-0.6c-0.6-0.3-0.8-0.7-0.6-1.3c0.1-0.2,0.1-0.3,0.2-0.5c0.3-0.6,0.1-1.3-0.5-1.6
		c-0.6-0.3-1.2-0.2-1.7,0.4c-0.2,0.3-0.4,0.7-0.7,1c-0.5,0.8-0.4,1.3,0.2,2c0.2,0.2,0.4,0.7,0.3,0.9c-0.1,0.3-0.4,0.5-0.7,0.6
		c-0.2,0.1-0.6-0.1-0.8-0.2c-1.2-0.9-1.5-2.6-0.8-3.9c0.3-0.5,0.6-0.9,0.9-1.3c0.4-0.7,0.3-1.4-0.3-1.7c-0.6-0.4-1.3-0.3-1.8,0.4
		c-0.3,0.4-0.5,0.7-0.7,1.1c-0.4,0.7-0.3,1.2,0.3,1.8c0.2,0.2,0.4,0.4,0.4,0.6c0,0.3-0.2,0.7-0.4,0.9c-0.3,0.3-0.7,0.2-1,0
		c-1.3-0.8-1.7-2.6-0.9-4c0.3-0.5,0.6-0.9,0.9-1.3c0.4-0.7,0.3-1.4-0.3-1.8c-0.6-0.4-1.3-0.2-1.8,0.4c-0.2,0.3-0.4,0.7-0.7,1
		c-0.5,0.8-0.4,1.3,0.2,1.9c0.6,0.6,0.5,1.4-0.3,1.6c-0.3,0.1-0.6,0-0.9-0.2c-1.2-0.9-1.6-2.6-0.8-4c0.3-0.4,0.6-0.8,0.8-1.3
		c0.4-0.7,0.3-1.4-0.3-1.8c-0.6-0.4-1.3-0.2-1.8,0.4c-0.2,0.3-0.5,0.7-0.7,1c-0.5,0.7-0.4,1.2,0.3,1.8c0,0,0.1,0.1,0.1,0.1
		c0.3,0.4,0.4,0.8,0.1,1.2c-0.3,0.4-0.8,0.5-1.2,0.2C11.5,42,11,41.2,11,40.2c0-0.2,0-0.4,0-0.6c-0.5,0-0.9,0-1.4,0c0,0.7,0,1.3,0,2
		c0,1.3-0.6,1.9-1.9,1.9c-2.2,0-4.3,0-6.5,0c-0.1,0-0.3,0-0.4,0C0.3,43.4,0,43,0,42.5c0-0.5,0.4-0.8,1-0.8c1.7,0,3.4,0,5.1,0
		c0.6,0,1.1,0,1.7,0c0-5.9,0-11.7,0-17.6c-0.2,0-0.4,0-0.6,0c-2,0-3.9,0-5.9,0c-0.1,0-0.3,0-0.4,0c-0.5,0-0.9-0.4-0.9-0.9
		c0-0.5,0.4-0.9,0.9-0.9c2.4,0,4.8,0,7.2,0c0.8,0,1.4,0.7,1.5,1.5c0,0.2,0,0.4,0,0.7c0.2,0,0.3,0,0.5,0c1.6,0,3.2,0,4.8,0
		c0.3,0,0.6-0.2,0.7-0.4c1.3-1.6,2.5-3.3,3.8-4.9c1-1.3,2.3-2,3.9-1.9c2.2,0,4.4,0,6.5,0c1.1,0,2,0.3,2.9,0.8
		c3.5,2.1,6.9,4.2,10.4,6.2c0.4,0.2,0.8,0.3,1.2,0.3c1.3,0,2.5,0,3.8,0c0-0.1,0-0.2,0-0.3c0.1-1.6,0.5-2,2.1-2c2.1,0,4.2,0,6.3,0
		c0.5,0,1,0.1,1.2,0.6c0,0.2,0,0.5,0,0.7c-0.3,0.4-0.7,0.6-1.3,0.6c-2,0-3.9,0-5.9,0c-0.2,0-0.4,0-0.6,0c0,5.9,0,11.7,0,17.6
		c0.2,0,0.4,0,0.6,0c2,0,3.9,0,5.9,0c0.5,0,0.9,0.1,1.2,0.6C57.8,42.5,57.8,42.8,57.8,43z M28.5,46.9c0.2,0.1,0.4,0.2,0.6,0.3
		c0.8,0.4,1.5,0.2,1.9-0.5c0.4-0.7,0.2-1.5-0.5-2c-0.5-0.3-1-0.6-1.4-1c-0.4-0.3-0.5-0.8-0.2-1.2c0.3-0.4,0.8-0.5,1.2-0.2
		c0.1,0.1,0.3,0.2,0.4,0.3c1,0.6,1.9,1.3,2.9,1.9c0.9,0.5,1.9,0.1,2.2-0.8c0.2-0.6-0.1-1.2-0.7-1.6c-0.9-0.6-1.8-1.2-2.7-1.8
		c-0.2-0.2-0.4-0.6-0.4-0.9c0-0.3,0.4-0.6,0.7-0.7c0.2-0.1,0.6,0.1,0.8,0.2c1.4,0.8,2.8,1.7,4.2,2.6c0.9,0.6,1.8,0.4,2.2-0.4
		c0.4-0.7,0.2-1.5-0.7-2.1c-0.7-0.5-1.5-0.9-2.2-1.4c-0.4-0.3-0.9-0.6-1.3-0.9c-0.6-0.4-0.8-0.9-0.5-1.4c0.3-0.5,0.8-0.5,1.4-0.2
		c0.2,0.1,0.3,0.2,0.5,0.3c1.5,0.9,3,1.9,4.5,2.8c0.3,0.2,0.7,0.3,1.1,0.3c0.6,0,1.1-0.5,1.2-1.1c0.2-0.7-0.1-1.2-0.8-1.7
		c-5.5-3.4-11-6.8-16.5-10.2c-0.7-0.4-1-0.4-1.5,0.3c-1.1,1.4-2.1,2.8-3.3,4.2c-1.1,1.3-2.5,1.8-4.2,1.4c-1.7-0.4-2.8-1.5-3.1-3.2
		c-0.1-0.6,0-1.2,0-1.9c-1.6,0-3.2,0-4.8,0c0,3.8,0,7.6,0,11.4c0.6,0,1.2,0,1.7,0c0.4,0,0.6-0.1,0.8-0.4c0.7-1.1,1.7-1.7,3-1.6
		c1.3,0.1,2.2,0.9,2.6,2.1c0,0.1,0.2,0.3,0.3,0.3c1.7-0.1,2.8,0.8,3.4,2.4c1.8-0.1,3,0.6,3.6,2.3C27.4,42.6,29,44.5,28.5,46.9z"/>
	<path class="st0" d="M19.3,3.9c0.3,0.2,0.6,0.3,0.7,0.4c0.9,0.9,1.8,1.8,2.8,2.7c0.4,0.4,0.5,1,0.1,1.4c-0.4,0.4-0.9,0.4-1.3-0.1
		c-0.9-0.9-1.9-1.9-2.8-2.8c-0.3-0.3-0.4-0.7-0.2-1.1C18.7,4.3,19,4.1,19.3,3.9z"/>
	<path class="st0" d="M39.3,4.9c-0.2,0.3-0.3,0.6-0.4,0.8c-0.9,0.9-1.8,1.9-2.8,2.8c-0.4,0.4-1,0.4-1.3,0.1
		c-0.4-0.4-0.3-0.9,0.1-1.3c0.9-1,1.9-1.9,2.8-2.8c0.2-0.2,0.7-0.3,1-0.2C38.9,4.2,39.1,4.6,39.3,4.9z"/>
	<path class="st0" d="M17.7,12c0.6,0,1.3,0,1.9,0c0.6,0,1,0.4,1,0.9c0,0.5-0.4,0.9-1,0.9c-1.3,0-2.6,0-3.9,0c-0.6,0-1-0.4-1-0.9
		c0-0.5,0.4-0.9,1.1-0.9C16.4,12,17.1,12,17.7,12z"/>
	<path class="st0" d="M29.8,3c0,0.7,0,1.3,0,2c0,0.6-0.4,1-0.9,1C28.4,6,28,5.6,28,5c0-1.3,0-2.6,0-3.9c0-0.6,0.4-1,0.9-1
		c0.5,0,0.9,0.4,0.9,1C29.8,1.7,29.8,2.3,29.8,3z"/>
	<path class="st0" d="M40.4,13.8c-0.7,0-1.3,0-2,0c-0.6,0-1-0.4-1-0.9c0-0.5,0.4-0.9,1-0.9c1.3,0,2.6,0,3.9,0c0.6,0,1,0.4,1,0.9
		c0,0.5-0.4,0.9-1,0.9C41.7,13.8,41.1,13.8,40.4,13.8z"/>
</g>
</svg>
